<ttFont>
    <TTGlyph name=".notdef" xMin="228" yMin="0" xMax="1644" yMax="1416">
      <contour>
        <pt x="228" y="1416" on="1"/>
        <pt x="1644" y="1416" on="1"/>
        <pt x="1644" y="0" on="1"/>
        <pt x="228" y="0" on="1"/>
      </contour>
      <contour>
        <pt x="586" y="219" on="1"/>
        <pt x="933" y="587" on="1"/>
        <pt x="1295" y="219" on="1"/>
        <pt x="1417" y="341" on="1"/>
        <pt x="1054" y="709" on="1"/>
        <pt x="1417" y="1067" on="1"/>
        <pt x="1289" y="1191" on="1"/>
        <pt x="937" y="825" on="1"/>
        <pt x="580" y="1193" on="1"/>
        <pt x="457" y="1068" on="1"/>
        <pt x="816" y="705" on="1"/>
        <pt x="458" y="363" on="1"/>
      </contour>
    </TTGlyph>
    <TTGlyph name="A" xMin="21" yMin="0" xMax="1386" yMax="1538">
      <contour>
        <pt x="603" y="1538" on="1"/>
        <pt x="818" y="1538" on="1"/>
        <pt x="1386" y="0" on="1"/>
        <pt x="1145" y="0" on="1"/>
        <pt x="1015" y="385" on="1"/>
        <pt x="393" y="385" on="1"/>
        <pt x="257" y="0" on="1"/>
        <pt x="21" y="0" on="1"/>
      </contour>
      <contour>
        <pt x="959" y="551" on="1"/>
        <pt x="755" y="1160" on="1"/>
        <pt x="712" y="1302" on="1"/>
        <pt x="668" y="1160" on="1"/>
        <pt x="452" y="551" on="1"/>
      </contour>
    </TTGlyph>
    <TTGlyph name="AE" xMin="-73" yMin="0" xMax="1786" yMax="1522">
      <contour>
        <pt x="652" y="1522" on="1"/>
        <pt x="1713" y="1522" on="1"/>
        <pt x="1713" y="1350" on="1"/>
        <pt x="1060" y="1350" on="1"/>
        <pt x="1060" y="870" on="1"/>
        <pt x="1539" y="870" on="1"/>
        <pt x="1539" y="698" on="1"/>
        <pt x="1060" y="698" on="1"/>
        <pt x="1060" y="175" on="1"/>
        <pt x="1786" y="175" on="1"/>
        <pt x="1786" y="0" on="1"/>
        <pt x="837" y="0" on="1"/>
        <pt x="837" y="385" on="1"/>
        <pt x="356" y="385" on="1"/>
        <pt x="173" y="0" on="1"/>
        <pt x="-73" y="0" on="1"/>
      </contour>
      <contour>
        <pt x="837" y="551" on="1"/>
        <pt x="837" y="1376" on="1"/>
        <pt x="827" y="1376" on="1"/>
        <pt x="435" y="551" on="1"/>
      </contour>
    </TTGlyph>
    <TTGlyph name="AEacute" xMin="-73" yMin="0" xMax="1786" yMax="1980">
      <component glyphName="acute.cap" x="834" y="0" flags="0x1004"/>
      <component glyphName="AE" x="0" y="0" flags="0x1004"/>
    </TTGlyph>
    <TTGlyph name="Aacute" xMin="21" yMin="0" xMax="1386" yMax="1980">
      <component glyphName="A" x="0" y="0" flags="0x1204"/>
      <component glyphName="acute.cap" x="516" y="0" flags="0x1004"/>
    </TTGlyph>
    <TTGlyph name="Abreve" xMin="21" yMin="0" xMax="1386" yMax="1970">
      <component glyphName="A" x="0" y="0" flags="0x1204"/>
      <component glyphName="breve.cap" x="311" y="0" flags="0x1004"/>
    </TTGlyph>
    <TTGlyph name="Acircumflex" xMin="21" yMin="0" xMax="1386" yMax="1990">
      <component glyphName="A" x="0" y="0" flags="0x1204"/>
      <component glyphName="circumflex.cap" x="296" y="0" flags="0x1004"/>
    </TTGlyph>
    <TTGlyph name="Adieresis" xMin="21" yMin="0" xMax="1386" yMax="1955">
      <component glyphName="A" x="0" y="0" flags="0x1204"/>
      <component glyphName="dieresis.cap" x="256" y="0" flags="0x1004"/>
    </TTGlyph>
    <TTGlyph name="Agrave" xMin="21" yMin="0" xMax="1386" yMax="1980">
      <component glyphName="A" x="0" y="0" flags="0x1204"/>
      <component glyphName="grave.cap" x="292" y="0" flags="0x1004"/>
    </TTGlyph>
    <TTGlyph name="Amacron" xMin="21" yMin="0" xMax="1386" yMax="1891">
      <component glyphName="A" x="0" y="0" flags="0x1204"/>
      <component glyphName="macron.cap" x="381" y="0" flags="0x1004"/>
    </TTGlyph>
    <TTGlyph name="Aogonek" xMin="21" yMin="-512" xMax="1394" yMax="1538">
      <contour>
        <pt x="1394" y="-453" on="1"/>
        <pt x="1317" y="-512" on="0"/>
        <pt x="1157" y="-512" on="1"/>
        <pt x="986" y="-512" on="0"/>
        <pt x="930" y="-392" on="1"/>
        <pt x="911" y="-351" on="0"/>
        <pt x="911" y="-252" on="0"/>
        <pt x="959" y="-164" on="0"/>
        <pt x="998" y="-126" on="1"/>
        <pt x="1069" y="-55" on="0"/>
        <pt x="1177" y="0" on="1"/>
        <pt x="1145" y="0" on="1"/>
        <pt x="1015" y="385" on="1"/>
        <pt x="393" y="385" on="1"/>
        <pt x="257" y="0" on="1"/>
        <pt x="21" y="0" on="1"/>
        <pt x="603" y="1538" on="1"/>
        <pt x="818" y="1538" on="1"/>
        <pt x="1386" y="0" on="1"/>
        <pt x="1347" y="0" on="1"/>
        <pt x="1197" y="-85" on="0"/>
        <pt x="1144" y="-190" on="1"/>
        <pt x="1127" y="-223" on="0"/>
        <pt x="1127" y="-255" on="1"/>
        <pt x="1127" y="-364" on="0"/>
        <pt x="1255" y="-364" on="1"/>
        <pt x="1320" y="-364" on="0"/>
        <pt x="1394" y="-335" on="1"/>
      </contour>
      <contour>
        <pt x="959" y="551" on="1"/>
        <pt x="755" y="1160" on="1"/>
        <pt x="712" y="1302" on="1"/>
        <pt x="668" y="1160" on="1"/>
        <pt x="452" y="551" on="1"/>
      </contour>
    </TTGlyph>
    <TTGlyph name="Aring" xMin="21" yMin="0" xMax="1386" yMax="1970">
      <contour>
        <pt x="571" y="1453" on="1"/>
        <pt x="481" y="1480" on="0"/>
        <pt x="381" y="1609" on="0"/>
        <pt x="381" y="1701" on="1"/>
        <pt x="381" y="1838" on="0"/>
        <pt x="484" y="1910" on="1"/>
        <pt x="569" y="1970" on="0"/>
        <pt x="701" y="1970" on="1"/>
        <pt x="931" y="1970" on="0"/>
        <pt x="1000" y="1820" on="1"/>
        <pt x="1022" y="1771" on="0"/>
        <pt x="1020" y="1607" on="0"/>
        <pt x="923" y="1486" on="0"/>
        <pt x="847" y="1459" on="1"/>
        <pt x="1386" y="0" on="1"/>
        <pt x="1145" y="0" on="1"/>
        <pt x="1015" y="385" on="1"/>
        <pt x="393" y="385" on="1"/>
        <pt x="257" y="0" on="1"/>
        <pt x="21" y="0" on="1"/>
      </contour>
      <contour>
        <pt x="699" y="1561" on="1"/>
        <pt x="868" y="1561" on="0"/>
        <pt x="868" y="1706" on="1"/>
        <pt x="868" y="1807" on="0"/>
        <pt x="766" y="1837" on="1"/>
        <pt x="735" y="1846" on="0"/>
        <pt x="669" y="1846" on="0"/>
        <pt x="611" y="1834" on="0"/>
        <pt x="588" y="1818" on="1"/>
        <pt x="537" y="1783" on="0"/>
        <pt x="537" y="1641" on="0"/>
        <pt x="624" y="1563" on="0"/>
      </contour>
      <contour>
        <pt x="959" y="551" on="1"/>
        <pt x="755" y="1160" on="1"/>
        <pt x="712" y="1302" on="1"/>
        <pt x="668" y="1160" on="1"/>
        <pt x="452" y="551" on="1"/>
      </contour>
    </TTGlyph>
    <TTGlyph name="Atilde" xMin="21" yMin="0" xMax="1386" yMax="1966">
      <component glyphName="A" x="0" y="0" flags="0x1204"/>
      <component glyphName="tilde.cap" x="239" y="0" flags="0x1004"/>
    </TTGlyph>
    <TTGlyph name="B" xMin="194" yMin="-14" xMax="1247" yMax="1537">
      <contour>
        <pt x="652" y="-14" on="1"/>
        <pt x="494" y="-14" on="0"/>
        <pt x="305" y="0" on="1"/>
        <pt x="194" y="0" on="1"/>
        <pt x="194" y="1523" on="1"/>
        <pt x="298" y="1522" on="1"/>
        <pt x="648" y="1537" on="1"/>
        <pt x="1020" y="1537" on="0"/>
        <pt x="1114" y="1324" on="1"/>
        <pt x="1144" y="1258" on="0"/>
        <pt x="1144" y="1125" on="0"/>
        <pt x="1118" y="1014" on="0"/>
        <pt x="1090" y="964" on="1"/>
        <pt x="1028" y="853" on="0"/>
        <pt x="913" y="823" on="1"/>
        <pt x="1051" y="817" on="0"/>
        <pt x="1150" y="706" on="1"/>
        <pt x="1247" y="598" on="0"/>
        <pt x="1247" y="456" on="1"/>
        <pt x="1247" y="232" on="0"/>
        <pt x="1117" y="118" on="1"/>
        <pt x="966" y="-14" on="0"/>
      </contour>
      <contour>
        <pt x="607" y="1380" on="1"/>
        <pt x="449" y="1380" on="0"/>
        <pt x="416" y="1367" on="1"/>
        <pt x="416" y="867" on="1"/>
        <pt x="458" y="860" on="0"/>
        <pt x="554" y="860" on="1"/>
        <pt x="693" y="862" on="1"/>
        <pt x="795" y="862" on="0"/>
        <pt x="859" y="932" on="1"/>
        <pt x="928" y="1009" on="0"/>
        <pt x="928" y="1145" on="1"/>
        <pt x="928" y="1380" on="0"/>
      </contour>
      <contour>
        <pt x="569" y="704" on="1"/>
        <pt x="460" y="704" on="0"/>
        <pt x="416" y="698" on="1"/>
        <pt x="416" y="171" on="1"/>
        <pt x="453" y="148" on="0"/>
        <pt x="743" y="148" on="0"/>
        <pt x="877" y="176" on="0"/>
        <pt x="924" y="209" on="1"/>
        <pt x="1021" y="277" on="0"/>
        <pt x="1021" y="572" on="0"/>
        <pt x="849" y="703" on="0"/>
        <pt x="668" y="703" on="1"/>
      </contour>
    </TTGlyph>
    <TTGlyph name="C" xMin="95" yMin="-16" xMax="1198" yMax="1538">
      <contour>
        <pt x="1166" y="1283" on="1"/>
        <pt x="1030" y="1357" on="0"/>
        <pt x="814" y="1357" on="1"/>
        <pt x="584" y="1357" on="0"/>
        <pt x="450" y="1198" on="1"/>
        <pt x="316" y="1039" on="0"/>
        <pt x="316" y="768" on="1"/>
        <pt x="316" y="497" on="0"/>
        <pt x="448" y="330" on="1"/>
        <pt x="584" y="160" on="0"/>
        <pt x="813" y="160" on="1"/>
        <pt x="990" y="160" on="0"/>
        <pt x="1128" y="218" on="1"/>
        <pt x="1167" y="235" on="0"/>
        <pt x="1187" y="253" on="1"/>
        <pt x="1188" y="64" on="1"/>
        <pt x="1041" y="6" on="0"/>
        <pt x="875" y="-16" on="0"/>
        <pt x="804" y="-16" on="1"/>
        <pt x="483" y="-16" on="0"/>
        <pt x="288" y="196" on="1"/>
        <pt x="95" y="407" on="0"/>
        <pt x="95" y="753" on="1"/>
        <pt x="95" y="1117" on="0"/>
        <pt x="307" y="1334" on="1"/>
        <pt x="404" y="1434" on="0"/>
        <pt x="659" y="1538" on="0"/>
        <pt x="886" y="1538" on="0"/>
        <pt x="1017" y="1524" on="0"/>
        <pt x="1113" y="1505" on="0"/>
        <pt x="1178" y="1486" on="0"/>
        <pt x="1198" y="1481" on="1"/>
      </contour>
    </TTGlyph>
    <TTGlyph name="Cacute" xMin="95" yMin="-16" xMax="1198" yMax="1980">
      <component glyphName="C" x="0" y="0" flags="0x1204"/>
      <component glyphName="acute.cap" x="609" y="0" flags="0x1004"/>
    </TTGlyph>
    <TTGlyph name="Ccaron" xMin="95" yMin="-16" xMax="1198" yMax="1990">
      <component glyphName="C" x="0" y="0" flags="0x1204"/>
      <component glyphName="caron.cap" x="404" y="0" flags="0x1004"/>
    </TTGlyph>
    <TTGlyph name="Ccedilla" xMin="95" yMin="-464" xMax="1198" yMax="1538">
      <contour>
        <pt x="516" y="-294" on="1"/>
        <pt x="539" y="-308" on="0"/>
        <pt x="598" y="-308" on="1"/>
        <pt x="730" y="-308" on="0"/>
        <pt x="730" y="-89" on="1"/>
        <pt x="730" y="-46" on="0"/>
        <pt x="720" y="-12" on="1"/>
        <pt x="434" y="16" on="0"/>
        <pt x="264" y="222" on="1"/>
        <pt x="95" y="429" on="0"/>
        <pt x="95" y="753" on="1"/>
        <pt x="95" y="1117" on="0"/>
        <pt x="307" y="1334" on="1"/>
        <pt x="404" y="1434" on="0"/>
        <pt x="659" y="1538" on="0"/>
        <pt x="886" y="1538" on="0"/>
        <pt x="1017" y="1524" on="0"/>
        <pt x="1113" y="1505" on="0"/>
        <pt x="1178" y="1486" on="0"/>
        <pt x="1198" y="1481" on="1"/>
        <pt x="1166" y="1283" on="1"/>
        <pt x="1030" y="1357" on="0"/>
        <pt x="814" y="1357" on="1"/>
        <pt x="584" y="1357" on="0"/>
        <pt x="450" y="1198" on="1"/>
        <pt x="316" y="1039" on="0"/>
        <pt x="316" y="768" on="1"/>
        <pt x="316" y="497" on="0"/>
        <pt x="448" y="330" on="1"/>
        <pt x="584" y="160" on="0"/>
        <pt x="813" y="160" on="1"/>
        <pt x="990" y="160" on="0"/>
        <pt x="1128" y="218" on="1"/>
        <pt x="1167" y="235" on="0"/>
        <pt x="1187" y="253" on="1"/>
        <pt x="1188" y="64" on="1"/>
        <pt x="1060" y="13" on="0"/>
        <pt x="918" y="-11" on="0"/>
        <pt x="860" y="-14" on="1"/>
        <pt x="890" y="-79" on="0"/>
        <pt x="890" y="-178" on="1"/>
        <pt x="890" y="-401" on="0"/>
        <pt x="732" y="-451" on="1"/>
        <pt x="691" y="-464" on="0"/>
        <pt x="628" y="-464" on="0"/>
        <pt x="583" y="-460" on="0"/>
        <pt x="563" y="-456" on="1"/>
        <pt x="517" y="-447" on="0"/>
        <pt x="501" y="-436" on="1"/>
      </contour>
    </TTGlyph>
    <TTGlyph name="Ccircumflex" xMin="95" yMin="-16" xMax="1198" yMax="1990">
      <component glyphName="C" x="0" y="0" flags="0x1204"/>
      <component glyphName="circumflex.cap" x="389" y="0" flags="0x1004"/>
    </TTGlyph>
    <TTGlyph name="Cdotaccent" xMin="95" yMin="-16" xMax="1198" yMax="1956">
      <component glyphName="dotaccent.cap" x="595" y="0" flags="0x1004"/>
      <component glyphName="C" x="0" y="0" flags="0x1004"/>
    </TTGlyph>
    <TTGlyph name="D" xMin="194" yMin="-17" xMax="1388" yMax="1538">
      <contour>
        <pt x="660" y="-16" on="1"/>
        <pt x="279" y="0" on="1"/>
        <pt x="194" y="0" on="1"/>
        <pt x="194" y="1522" on="1"/>
        <pt x="306" y="1522" on="1"/>
        <pt x="666" y="1538" on="1"/>
        <pt x="1027" y="1538" on="0"/>
        <pt x="1210" y="1344" on="1"/>
        <pt x="1388" y="1157" on="0"/>
        <pt x="1388" y="804" on="1"/>
        <pt x="1388" y="416" on="0"/>
        <pt x="1188" y="196" on="1"/>
        <pt x="994" y="-16" on="0"/>
      </contour>
      <contour>
        <pt x="951" y="1314" on="0"/>
        <pt x="748" y="1377" on="0"/>
        <pt x="493" y="1377" on="0"/>
        <pt x="418" y="1361" on="1"/>
        <pt x="418" y="168" on="1"/>
        <pt x="497" y="149" on="0"/>
        <pt x="677" y="149" on="1"/>
        <pt x="1019" y="156" on="0"/>
        <pt x="1120" y="490" on="1"/>
        <pt x="1156" y="607" on="0"/>
        <pt x="1156" y="940" on="0"/>
        <pt x="1087" y="1171" on="0"/>
      </contour>
    </TTGlyph>
    <TTGlyph name="Dcaron" xMin="194" yMin="-17" xMax="1388" yMax="1990">
      <component glyphName="caron.cap" x="338" y="0" flags="0x1004"/>
      <component glyphName="D" x="0" y="0" flags="0x1004"/>
    </TTGlyph>
    <TTGlyph name="Dcroat" xMin="66" yMin="-17" xMax="1388" yMax="1538">
      <component glyphName="Eth" x="0" y="0" flags="0x1204"/>
    </TTGlyph>
    <TTGlyph name="Delta" xMin="55" yMin="0" xMax="1521" yMax="1508">
      <contour>
        <pt x="743" y="1508" on="1"/>
        <pt x="775" y="1508" on="1"/>
        <pt x="1521" y="27" on="1"/>
        <pt x="1505" y="0" on="1"/>
        <pt x="69" y="0" on="1"/>
        <pt x="55" y="22" on="1"/>
      </contour>
      <contour>
        <pt x="1220" y="174" on="1"/>
        <pt x="768" y="1123" on="1"/>
        <pt x="340" y="174" on="1"/>
      </contour>
    </TTGlyph>
    <TTGlyph name="E" xMin="194" yMin="0" xMax="1143" yMax="1522">
      <contour>
        <pt x="194" y="1522" on="1"/>
        <pt x="1070" y="1522" on="1"/>
        <pt x="1070" y="1350" on="1"/>
        <pt x="417" y="1350" on="1"/>
        <pt x="417" y="870" on="1"/>
        <pt x="896" y="870" on="1"/>
        <pt x="896" y="698" on="1"/>
        <pt x="417" y="698" on="1"/>
        <pt x="417" y="175" on="1"/>
        <pt x="1143" y="175" on="1"/>
        <pt x="1143" y="0" on="1"/>
        <pt x="194" y="0" on="1"/>
      </contour>
    </TTGlyph>
    <TTGlyph name="Eacute" xMin="194" yMin="0" xMax="1143" yMax="1980">
      <component glyphName="acute.cap" x="494" y="0" flags="0x1004"/>
      <component glyphName="E" x="0" y="0" flags="0x1004"/>
    </TTGlyph>
    <TTGlyph name="Ebreve" xMin="194" yMin="0" xMax="1143" yMax="1970">
      <component glyphName="breve.cap" x="289" y="0" flags="0x1004"/>
      <component glyphName="E" x="0" y="0" flags="0x1004"/>
    </TTGlyph>
    <TTGlyph name="Ecaron" xMin="194" yMin="0" xMax="1143" yMax="1990">
      <component glyphName="caron.cap" x="289" y="0" flags="0x1004"/>
      <component glyphName="E" x="0" y="0" flags="0x1004"/>
    </TTGlyph>
    <TTGlyph name="Ecircumflex" xMin="194" yMin="0" xMax="1143" yMax="1990">
      <component glyphName="E" x="0" y="0" flags="0x1204"/>
      <component glyphName="circumflex.cap" x="274" y="0" flags="0x1004"/>
    </TTGlyph>
    <TTGlyph name="Edieresis" xMin="194" yMin="0" xMax="1143" yMax="1955">
      <component glyphName="dieresis.cap" x="234" y="0" flags="0x1004"/>
      <component glyphName="E" x="0" y="0" flags="0x1004"/>
    </TTGlyph>
    <TTGlyph name="Edotaccent" xMin="194" yMin="0" xMax="1143" yMax="1956">
      <component glyphName="dotaccent.cap" x="480" y="0" flags="0x1004"/>
      <component glyphName="E" x="0" y="0" flags="0x1004"/>
    </TTGlyph>
    <TTGlyph name="Egrave" xMin="194" yMin="0" xMax="1143" yMax="1980">
      <component glyphName="grave.cap" x="270" y="0" flags="0x1004"/>
      <component glyphName="E" x="0" y="0" flags="0x1004"/>
    </TTGlyph>
    <TTGlyph name="Emacron" xMin="194" yMin="0" xMax="1143" yMax="1891">
      <component glyphName="macron.cap" x="359" y="0" flags="0x1004"/>
      <component glyphName="E" x="0" y="0" flags="0x1004"/>
    </TTGlyph>
    <TTGlyph name="Eng" xMin="193" yMin="-406" xMax="1390" yMax="1522">
      <contour>
        <pt x="193" y="1522" on="1"/>
        <pt x="398" y="1522" on="1"/>
        <pt x="1075" y="508" on="1"/>
        <pt x="1186" y="301" on="1"/>
        <pt x="1171" y="541" on="1"/>
        <pt x="1171" y="1522" on="1"/>
        <pt x="1390" y="1522" on="1"/>
        <pt x="1390" y="539" on="1"/>
        <pt x="1390" y="399" on="0"/>
        <pt x="1388" y="156" on="0"/>
        <pt x="1352" y="-14" on="0"/>
        <pt x="1290" y="-132" on="0"/>
        <pt x="1205" y="-229" on="0"/>
        <pt x="1101" y="-307" on="0"/>
        <pt x="1046" y="-336" on="1"/>
        <pt x="937" y="-391" on="0"/>
        <pt x="824" y="-406" on="1"/>
        <pt x="767" y="-301" on="1"/>
        <pt x="905" y="-263" on="0"/>
        <pt x="1024" y="-162" on="1"/>
        <pt x="1153" y="-53" on="0"/>
        <pt x="1153" y="45" on="1"/>
        <pt x="525" y="976" on="1"/>
        <pt x="402" y="1194" on="1"/>
        <pt x="412" y="955" on="1"/>
        <pt x="412" y="0" on="1"/>
        <pt x="195" y="0" on="1"/>
      </contour>
    </TTGlyph>
    <TTGlyph name="Eogonek" xMin="194" yMin="-512" xMax="1143" yMax="1522">
      <contour>
        <pt x="1140" y="-453" on="1"/>
        <pt x="1063" y="-512" on="0"/>
        <pt x="903" y="-512" on="1"/>
        <pt x="731" y="-512" on="0"/>
        <pt x="676" y="-401" on="1"/>
        <pt x="657" y="-361" on="0"/>
        <pt x="657" y="-262" on="0"/>
        <pt x="697" y="-171" on="0"/>
        <pt x="733" y="-130" on="1"/>
        <pt x="807" y="-47" on="0"/>
        <pt x="920" y="0" on="1"/>
        <pt x="194" y="0" on="1"/>
        <pt x="194" y="1522" on="1"/>
        <pt x="1070" y="1522" on="1"/>
        <pt x="1070" y="1350" on="1"/>
        <pt x="417" y="1350" on="1"/>
        <pt x="417" y="870" on="1"/>
        <pt x="896" y="870" on="1"/>
        <pt x="896" y="698" on="1"/>
        <pt x="417" y="698" on="1"/>
        <pt x="417" y="175" on="1"/>
        <pt x="1143" y="175" on="1"/>
        <pt x="1143" y="0" on="1"/>
        <pt x="1093" y="0" on="1"/>
        <pt x="943" y="-85" on="0"/>
        <pt x="890" y="-190" on="1"/>
        <pt x="873" y="-223" on="0"/>
        <pt x="873" y="-255" on="1"/>
        <pt x="873" y="-364" on="0"/>
        <pt x="1001" y="-364" on="1"/>
        <pt x="1066" y="-364" on="0"/>
        <pt x="1140" y="-335" on="1"/>
      </contour>
    </TTGlyph>
    <TTGlyph name="Eth" xMin="66" yMin="-17" xMax="1388" yMax="1538">
      <contour>
        <pt x="660" y="-16" on="1"/>
        <pt x="279" y="0" on="1"/>
        <pt x="194" y="0" on="1"/>
        <pt x="194" y="720" on="1"/>
        <pt x="66" y="720" on="1"/>
        <pt x="66" y="869" on="1"/>
        <pt x="194" y="869" on="1"/>
        <pt x="194" y="1522" on="1"/>
        <pt x="306" y="1522" on="1"/>
        <pt x="666" y="1538" on="1"/>
        <pt x="1027" y="1538" on="0"/>
        <pt x="1210" y="1344" on="1"/>
        <pt x="1388" y="1157" on="0"/>
        <pt x="1388" y="804" on="1"/>
        <pt x="1388" y="416" on="0"/>
        <pt x="1188" y="196" on="1"/>
        <pt x="994" y="-16" on="0"/>
      </contour>
      <contour>
        <pt x="951" y="1314" on="0"/>
        <pt x="748" y="1377" on="0"/>
        <pt x="493" y="1377" on="0"/>
        <pt x="418" y="1361" on="1"/>
        <pt x="418" y="869" on="1"/>
        <pt x="812" y="869" on="1"/>
        <pt x="812" y="720" on="1"/>
        <pt x="418" y="720" on="1"/>
        <pt x="418" y="168" on="1"/>
        <pt x="497" y="149" on="0"/>
        <pt x="677" y="149" on="1"/>
        <pt x="1019" y="156" on="0"/>
        <pt x="1120" y="490" on="1"/>
        <pt x="1156" y="607" on="0"/>
        <pt x="1156" y="940" on="0"/>
        <pt x="1087" y="1171" on="0"/>
      </contour>
    </TTGlyph>
    <TTGlyph name="Euro" xMin="114" yMin="-28" xMax="1371" yMax="1539">
      <contour>
        <pt x="549" y="883" on="1"/>
        <pt x="545" y="835" on="0"/>
        <pt x="545" y="718" on="0"/>
        <pt x="549" y="654" on="1"/>
        <pt x="1067" y="654" on="1"/>
        <pt x="1067" y="511" on="1"/>
        <pt x="565" y="511" on="1"/>
        <pt x="598" y="329" on="0"/>
        <pt x="682" y="238" on="1"/>
        <pt x="781" y="132" on="0"/>
        <pt x="955" y="132" on="1"/>
        <pt x="1111" y="132" on="0"/>
        <pt x="1245" y="188" on="1"/>
        <pt x="1284" y="205" on="0"/>
        <pt x="1311" y="225" on="1"/>
        <pt x="1371" y="60" on="1"/>
        <pt x="1341" y="55" on="0"/>
        <pt x="1257" y="21" on="0"/>
        <pt x="1195" y="0" on="0"/>
        <pt x="1152" y="-8" on="1"/>
        <pt x="1055" y="-28" on="0"/>
        <pt x="798" y="-28" on="0"/>
        <pt x="594" y="48" on="0"/>
        <pt x="518" y="118" on="1"/>
        <pt x="368" y="259" on="0"/>
        <pt x="323" y="511" on="1"/>
        <pt x="114" y="511" on="1"/>
        <pt x="114" y="654" on="1"/>
        <pt x="307" y="654" on="1"/>
        <pt x="306" y="670" on="0"/>
        <pt x="306" y="686" on="1"/>
        <pt x="306" y="720" on="1"/>
        <pt x="306" y="805" on="0"/>
        <pt x="316" y="883" on="1"/>
        <pt x="146" y="883" on="1"/>
        <pt x="146" y="1026" on="1"/>
        <pt x="343" y="1026" on="1"/>
        <pt x="405" y="1262" on="0"/>
        <pt x="568" y="1396" on="1"/>
        <pt x="740" y="1539" on="0"/>
        <pt x="1015" y="1539" on="1"/>
        <pt x="1155" y="1539" on="0"/>
        <pt x="1276" y="1496" on="1"/>
        <pt x="1308" y="1484" on="0"/>
        <pt x="1339" y="1477" on="1"/>
        <pt x="1286" y="1303" on="1"/>
        <pt x="1220" y="1339" on="0"/>
        <pt x="1173" y="1350" on="1"/>
        <pt x="1082" y="1371" on="0"/>
        <pt x="889" y="1371" on="0"/>
        <pt x="766" y="1327" on="0"/>
        <pt x="716" y="1284" on="1"/>
        <pt x="614" y="1194" on="0"/>
        <pt x="572" y="1026" on="1"/>
        <pt x="1101" y="1026" on="1"/>
        <pt x="1101" y="883" on="1"/>
      </contour>
    </TTGlyph>
    <TTGlyph name="F" xMin="194" yMin="0" xMax="1068" yMax="1522">
      <contour>
        <pt x="194" y="1522" on="1"/>
        <pt x="1068" y="1522" on="1"/>
        <pt x="1068" y="1350" on="1"/>
        <pt x="418" y="1350" on="1"/>
        <pt x="418" y="851" on="1"/>
        <pt x="905" y="851" on="1"/>
        <pt x="905" y="679" on="1"/>
        <pt x="418" y="679" on="1"/>
        <pt x="418" y="0" on="1"/>
        <pt x="194" y="0" on="1"/>
      </contour>
    </TTGlyph>
    <TTGlyph name="G" xMin="99" yMin="-17" xMax="1317" yMax="1538">
      <contour>
        <pt x="1220" y="1278" on="1"/>
        <pt x="1057" y="1364" on="0"/>
        <pt x="790" y="1364" on="1"/>
        <pt x="587" y="1364" on="0"/>
        <pt x="460" y="1210" on="1"/>
        <pt x="330" y="1051" on="0"/>
        <pt x="330" y="780" on="1"/>
        <pt x="330" y="502" on="0"/>
        <pt x="445" y="335" on="1"/>
        <pt x="570" y="154" on="0"/>
        <pt x="801" y="154" on="1"/>
        <pt x="942" y="154" on="0"/>
        <pt x="1046" y="186" on="1"/>
        <pt x="1080" y="196" on="0"/>
        <pt x="1102" y="211" on="1"/>
        <pt x="1102" y="588" on="1"/>
        <pt x="825" y="601" on="1"/>
        <pt x="825" y="761" on="1"/>
        <pt x="1317" y="761" on="1"/>
        <pt x="1317" y="94" on="1"/>
        <pt x="1284" y="92" on="0"/>
        <pt x="1202" y="57" on="0"/>
        <pt x="1143" y="37" on="1"/>
        <pt x="987" y="-16" on="0"/>
        <pt x="635" y="-16" on="0"/>
        <pt x="373" y="101" on="0"/>
        <pt x="283" y="204" on="1"/>
        <pt x="99" y="413" on="0"/>
        <pt x="99" y="753" on="1"/>
        <pt x="99" y="1130" on="0"/>
        <pt x="304" y="1341" on="1"/>
        <pt x="495" y="1538" on="0"/>
        <pt x="804" y="1538" on="1"/>
        <pt x="951" y="1538" on="0"/>
        <pt x="1099" y="1509" on="0"/>
        <pt x="1180" y="1488" on="0"/>
        <pt x="1230" y="1478" on="1"/>
      </contour>
    </TTGlyph>
    <TTGlyph name="Gbreve" xMin="99" yMin="-16" xMax="1317" yMax="1970">
      <component glyphName="breve.cap" x="416" y="0" flags="0x1004"/>
      <component glyphName="G" x="0" y="0" flags="0x1004"/>
    </TTGlyph>
    <TTGlyph name="Gcircumflex" xMin="99" yMin="-16" xMax="1317" yMax="1990">
      <component glyphName="G" x="0" y="0" flags="0x1204"/>
      <component glyphName="circumflex.cap" x="401" y="0" flags="0x1004"/>
    </TTGlyph>
    <TTGlyph name="Gcommaaccent" xMin="99" yMin="-560" xMax="1317" yMax="1538">
      <component glyphName="commaaccent" x="649" y="0" flags="0x1004"/>
      <component glyphName="G" x="0" y="0" flags="0x1004"/>
    </TTGlyph>
    <TTGlyph name="Gdotaccent" xMin="99" yMin="-16" xMax="1317" yMax="1956">
      <component glyphName="dotaccent.cap" x="607" y="0" flags="0x1004"/>
      <component glyphName="G" x="0" y="0" flags="0x1004"/>
    </TTGlyph>
    <TTGlyph name="H" xMin="194" yMin="0" xMax="1358" yMax="1522">
      <contour>
        <pt x="194" y="1522" on="1"/>
        <pt x="417" y="1522" on="1"/>
        <pt x="417" y="855" on="1"/>
        <pt x="1135" y="855" on="1"/>
        <pt x="1135" y="1522" on="1"/>
        <pt x="1358" y="1522" on="1"/>
        <pt x="1358" y="0" on="1"/>
        <pt x="1135" y="0" on="1"/>
        <pt x="1135" y="683" on="1"/>
        <pt x="417" y="683" on="1"/>
        <pt x="417" y="0" on="1"/>
        <pt x="194" y="0" on="1"/>
      </contour>
    </TTGlyph>
    <TTGlyph name="Hbar" xMin="8" yMin="0" xMax="1558" yMax="1522">
      <contour>
        <pt x="194" y="1065" on="1"/>
        <pt x="8" y="1065" on="1"/>
        <pt x="8" y="1207" on="1"/>
        <pt x="194" y="1207" on="1"/>
        <pt x="194" y="1522" on="1"/>
        <pt x="417" y="1522" on="1"/>
        <pt x="417" y="1207" on="1"/>
        <pt x="1146" y="1207" on="1"/>
        <pt x="1146" y="1522" on="1"/>
        <pt x="1369" y="1522" on="1"/>
        <pt x="1369" y="1207" on="1"/>
        <pt x="1558" y="1207" on="1"/>
        <pt x="1558" y="1065" on="1"/>
        <pt x="1369" y="1065" on="1"/>
        <pt x="1369" y="0" on="1"/>
        <pt x="1146" y="0" on="1"/>
        <pt x="1146" y="674" on="1"/>
        <pt x="417" y="674" on="1"/>
        <pt x="417" y="0" on="1"/>
        <pt x="194" y="0" on="1"/>
      </contour>
      <contour>
        <pt x="1146" y="845" on="1"/>
        <pt x="1146" y="1065" on="1"/>
        <pt x="417" y="1065" on="1"/>
        <pt x="417" y="845" on="1"/>
      </contour>
    </TTGlyph>
    <TTGlyph name="Hcircumflex" xMin="194" yMin="0" xMax="1358" yMax="1990">
      <component glyphName="H" x="0" y="0" flags="0x1204"/>
      <component glyphName="circumflex.cap" x="370" y="0" flags="0x1004"/>
    </TTGlyph>
    <TTGlyph name="I" xMin="207" yMin="0" xMax="433" yMax="1522">
      <contour>
        <pt x="207" y="1522" on="1"/>
        <pt x="433" y="1522" on="1"/>
        <pt x="433" y="0" on="1"/>
        <pt x="207" y="0" on="1"/>
      </contour>
    </TTGlyph>
    <TTGlyph name="IJ" xMin="207" yMin="-332" xMax="1136" yMax="1522">
      <component glyphName="I" x="0" y="0" flags="0x1004"/>
      <component glyphName="J" x="640" y="0" flags="0x1004"/>
    </TTGlyph>
    <TTGlyph name="Iacute" xMin="193" yMin="0" xMax="682" yMax="1980">
      <component glyphName="I" x="0" y="0" flags="0x1204"/>
      <component glyphName="acute.cap" x="135" y="0" flags="0x1004"/>
    </TTGlyph>
    <TTGlyph name="Ibreve" xMin="-22" yMin="0" xMax="666" yMax="1970">
      <component glyphName="I" x="0" y="0" flags="0x1204"/>
      <component glyphName="breve.cap" x="-69" y="0" flags="0x1004"/>
    </TTGlyph>
    <TTGlyph name="Icircumflex" xMin="-36" yMin="0" xMax="682" yMax="1990">
      <component glyphName="I" x="0" y="0" flags="0x1204"/>
      <component glyphName="circumflex.cap" x="-84" y="0" flags="0x1004"/>
    </TTGlyph>
    <TTGlyph name="Idieresis" xMin="-74" yMin="0" xMax="719" yMax="1955">
      <component glyphName="I" x="0" y="0" flags="0x1204"/>
      <component glyphName="dieresis.cap" x="-124" y="0" flags="0x1004"/>
    </TTGlyph>
    <TTGlyph name="Idotaccent" xMin="173" yMin="0" xMax="472" yMax="1956">
      <component glyphName="I" x="0" y="0" flags="0x1204"/>
      <component glyphName="dotaccent.cap" x="121" y="0" flags="0x1004"/>
    </TTGlyph>
    <TTGlyph name="Igrave" xMin="-38" yMin="0" xMax="451" yMax="1980">
      <component glyphName="I" x="0" y="0" flags="0x1204"/>
      <component glyphName="grave.cap" x="-88" y="0" flags="0x1004"/>
    </TTGlyph>
    <TTGlyph name="Imacron" xMin="50" yMin="0" xMax="597" yMax="1891">
      <component glyphName="I" x="0" y="0" flags="0x1204"/>
      <component glyphName="macron.cap" x="0" y="0" flags="0x1004"/>
    </TTGlyph>
    <TTGlyph name="Iogonek" xMin="42" yMin="-512" xMax="536" yMax="1522">
      <contour>
        <pt x="536" y="-453" on="1"/>
        <pt x="457" y="-512" on="0"/>
        <pt x="309" y="-512" on="1"/>
        <pt x="193" y="-512" on="0"/>
        <pt x="120" y="-454" on="1"/>
        <pt x="43" y="-391" on="0"/>
        <pt x="43" y="-287" on="1"/>
        <pt x="43" y="-208" on="0"/>
        <pt x="104" y="-124" on="1"/>
        <pt x="155" y="-53" on="0"/>
        <pt x="240" y="0" on="1"/>
        <pt x="207" y="0" on="1"/>
        <pt x="207" y="1522" on="1"/>
        <pt x="433" y="1522" on="1"/>
        <pt x="433" y="0" on="1"/>
        <pt x="408" y="0" on="1"/>
        <pt x="259" y="-94" on="0"/>
        <pt x="259" y="-240" on="1"/>
        <pt x="259" y="-364" on="0"/>
        <pt x="397" y="-364" on="1"/>
        <pt x="462" y="-364" on="0"/>
        <pt x="536" y="-335" on="1"/>
      </contour>
    </TTGlyph>
    <TTGlyph name="Itilde" xMin="-94" yMin="0" xMax="740" yMax="1966">
      <component glyphName="I" x="0" y="0" flags="0x1204"/>
      <component glyphName="tilde.cap" x="-141" y="0" flags="0x1004"/>
    </TTGlyph>
    <TTGlyph name="J" xMin="-42" yMin="-332" xMax="496" yMax="1522">
      <contour>
        <pt x="494" y="613" on="1"/>
        <pt x="496" y="397" on="1"/>
        <pt x="496" y="199" on="0"/>
        <pt x="458" y="-12" on="0"/>
        <pt x="361" y="-160" on="0"/>
        <pt x="297" y="-212" on="1"/>
        <pt x="177" y="-308" on="0"/>
        <pt x="26" y="-332" on="1"/>
        <pt x="-42" y="-215" on="1"/>
        <pt x="107" y="-163" on="0"/>
        <pt x="190" y="-39" on="1"/>
        <pt x="240" y="37" on="0"/>
        <pt x="254" y="172" on="1"/>
        <pt x="268" y="297" on="0"/>
        <pt x="268" y="608" on="1"/>
        <pt x="268" y="1522" on="1"/>
        <pt x="494" y="1522" on="1"/>
      </contour>
    </TTGlyph>
    <TTGlyph name="Jcircumflex" xMin="-42" yMin="-332" xMax="737" yMax="1990">
      <component glyphName="J" x="0" y="0" flags="0x1204"/>
      <component glyphName="circumflex.cap" x="-29" y="0" flags="0x1004"/>
    </TTGlyph>
    <TTGlyph name="K" xMin="194" yMin="0" xMax="1302" yMax="1522">
      <contour>
        <pt x="194" y="1522" on="1"/>
        <pt x="417" y="1522" on="1"/>
        <pt x="417" y="758" on="1"/>
        <pt x="1020" y="1522" on="1"/>
        <pt x="1283" y="1522" on="1"/>
        <pt x="744" y="866" on="1"/>
        <pt x="786" y="796" on="0"/>
        <pt x="1031" y="436" on="0"/>
        <pt x="1078" y="366" on="1"/>
        <pt x="1189" y="197" on="0"/>
        <pt x="1237" y="110" on="1"/>
        <pt x="1302" y="0" on="1"/>
        <pt x="1045" y="0" on="1"/>
        <pt x="1034" y="15" on="0"/>
        <pt x="1024" y="36" on="1"/>
        <pt x="1006" y="73" on="1"/>
        <pt x="945" y="194" on="0"/>
        <pt x="648" y="635" on="0"/>
        <pt x="606" y="701" on="1"/>
        <pt x="417" y="481" on="1"/>
        <pt x="417" y="0" on="1"/>
        <pt x="194" y="0" on="1"/>
      </contour>
    </TTGlyph>
    <TTGlyph name="Kcommaaccent" xMin="194" yMin="-560" xMax="1302" yMax="1522">
      <component glyphName="commaaccent" x="537" y="0" flags="0x1004"/>
      <component glyphName="K" x="0" y="0" flags="0x1004"/>
    </TTGlyph>
    <TTGlyph name="L" xMin="194" yMin="0" xMax="1026" yMax="1522">
      <contour>
        <pt x="194" y="1522" on="1"/>
        <pt x="422" y="1522" on="1"/>
        <pt x="422" y="175" on="1"/>
        <pt x="1026" y="175" on="1"/>
        <pt x="1026" y="0" on="1"/>
        <pt x="194" y="0" on="1"/>
      </contour>
    </TTGlyph>
    <TTGlyph name="Lacute" xMin="178" yMin="0" xMax="1026" yMax="1980">
      <component glyphName="acute.cap" x="120" y="0" flags="0x1004"/>
      <component glyphName="L" x="0" y="0" flags="0x1004"/>
    </TTGlyph>
    <TTGlyph name="Lcaron" xMin="194" yMin="0" xMax="1026" yMax="1687">
      <component glyphName="L" x="0" y="0" flags="0x1204"/>
      <component glyphName="caronvertical" x="671" y="0" flags="0x1004"/>
    </TTGlyph>
    <TTGlyph name="Lcommaaccent" xMin="194" yMin="-560" xMax="1026" yMax="1522">
      <component glyphName="commaaccent" x="448" y="0" flags="0x1004"/>
      <component glyphName="L" x="0" y="0" flags="0x1004"/>
    </TTGlyph>
    <TTGlyph name="Ldot" xMin="194" yMin="0" xMax="1214" yMax="1522">
      <component glyphName="period" x="758" y="706" flags="0x1004"/>
      <component glyphName="L" x="0" y="0" flags="0x1004"/>
    </TTGlyph>
    <TTGlyph name="Lslash" xMin="18" yMin="0" xMax="1026" yMax="1522">
      <contour>
        <pt x="194" y="613" on="1"/>
        <pt x="71" y="568" on="1"/>
        <pt x="18" y="704" on="1"/>
        <pt x="194" y="769" on="1"/>
        <pt x="194" y="1522" on="1"/>
        <pt x="422" y="1522" on="1"/>
        <pt x="422" y="853" on="1"/>
        <pt x="812" y="997" on="1"/>
        <pt x="865" y="859" on="1"/>
        <pt x="422" y="696" on="1"/>
        <pt x="422" y="175" on="1"/>
        <pt x="1026" y="175" on="1"/>
        <pt x="1026" y="0" on="1"/>
        <pt x="194" y="0" on="1"/>
      </contour>
    </TTGlyph>
    <TTGlyph name="M" xMin="134" yMin="-15" xMax="1790" yMax="1522">
      <contour>
        <pt x="288" y="1522" on="1"/>
        <pt x="603" y="1522" on="1"/>
        <pt x="885" y="653" on="1"/>
        <pt x="964" y="330" on="1"/>
        <pt x="1039" y="653" on="1"/>
        <pt x="1309" y="1522" on="1"/>
        <pt x="1608" y="1522" on="1"/>
        <pt x="1790" y="0" on="1"/>
        <pt x="1566" y="0" on="1"/>
        <pt x="1473" y="946" on="1"/>
        <pt x="1444" y="1356" on="1"/>
        <pt x="1342" y="946" on="1"/>
        <pt x="1024" y="-15" on="1"/>
        <pt x="904" y="-15" on="1"/>
        <pt x="572" y="946" on="1"/>
        <pt x="460" y="1355" on="1"/>
        <pt x="433" y="946" on="1"/>
        <pt x="350" y="0" on="1"/>
        <pt x="134" y="-1" on="1"/>
      </contour>
    </TTGlyph>
    <TTGlyph name="N" xMin="193" yMin="0" xMax="1363" yMax="1522">
      <contour>
        <pt x="193" y="1522" on="1"/>
        <pt x="397" y="1522" on="1"/>
        <pt x="1048" y="517" on="1"/>
        <pt x="1171" y="291" on="1"/>
        <pt x="1158" y="545" on="1"/>
        <pt x="1158" y="1522" on="1"/>
        <pt x="1363" y="1522" on="1"/>
        <pt x="1363" y="0" on="1"/>
        <pt x="1156" y="0" on="1"/>
        <pt x="526" y="967" on="1"/>
        <pt x="386" y="1216" on="1"/>
        <pt x="398" y="952" on="1"/>
        <pt x="398" y="0" on="1"/>
        <pt x="193" y="0" on="1"/>
      </contour>
    </TTGlyph>
    <TTGlyph name="Nacute" xMin="193" yMin="0" xMax="1363" yMax="1980">
      <component glyphName="acute.cap" x="606" y="0" flags="0x1004"/>
      <component glyphName="N" x="0" y="0" flags="0x1004"/>
    </TTGlyph>
    <TTGlyph name="Ncaron" xMin="193" yMin="0" xMax="1363" yMax="1990">
      <component glyphName="caron.cap" x="401" y="0" flags="0x1004"/>
      <component glyphName="N" x="0" y="0" flags="0x1004"/>
    </TTGlyph>
    <TTGlyph name="Ncommaaccent" xMin="193" yMin="-560" xMax="1363" yMax="1522">
      <component glyphName="commaaccent" x="588" y="0" flags="0x1004"/>
      <component glyphName="N" x="0" y="0" flags="0x1004"/>
    </TTGlyph>
    <TTGlyph name="Ntilde" xMin="193" yMin="0" xMax="1363" yMax="1966">
      <component glyphName="tilde.cap" x="329" y="0" flags="0x1004"/>
      <component glyphName="N" x="0" y="0" flags="0x1004"/>
    </TTGlyph>
    <TTGlyph name="O" xMin="99" yMin="-17" xMax="1470" yMax="1538">
      <contour>
        <pt x="100" y="751" on="1"/>
        <pt x="100" y="951" on="0"/>
        <pt x="217" y="1249" on="0"/>
        <pt x="313" y="1345" on="1"/>
        <pt x="506" y="1538" on="0"/>
        <pt x="808" y="1538" on="1"/>
        <pt x="1112" y="1538" on="0"/>
        <pt x="1293" y="1326" on="1"/>
        <pt x="1469" y="1121" on="0"/>
        <pt x="1469" y="783" on="1"/>
        <pt x="1469" y="400" on="0"/>
        <pt x="1074" y="-16" on="0"/>
        <pt x="460" y="-16" on="0"/>
        <pt x="100" y="413" on="0"/>
      </contour>
      <contour>
        <pt x="799" y="155" on="1"/>
        <pt x="889" y="155" on="0"/>
        <pt x="1058" y="235" on="0"/>
        <pt x="1118" y="313" on="1"/>
        <pt x="1243" y="476" on="0"/>
        <pt x="1243" y="772" on="1"/>
        <pt x="1243" y="1026" on="0"/>
        <pt x="1132" y="1190" on="1"/>
        <pt x="1010" y="1368" on="0"/>
        <pt x="801" y="1368" on="1"/>
        <pt x="595" y="1368" on="0"/>
        <pt x="466" y="1220" on="1"/>
        <pt x="325" y="1056" on="0"/>
        <pt x="325" y="758" on="1"/>
        <pt x="325" y="505" on="0"/>
        <pt x="441" y="338" on="1"/>
        <pt x="568" y="155" on="0"/>
      </contour>
    </TTGlyph>
    <TTGlyph name="OE" xMin="99" yMin="-17" xMax="1989" yMax="1539">
      <contour>
        <pt x="1040" y="50" on="1"/>
        <pt x="921" y="-16" on="0"/>
        <pt x="611" y="-16" on="0"/>
        <pt x="488" y="41" on="1"/>
        <pt x="237" y="158" on="0"/>
        <pt x="143" y="453" on="1"/>
        <pt x="100" y="589" on="0"/>
        <pt x="100" y="748" on="1"/>
        <pt x="100" y="1128" on="0"/>
        <pt x="303" y="1336" on="1"/>
        <pt x="500" y="1538" on="0"/>
        <pt x="825" y="1538" on="1"/>
        <pt x="945" y="1538" on="0"/>
        <pt x="1040" y="1498" on="1"/>
        <pt x="1040" y="1522" on="1"/>
        <pt x="1916" y="1522" on="1"/>
        <pt x="1916" y="1350" on="1"/>
        <pt x="1263" y="1350" on="1"/>
        <pt x="1263" y="870" on="1"/>
        <pt x="1742" y="870" on="1"/>
        <pt x="1742" y="698" on="1"/>
        <pt x="1263" y="698" on="1"/>
        <pt x="1263" y="175" on="1"/>
        <pt x="1989" y="175" on="1"/>
        <pt x="1989" y="0" on="1"/>
        <pt x="1040" y="0" on="1"/>
      </contour>
      <contour>
        <pt x="1040" y="1309" on="1"/>
        <pt x="947" y="1369" on="0"/>
        <pt x="706" y="1369" on="0"/>
        <pt x="534" y="1298" on="0"/>
        <pt x="468" y="1223" on="1"/>
        <pt x="324" y="1059" on="0"/>
        <pt x="324" y="758" on="1"/>
        <pt x="324" y="503" on="0"/>
        <pt x="441" y="334" on="1"/>
        <pt x="568" y="152" on="0"/>
        <pt x="784" y="152" on="1"/>
        <pt x="936" y="152" on="0"/>
        <pt x="1040" y="232" on="1"/>
      </contour>
    </TTGlyph>
    <TTGlyph name="Oacute" xMin="99" yMin="-17" xMax="1470" yMax="1980">
      <component glyphName="acute.cap" x="622" y="0" flags="0x1004"/>
      <component glyphName="O" x="0" y="0" flags="0x1004"/>
    </TTGlyph>
    <TTGlyph name="Obreve" xMin="99" yMin="-17" xMax="1470" yMax="1970">
      <component glyphName="breve.cap" x="417" y="0" flags="0x1004"/>
      <component glyphName="O" x="0" y="0" flags="0x1004"/>
    </TTGlyph>
    <TTGlyph name="Ocircumflex" xMin="99" yMin="-17" xMax="1470" yMax="1990">
      <component glyphName="O" x="0" y="0" flags="0x1204"/>
      <component glyphName="circumflex.cap" x="402" y="0" flags="0x1004"/>
    </TTGlyph>
    <TTGlyph name="Odieresis" xMin="99" yMin="-17" xMax="1470" yMax="1955">
      <component glyphName="dieresis.cap" x="362" y="0" flags="0x1004"/>
      <component glyphName="O" x="0" y="0" flags="0x1004"/>
    </TTGlyph>
    <TTGlyph name="Ograve" xMin="99" yMin="-17" xMax="1470" yMax="1980">
      <component glyphName="grave.cap" x="398" y="0" flags="0x1004"/>
      <component glyphName="O" x="0" y="0" flags="0x1004"/>
    </TTGlyph>
    <TTGlyph name="Ohungarumlaut" xMin="99" yMin="-17" xMax="1470" yMax="2000">
      <component glyphName="O" x="0" y="0" flags="0x1204"/>
      <component glyphName="hungarumlaut.cap" x="393" y="0" flags="0x1004"/>
    </TTGlyph>
    <TTGlyph name="Omacron" xMin="99" yMin="-17" xMax="1470" yMax="1891">
      <component glyphName="macron.cap" x="487" y="0" flags="0x1004"/>
      <component glyphName="O" x="0" y="0" flags="0x1004"/>
    </TTGlyph>
    <TTGlyph name="Omega" xMin="194" yMin="0" xMax="1620" yMax="1545">
      <contour>
        <pt x="198" y="154" on="1"/>
        <pt x="531" y="154" on="1"/>
        <pt x="402" y="255" on="0"/>
        <pt x="304" y="438" on="1"/>
        <pt x="194" y="643" on="0"/>
        <pt x="194" y="859" on="1"/>
        <pt x="194" y="1084" on="0"/>
        <pt x="299" y="1248" on="1"/>
        <pt x="440" y="1468" on="0"/>
        <pt x="722" y="1527" on="1"/>
        <pt x="808" y="1545" on="0"/>
        <pt x="1041" y="1545" on="0"/>
        <pt x="1291" y="1457" on="0"/>
        <pt x="1383" y="1370" on="1"/>
        <pt x="1579" y="1185" on="0"/>
        <pt x="1579" y="859" on="1"/>
        <pt x="1579" y="643" on="0"/>
        <pt x="1484" y="445" on="1"/>
        <pt x="1398" y="265" on="0"/>
        <pt x="1262" y="154" on="1"/>
        <pt x="1620" y="154" on="1"/>
        <pt x="1620" y="0" on="1"/>
        <pt x="1039" y="0" on="1"/>
        <pt x="1039" y="151" on="1"/>
        <pt x="1172" y="237" on="0"/>
        <pt x="1260" y="417" on="1"/>
        <pt x="1356" y="613" on="0"/>
        <pt x="1356" y="851" on="1"/>
        <pt x="1356" y="1119" on="0"/>
        <pt x="1207" y="1262" on="1"/>
        <pt x="1082" y="1383" on="0"/>
        <pt x="895" y="1383" on="1"/>
        <pt x="698" y="1383" on="0"/>
        <pt x="570" y="1264" on="1"/>
        <pt x="418" y="1123" on="0"/>
        <pt x="418" y="851" on="1"/>
        <pt x="418" y="623" on="0"/>
        <pt x="532" y="417" on="1"/>
        <pt x="628" y="242" on="0"/>
        <pt x="760" y="151" on="1"/>
        <pt x="760" y="0" on="1"/>
        <pt x="199" y="0" on="1"/>
      </contour>
    </TTGlyph>
    <TTGlyph name="Oslash" xMin="99" yMin="-200" xMax="1470" yMax="1738">
      <contour>
        <pt x="409" y="1441" on="0"/>
        <pt x="663" y="1538" on="0"/>
        <pt x="901" y="1538" on="0"/>
        <pt x="985" y="1516" on="1"/>
        <pt x="1065" y="1738" on="1"/>
        <pt x="1190" y="1702" on="1"/>
        <pt x="1107" y="1471" on="1"/>
        <pt x="1374" y="1337" on="0"/>
        <pt x="1447" y="1000" on="1"/>
        <pt x="1469" y="898" on="0"/>
        <pt x="1469" y="834" on="1"/>
        <pt x="1469" y="582" on="0"/>
        <pt x="1358" y="283" on="0"/>
        <pt x="1266" y="186" on="1"/>
        <pt x="1074" y="-16" on="0"/>
        <pt x="763" y="-16" on="1"/>
        <pt x="664" y="-16" on="0"/>
        <pt x="580" y="8" on="1"/>
        <pt x="505" y="-200" on="1"/>
        <pt x="380" y="-164" on="1"/>
        <pt x="459" y="55" on="1"/>
        <pt x="194" y="195" on="0"/>
        <pt x="120" y="538" on="1"/>
        <pt x="100" y="636" on="0"/>
        <pt x="100" y="697" on="1"/>
        <pt x="100" y="951" on="0"/>
        <pt x="217" y="1249" on="0"/>
      </contour>
      <contour>
        <pt x="925" y="1349" on="1"/>
        <pt x="864" y="1368" on="0"/>
        <pt x="705" y="1368" on="0"/>
        <pt x="532" y="1295" on="0"/>
        <pt x="466" y="1220" on="1"/>
        <pt x="325" y="1056" on="0"/>
        <pt x="325" y="758" on="1"/>
        <pt x="325" y="509" on="0"/>
        <pt x="439" y="341" on="1"/>
        <pt x="477" y="285" on="0"/>
        <pt x="527" y="244" on="1"/>
      </contour>
      <contour>
        <pt x="641" y="179" on="1"/>
        <pt x="707" y="155" on="0"/>
        <pt x="889" y="155" on="0"/>
        <pt x="1058" y="235" on="0"/>
        <pt x="1118" y="313" on="1"/>
        <pt x="1243" y="476" on="0"/>
        <pt x="1243" y="772" on="1"/>
        <pt x="1243" y="1027" on="0"/>
        <pt x="1129" y="1194" on="1"/>
        <pt x="1091" y="1249" on="0"/>
        <pt x="1041" y="1288" on="1"/>
      </contour>
    </TTGlyph>
    <TTGlyph name="Otilde" xMin="99" yMin="-17" xMax="1470" yMax="1966">
      <component glyphName="tilde.cap" x="345" y="0" flags="0x1004"/>
      <component glyphName="O" x="0" y="0" flags="0x1004"/>
    </TTGlyph>
    <TTGlyph name="P" xMin="194" yMin="0" xMax="1196" yMax="1538">
      <contour>
        <pt x="974" y="592" on="0"/>
        <pt x="756" y="522" on="0"/>
        <pt x="562" y="522" on="0"/>
        <pt x="417" y="527" on="1"/>
        <pt x="417" y="0" on="1"/>
        <pt x="194" y="0" on="1"/>
        <pt x="194" y="1522" on="1"/>
        <pt x="299" y="1522" on="1"/>
        <pt x="386" y="1522" on="0"/>
        <pt x="564" y="1538" on="0"/>
        <pt x="788" y="1538" on="0"/>
        <pt x="985" y="1481" on="0"/>
        <pt x="1054" y="1421" on="1"/>
        <pt x="1196" y="1296" on="0"/>
        <pt x="1196" y="1045" on="1"/>
        <pt x="1196" y="794" on="0"/>
        <pt x="1048" y="659" on="1"/>
      </contour>
      <contour>
        <pt x="974" y="1226" on="0"/>
        <pt x="788" y="1378" on="0"/>
        <pt x="491" y="1378" on="0"/>
        <pt x="417" y="1359" on="1"/>
        <pt x="417" y="696" on="1"/>
        <pt x="490" y="686" on="0"/>
        <pt x="674" y="686" on="0"/>
        <pt x="809" y="713" on="0"/>
        <pt x="860" y="752" on="1"/>
        <pt x="974" y="838" on="0"/>
      </contour>
    </TTGlyph>
    <TTGlyph name="Q" xMin="99" yMin="-295" xMax="1511" yMax="1538">
      <contour>
        <pt x="1327" y="-113" on="1"/>
        <pt x="1457" y="-113" on="0"/>
        <pt x="1511" y="-94" on="1"/>
        <pt x="1511" y="-254" on="1"/>
        <pt x="1451" y="-294" on="0"/>
        <pt x="1249" y="-294" on="0"/>
        <pt x="1101" y="-270" on="0"/>
        <pt x="1031" y="-239" on="1"/>
        <pt x="885" y="-174" on="0"/>
        <pt x="766" y="-16" on="1"/>
        <pt x="763" y="-16" on="0"/>
        <pt x="761" y="-16" on="1"/>
        <pt x="458" y="-16" on="0"/>
        <pt x="274" y="206" on="1"/>
        <pt x="100" y="416" on="0"/>
        <pt x="100" y="751" on="1"/>
        <pt x="100" y="951" on="0"/>
        <pt x="217" y="1249" on="0"/>
        <pt x="313" y="1345" on="1"/>
        <pt x="506" y="1538" on="0"/>
        <pt x="808" y="1538" on="1"/>
        <pt x="1112" y="1538" on="0"/>
        <pt x="1293" y="1326" on="1"/>
        <pt x="1469" y="1121" on="0"/>
        <pt x="1469" y="783" on="1"/>
        <pt x="1469" y="468" on="0"/>
        <pt x="1328" y="262" on="1"/>
        <pt x="1201" y="78" on="0"/>
        <pt x="979" y="13" on="1"/>
        <pt x="1101" y="-113" on="0"/>
      </contour>
      <contour>
        <pt x="799" y="155" on="1"/>
        <pt x="889" y="155" on="0"/>
        <pt x="1058" y="235" on="0"/>
        <pt x="1118" y="313" on="1"/>
        <pt x="1243" y="476" on="0"/>
        <pt x="1243" y="772" on="1"/>
        <pt x="1243" y="1026" on="0"/>
        <pt x="1132" y="1190" on="1"/>
        <pt x="1010" y="1368" on="0"/>
        <pt x="801" y="1368" on="1"/>
        <pt x="595" y="1368" on="0"/>
        <pt x="466" y="1220" on="1"/>
        <pt x="325" y="1056" on="0"/>
        <pt x="325" y="758" on="1"/>
        <pt x="325" y="505" on="0"/>
        <pt x="441" y="338" on="1"/>
        <pt x="568" y="155" on="0"/>
      </contour>
    </TTGlyph>
    <TTGlyph name="R" xMin="194" yMin="0" xMax="1306" yMax="1538">
      <contour>
        <pt x="194" y="1522" on="1"/>
        <pt x="291" y="1522" on="1"/>
        <pt x="366" y="1522" on="0"/>
        <pt x="568" y="1538" on="0"/>
        <pt x="795" y="1538" on="0"/>
        <pt x="986" y="1490" on="0"/>
        <pt x="1054" y="1438" on="1"/>
        <pt x="1197" y="1329" on="0"/>
        <pt x="1197" y="1110" on="1"/>
        <pt x="1197" y="942" on="0"/>
        <pt x="1050" y="733" on="0"/>
        <pt x="922" y="688" on="1"/>
        <pt x="1007" y="630" on="0"/>
        <pt x="1098" y="432" on="1"/>
        <pt x="1124" y="377" on="0"/>
        <pt x="1148" y="322" on="1"/>
        <pt x="1228" y="136" on="0"/>
        <pt x="1306" y="0" on="1"/>
        <pt x="1053" y="0" on="1"/>
        <pt x="1039" y="20" on="0"/>
        <pt x="1009" y="88" on="0"/>
        <pt x="977" y="156" on="0"/>
        <pt x="937" y="264" on="0"/>
        <pt x="893" y="375" on="0"/>
        <pt x="845" y="482" on="0"/>
        <pt x="817" y="527" on="1"/>
        <pt x="755" y="626" on="0"/>
        <pt x="682" y="650" on="1"/>
        <pt x="637" y="648" on="0"/>
        <pt x="574" y="648" on="1"/>
        <pt x="417" y="648" on="1"/>
        <pt x="417" y="0" on="1"/>
        <pt x="194" y="0" on="1"/>
      </contour>
      <contour>
        <pt x="619" y="1374" on="1"/>
        <pt x="503" y="1374" on="0"/>
        <pt x="417" y="1356" on="1"/>
        <pt x="417" y="806" on="1"/>
        <pt x="465" y="800" on="0"/>
        <pt x="548" y="800" on="1"/>
        <pt x="652" y="800" on="1"/>
        <pt x="969" y="800" on="0"/>
        <pt x="969" y="1099" on="1"/>
        <pt x="969" y="1244" on="0"/>
        <pt x="896" y="1308" on="1"/>
        <pt x="819" y="1374" on="0"/>
      </contour>
    </TTGlyph>
    <TTGlyph name="Racute" xMin="194" yMin="0" xMax="1306" yMax="1980">
      <component glyphName="R" x="0" y="0" flags="0x1204"/>
      <component glyphName="acute.cap" x="524" y="0" flags="0x1004"/>
    </TTGlyph>
    <TTGlyph name="Rcaron" xMin="194" yMin="0" xMax="1306" yMax="1990">
      <component glyphName="caron.cap" x="319" y="0" flags="0x1004"/>
      <component glyphName="R" x="0" y="0" flags="0x1004"/>
    </TTGlyph>
    <TTGlyph name="Rcommaaccent" xMin="194" yMin="-560" xMax="1306" yMax="1538">
      <component glyphName="commaaccent" x="534" y="0" flags="0x1004"/>
      <component glyphName="R" x="0" y="0" flags="0x1004"/>
    </TTGlyph>
    <TTGlyph name="S" xMin="125" yMin="-16" xMax="1062" yMax="1538">
      <contour>
        <pt x="540" y="161" on="1"/>
        <pt x="843" y="161" on="0"/>
        <pt x="843" y="372" on="1"/>
        <pt x="843" y="475" on="0"/>
        <pt x="755" y="548" on="1"/>
        <pt x="696" y="597" on="0"/>
        <pt x="435" y="723" on="0"/>
        <pt x="298" y="813" on="0"/>
        <pt x="244" y="870" on="1"/>
        <pt x="125" y="997" on="0"/>
        <pt x="125" y="1147" on="1"/>
        <pt x="125" y="1409" on="0"/>
        <pt x="390" y="1502" on="1"/>
        <pt x="495" y="1538" on="0"/>
        <pt x="700" y="1538" on="0"/>
        <pt x="813" y="1523" on="0"/>
        <pt x="857" y="1512" on="1"/>
        <pt x="936" y="1491" on="0"/>
        <pt x="985" y="1459" on="1"/>
        <pt x="940" y="1283" on="1"/>
        <pt x="810" y="1363" on="0"/>
        <pt x="628" y="1363" on="1"/>
        <pt x="434" y="1363" on="0"/>
        <pt x="363" y="1262" on="1"/>
        <pt x="338" y="1226" on="0"/>
        <pt x="338" y="1121" on="0"/>
        <pt x="371" y="1040" on="0"/>
        <pt x="408" y="1006" on="1"/>
        <pt x="463" y="953" on="0"/>
        <pt x="690" y="837" on="0"/>
        <pt x="790" y="781" on="0"/>
        <pt x="884" y="718" on="0"/>
        <pt x="966" y="645" on="0"/>
        <pt x="996" y="602" on="1"/>
        <pt x="1062" y="508" on="0"/>
        <pt x="1062" y="292" on="0"/>
        <pt x="987" y="136" on="0"/>
        <pt x="920" y="85" on="1"/>
        <pt x="787" y="-16" on="0"/>
        <pt x="555" y="-16" on="1"/>
        <pt x="344" y="-16" on="0"/>
        <pt x="189" y="42" on="1"/>
        <pt x="148" y="58" on="0"/>
        <pt x="128" y="71" on="1"/>
        <pt x="181" y="254" on="1"/>
        <pt x="282" y="193" on="0"/>
        <pt x="436" y="169" on="1"/>
        <pt x="488" y="161" on="0"/>
      </contour>
    </TTGlyph>
    <TTGlyph name="Sacute" xMin="125" yMin="-16" xMax="1062" yMax="1980">
      <component glyphName="S" x="0" y="0" flags="0x1204"/>
      <component glyphName="acute.cap" x="417" y="0" flags="0x1004"/>
    </TTGlyph>
    <TTGlyph name="Scaron" xMin="125" yMin="-16" xMax="1062" yMax="1990">
      <component glyphName="S" x="0" y="0" flags="0x1204"/>
      <component glyphName="caron.cap" x="212" y="0" flags="0x1004"/>
    </TTGlyph>
    <TTGlyph name="Scedilla" xMin="125" yMin="-464" xMax="1062" yMax="1538">
      <contour>
        <pt x="374" y="-308" on="1"/>
        <pt x="506" y="-308" on="0"/>
        <pt x="506" y="-89" on="1"/>
        <pt x="506" y="-47" on="0"/>
        <pt x="497" y="-14" on="1"/>
        <pt x="316" y="-6" on="0"/>
        <pt x="182" y="46" on="1"/>
        <pt x="146" y="59" on="0"/>
        <pt x="128" y="71" on="1"/>
        <pt x="181" y="254" on="1"/>
        <pt x="282" y="193" on="0"/>
        <pt x="436" y="169" on="1"/>
        <pt x="488" y="161" on="0"/>
        <pt x="540" y="161" on="1"/>
        <pt x="843" y="161" on="0"/>
        <pt x="843" y="372" on="1"/>
        <pt x="843" y="475" on="0"/>
        <pt x="755" y="548" on="1"/>
        <pt x="696" y="597" on="0"/>
        <pt x="435" y="723" on="0"/>
        <pt x="298" y="813" on="0"/>
        <pt x="244" y="870" on="1"/>
        <pt x="125" y="997" on="0"/>
        <pt x="125" y="1147" on="1"/>
        <pt x="125" y="1409" on="0"/>
        <pt x="390" y="1502" on="1"/>
        <pt x="495" y="1538" on="0"/>
        <pt x="700" y="1538" on="0"/>
        <pt x="813" y="1523" on="0"/>
        <pt x="857" y="1512" on="1"/>
        <pt x="936" y="1491" on="0"/>
        <pt x="985" y="1459" on="1"/>
        <pt x="940" y="1283" on="1"/>
        <pt x="810" y="1363" on="0"/>
        <pt x="628" y="1363" on="1"/>
        <pt x="434" y="1363" on="0"/>
        <pt x="363" y="1262" on="1"/>
        <pt x="338" y="1226" on="0"/>
        <pt x="338" y="1121" on="0"/>
        <pt x="371" y="1040" on="0"/>
        <pt x="408" y="1006" on="1"/>
        <pt x="463" y="953" on="0"/>
        <pt x="690" y="837" on="0"/>
        <pt x="790" y="781" on="0"/>
        <pt x="884" y="718" on="0"/>
        <pt x="966" y="645" on="0"/>
        <pt x="996" y="602" on="1"/>
        <pt x="1062" y="508" on="0"/>
        <pt x="1062" y="302" on="0"/>
        <pt x="1000" y="156" on="0"/>
        <pt x="944" y="105" on="1"/>
        <pt x="834" y="5" on="0"/>
        <pt x="635" y="-12" on="1"/>
        <pt x="666" y="-76" on="0"/>
        <pt x="666" y="-177" on="1"/>
        <pt x="666" y="-401" on="0"/>
        <pt x="508" y="-451" on="1"/>
        <pt x="467" y="-464" on="0"/>
        <pt x="404" y="-464" on="0"/>
        <pt x="359" y="-460" on="0"/>
        <pt x="339" y="-456" on="1"/>
        <pt x="293" y="-447" on="0"/>
        <pt x="277" y="-436" on="1"/>
        <pt x="292" y="-294" on="1"/>
        <pt x="315" y="-308" on="0"/>
      </contour>
    </TTGlyph>
    <TTGlyph name="Scircumflex" xMin="125" yMin="-16" xMax="1062" yMax="1990">
      <component glyphName="S" x="0" y="0" flags="0x1204"/>
      <component glyphName="circumflex.cap" x="197" y="0" flags="0x1004"/>
    </TTGlyph>
    <TTGlyph name="T" xMin="63" yMin="0" xMax="1240" yMax="1522">
      <contour>
        <pt x="538" y="1350" on="1"/>
        <pt x="63" y="1350" on="1"/>
        <pt x="63" y="1522" on="1"/>
        <pt x="1240" y="1522" on="1"/>
        <pt x="1240" y="1350" on="1"/>
        <pt x="763" y="1350" on="1"/>
        <pt x="763" y="0" on="1"/>
        <pt x="538" y="0" on="1"/>
      </contour>
    </TTGlyph>
    <TTGlyph name="Tbar" xMin="63" yMin="0" xMax="1240" yMax="1522">
      <contour>
        <pt x="538" y="651" on="1"/>
        <pt x="249" y="651" on="1"/>
        <pt x="249" y="796" on="1"/>
        <pt x="538" y="796" on="1"/>
        <pt x="538" y="1350" on="1"/>
        <pt x="63" y="1350" on="1"/>
        <pt x="63" y="1522" on="1"/>
        <pt x="1240" y="1522" on="1"/>
        <pt x="1240" y="1350" on="1"/>
        <pt x="763" y="1350" on="1"/>
        <pt x="763" y="796" on="1"/>
        <pt x="1059" y="796" on="1"/>
        <pt x="1059" y="651" on="1"/>
        <pt x="763" y="651" on="1"/>
        <pt x="763" y="0" on="1"/>
        <pt x="538" y="0" on="1"/>
      </contour>
    </TTGlyph>
    <TTGlyph name="Tcaron" xMin="63" yMin="0" xMax="1240" yMax="1990">
      <component glyphName="caron.cap" x="252" y="0" flags="0x1004"/>
      <component glyphName="T" x="0" y="0" flags="0x1004"/>
    </TTGlyph>
    <TTGlyph name="Thorn" xMin="194" yMin="0" xMax="1182" yMax="1522">
      <contour>
        <pt x="960" y="353" on="0"/>
        <pt x="743" y="285" on="0"/>
        <pt x="518" y="285" on="0"/>
        <pt x="417" y="292" on="1"/>
        <pt x="417" y="0" on="1"/>
        <pt x="194" y="0" on="1"/>
        <pt x="194" y="1522" on="1"/>
        <pt x="417" y="1522" on="1"/>
        <pt x="417" y="1247" on="1"/>
        <pt x="576" y="1259" on="0"/>
        <pt x="650" y="1259" on="1"/>
        <pt x="1182" y="1259" on="0"/>
        <pt x="1182" y="793" on="1"/>
        <pt x="1182" y="551" on="0"/>
        <pt x="1034" y="418" on="1"/>
      </contour>
      <contour>
        <pt x="604" y="1099" on="1"/>
        <pt x="500" y="1099" on="0"/>
        <pt x="417" y="1082" on="1"/>
        <pt x="417" y="455" on="1"/>
        <pt x="477" y="447" on="0"/>
        <pt x="654" y="447" on="0"/>
        <pt x="792" y="472" on="0"/>
        <pt x="844" y="509" on="1"/>
        <pt x="960" y="590" on="0"/>
        <pt x="960" y="956" on="0"/>
        <pt x="777" y="1099" on="0"/>
      </contour>
    </TTGlyph>
    <TTGlyph name="U" xMin="159" yMin="-16" xMax="1305" yMax="1522">
      <contour>
        <pt x="159" y="1522" on="1"/>
        <pt x="382" y="1522" on="1"/>
        <pt x="381" y="686" on="1"/>
        <pt x="381" y="386" on="0"/>
        <pt x="477" y="264" on="1"/>
        <pt x="561" y="158" on="0"/>
        <pt x="748" y="158" on="1"/>
        <pt x="915" y="158" on="0"/>
        <pt x="992" y="265" on="1"/>
        <pt x="1083" y="390" on="0"/>
        <pt x="1083" y="686" on="1"/>
        <pt x="1083" y="1522" on="1"/>
        <pt x="1305" y="1522" on="1"/>
        <pt x="1305" y="630" on="1"/>
        <pt x="1305" y="153" on="0"/>
        <pt x="990" y="26" on="1"/>
        <pt x="884" y="-16" on="0"/>
        <pt x="584" y="-16" on="0"/>
        <pt x="363" y="71" on="0"/>
        <pt x="293" y="154" on="1"/>
        <pt x="159" y="313" on="0"/>
        <pt x="159" y="633" on="1"/>
      </contour>
    </TTGlyph>
    <TTGlyph name="Uacute" xMin="159" yMin="-16" xMax="1305" yMax="1980">
      <component glyphName="acute.cap" x="559" y="0" flags="0x1004"/>
      <component glyphName="U" x="0" y="0" flags="0x1004"/>
    </TTGlyph>
    <TTGlyph name="Ubreve" xMin="159" yMin="-16" xMax="1305" yMax="1970">
      <component glyphName="breve.cap" x="354" y="0" flags="0x1004"/>
      <component glyphName="U" x="0" y="0" flags="0x1004"/>
    </TTGlyph>
    <TTGlyph name="Ucircumflex" xMin="159" yMin="-16" xMax="1305" yMax="1990">
      <component glyphName="U" x="0" y="0" flags="0x1204"/>
      <component glyphName="circumflex.cap" x="339" y="0" flags="0x1004"/>
    </TTGlyph>
    <TTGlyph name="Udieresis" xMin="159" yMin="-16" xMax="1305" yMax="1955">
      <component glyphName="dieresis.cap" x="299" y="0" flags="0x1004"/>
      <component glyphName="U" x="0" y="0" flags="0x1004"/>
    </TTGlyph>
    <TTGlyph name="Ugrave" xMin="159" yMin="-16" xMax="1305" yMax="1980">
      <component glyphName="grave.cap" x="335" y="0" flags="0x1004"/>
      <component glyphName="U" x="0" y="0" flags="0x1004"/>
    </TTGlyph>
    <TTGlyph name="Uhungarumlaut" xMin="159" yMin="-16" xMax="1305" yMax="2000">
      <component glyphName="U" x="0" y="0" flags="0x1204"/>
      <component glyphName="hungarumlaut.cap" x="330" y="0" flags="0x1004"/>
    </TTGlyph>
    <TTGlyph name="Umacron" xMin="159" yMin="-16" xMax="1305" yMax="1891">
      <component glyphName="macron.cap" x="424" y="0" flags="0x1004"/>
      <component glyphName="U" x="0" y="0" flags="0x1004"/>
    </TTGlyph>
    <TTGlyph name="Uogonek" xMin="159" yMin="-512" xMax="1305" yMax="1522">
      <contour>
        <pt x="1052" y="-453" on="1"/>
        <pt x="975" y="-512" on="0"/>
        <pt x="815" y="-512" on="1"/>
        <pt x="645" y="-512" on="0"/>
        <pt x="588" y="-392" on="1"/>
        <pt x="569" y="-353" on="0"/>
        <pt x="568" y="-268" on="0"/>
        <pt x="595" y="-189" on="0"/>
        <pt x="619" y="-150" on="1"/>
        <pt x="668" y="-70" on="0"/>
        <pt x="749" y="-16" on="1"/>
        <pt x="741" y="-16" on="1"/>
        <pt x="290" y="-16" on="0"/>
        <pt x="191" y="358" on="1"/>
        <pt x="159" y="478" on="0"/>
        <pt x="159" y="633" on="1"/>
        <pt x="159" y="1522" on="1"/>
        <pt x="382" y="1522" on="1"/>
        <pt x="381" y="686" on="1"/>
        <pt x="381" y="386" on="0"/>
        <pt x="477" y="264" on="1"/>
        <pt x="561" y="158" on="0"/>
        <pt x="748" y="158" on="1"/>
        <pt x="915" y="158" on="0"/>
        <pt x="992" y="265" on="1"/>
        <pt x="1083" y="390" on="0"/>
        <pt x="1083" y="686" on="1"/>
        <pt x="1083" y="1522" on="1"/>
        <pt x="1305" y="1522" on="1"/>
        <pt x="1305" y="630" on="1"/>
        <pt x="1305" y="112" on="0"/>
        <pt x="936" y="9" on="1"/>
        <pt x="828" y="-89" on="0"/>
        <pt x="794" y="-198" on="1"/>
        <pt x="773" y="-265" on="0"/>
        <pt x="796" y="-312" on="1"/>
        <pt x="815" y="-350" on="0"/>
        <pt x="887" y="-364" on="0"/>
        <pt x="978" y="-364" on="0"/>
        <pt x="1052" y="-335" on="1"/>
      </contour>
    </TTGlyph>
    <TTGlyph name="Uring" xMin="159" yMin="-16" xMax="1305" yMax="1970">
      <component glyphName="U" x="0" y="0" flags="0x1204"/>
      <component glyphName="ring.cap" x="379" y="0" flags="0x1004"/>
    </TTGlyph>
    <TTGlyph name="Utilde" xMin="159" yMin="-16" xMax="1305" yMax="1966">
      <component glyphName="tilde.cap" x="282" y="0" flags="0x1004"/>
      <component glyphName="U" x="0" y="0" flags="0x1004"/>
    </TTGlyph>
    <TTGlyph name="V" xMin="22" yMin="-13" xMax="1333" yMax="1522">
      <contour>
        <pt x="22" y="1522" on="1"/>
        <pt x="259" y="1522" on="1"/>
        <pt x="619" y="498" on="1"/>
        <pt x="686" y="263" on="1"/>
        <pt x="755" y="498" on="1"/>
        <pt x="1099" y="1522" on="1"/>
        <pt x="1333" y="1522" on="1"/>
        <pt x="778" y="-13" on="1"/>
        <pt x="591" y="-13" on="1"/>
      </contour>
    </TTGlyph>
    <TTGlyph name="W" xMin="22" yMin="-16" xMax="1896" yMax="1522">
      <contour>
        <pt x="22" y="1522" on="1"/>
        <pt x="251" y="1522" on="1"/>
        <pt x="493" y="534" on="1"/>
        <pt x="543" y="258" on="1"/>
        <pt x="594" y="534" on="1"/>
        <pt x="881" y="1522" on="1"/>
        <pt x="1042" y="1522" on="1"/>
        <pt x="1333" y="534" on="1"/>
        <pt x="1399" y="256" on="1"/>
        <pt x="1446" y="533" on="1"/>
        <pt x="1672" y="1522" on="1"/>
        <pt x="1896" y="1522" on="1"/>
        <pt x="1503" y="-16" on="1"/>
        <pt x="1285" y="-16" on="1"/>
        <pt x="995" y="982" on="1"/>
        <pt x="960" y="1164" on="1"/>
        <pt x="926" y="981" on="1"/>
        <pt x="632" y="-16" on="1"/>
        <pt x="441" y="-16" on="1"/>
      </contour>
    </TTGlyph>
    <TTGlyph name="Wacute" xMin="22" yMin="-16" xMax="1896" yMax="1980">
      <component glyphName="acute.cap" x="774" y="0" flags="0x1004"/>
      <component glyphName="W" x="0" y="0" flags="0x1004"/>
    </TTGlyph>
    <TTGlyph name="Wcircumflex" xMin="22" yMin="-16" xMax="1896" yMax="1990">
      <component glyphName="W" x="0" y="0" flags="0x1204"/>
      <component glyphName="circumflex.cap" x="554" y="0" flags="0x1004"/>
    </TTGlyph>
    <TTGlyph name="Wdieresis" xMin="22" yMin="-16" xMax="1896" yMax="1955">
      <component glyphName="dieresis.cap" x="514" y="0" flags="0x1004"/>
      <component glyphName="W" x="0" y="0" flags="0x1004"/>
    </TTGlyph>
    <TTGlyph name="Wgrave" xMin="22" yMin="-16" xMax="1896" yMax="1980">
      <component glyphName="grave.cap" x="550" y="0" flags="0x1004"/>
      <component glyphName="W" x="0" y="0" flags="0x1004"/>
    </TTGlyph>
    <TTGlyph name="X" xMin="43" yMin="0" xMax="1272" yMax="1523">
      <contour>
        <pt x="523" y="786" on="1"/>
        <pt x="45" y="1522" on="1"/>
        <pt x="296" y="1523" on="1"/>
        <pt x="667" y="917" on="1"/>
        <pt x="1023" y="1522" on="1"/>
        <pt x="1262" y="1522" on="1"/>
        <pt x="785" y="753" on="1"/>
        <pt x="1272" y="0" on="1"/>
        <pt x="1018" y="0" on="1"/>
        <pt x="645" y="619" on="1"/>
        <pt x="282" y="0" on="1"/>
        <pt x="43" y="0" on="1"/>
      </contour>
    </TTGlyph>
    <TTGlyph name="Y" xMin="22" yMin="0" xMax="1242" yMax="1522">
      <contour>
        <pt x="523" y="593" on="1"/>
        <pt x="22" y="1522" on="1"/>
        <pt x="260" y="1522" on="1"/>
        <pt x="598" y="862" on="1"/>
        <pt x="641" y="757" on="1"/>
        <pt x="677" y="862" on="1"/>
        <pt x="1008" y="1522" on="1"/>
        <pt x="1242" y="1522" on="1"/>
        <pt x="749" y="593" on="1"/>
        <pt x="749" y="0" on="1"/>
        <pt x="523" y="0" on="1"/>
      </contour>
    </TTGlyph>
    <TTGlyph name="Yacute" xMin="22" yMin="0" xMax="1242" yMax="1980">
      <component glyphName="Y" x="0" y="0" flags="0x1204"/>
      <component glyphName="acute.cap" x="464" y="0" flags="0x1004"/>
    </TTGlyph>
    <TTGlyph name="Ycircumflex" xMin="22" yMin="0" xMax="1242" yMax="1990">
      <component glyphName="Y" x="0" y="0" flags="0x1204"/>
      <component glyphName="circumflex.cap" x="244" y="0" flags="0x1004"/>
    </TTGlyph>
    <TTGlyph name="Ydieresis" xMin="22" yMin="0" xMax="1242" yMax="1955">
      <component glyphName="Y" x="0" y="0" flags="0x1204"/>
      <component glyphName="dieresis.cap" x="204" y="0" flags="0x1004"/>
    </TTGlyph>
    <TTGlyph name="Ygrave" xMin="22" yMin="0" xMax="1242" yMax="1980">
      <component glyphName="Y" x="0" y="0" flags="0x1204"/>
      <component glyphName="grave.cap" x="240" y="0" flags="0x1004"/>
    </TTGlyph>
    <TTGlyph name="Z" xMin="89" yMin="0" xMax="1216" yMax="1522">
      <contour>
        <pt x="866" y="1273" on="1"/>
        <pt x="924" y="1344" on="1"/>
        <pt x="174" y="1344" on="1"/>
        <pt x="174" y="1522" on="1"/>
        <pt x="1170" y="1522" on="1"/>
        <pt x="1216" y="1441" on="1"/>
        <pt x="456" y="260" on="1"/>
        <pt x="382" y="175" on="1"/>
        <pt x="1157" y="175" on="1"/>
        <pt x="1157" y="0" on="1"/>
        <pt x="134" y="0" on="1"/>
        <pt x="89" y="84" on="1"/>
      </contour>
    </TTGlyph>
    <TTGlyph name="Zacute" xMin="89" yMin="0" xMax="1216" yMax="1980">
      <component glyphName="Z" x="0" y="0" flags="0x1204"/>
      <component glyphName="acute.cap" x="493" y="0" flags="0x1004"/>
    </TTGlyph>
    <TTGlyph name="Zcaron" xMin="89" yMin="0" xMax="1216" yMax="1990">
      <component glyphName="caron.cap" x="288" y="0" flags="0x1004"/>
      <component glyphName="Z" x="0" y="0" flags="0x1004"/>
    </TTGlyph>
    <TTGlyph name="Zdotaccent" xMin="89" yMin="0" xMax="1216" yMax="1956">
      <component glyphName="dotaccent.cap" x="479" y="0" flags="0x1004"/>
      <component glyphName="Z" x="0" y="0" flags="0x1004"/>
    </TTGlyph>
    <TTGlyph name="a" xMin="94" yMin="-16" xMax="970" yMax="1157">
      <contour>
        <pt x="146" y="111" on="0"/>
        <pt x="94" y="230" on="0"/>
        <pt x="94" y="416" on="0"/>
        <pt x="154" y="494" on="1"/>
        <pt x="280" y="658" on="0"/>
        <pt x="646" y="684" on="1"/>
        <pt x="702" y="688" on="0"/>
        <pt x="750" y="688" on="1"/>
        <pt x="750" y="803" on="1"/>
        <pt x="750" y="918" on="0"/>
        <pt x="690" y="958" on="1"/>
        <pt x="640" y="991" on="0"/>
        <pt x="507" y="991" on="1"/>
        <pt x="392" y="991" on="0"/>
        <pt x="254" y="936" on="1"/>
        <pt x="218" y="922" on="0"/>
        <pt x="199" y="908" on="1"/>
        <pt x="145" y="1052" on="1"/>
        <pt x="231" y="1106" on="0"/>
        <pt x="430" y="1144" on="1"/>
        <pt x="498" y="1157" on="0"/>
        <pt x="655" y="1157" on="0"/>
        <pt x="804" y="1128" on="0"/>
        <pt x="858" y="1088" on="1"/>
        <pt x="970" y="1004" on="0"/>
        <pt x="970" y="794" on="1"/>
        <pt x="970" y="-16" on="1"/>
        <pt x="880" y="-16" on="1"/>
        <pt x="816" y="-16" on="0"/>
        <pt x="797" y="-4" on="1"/>
        <pt x="763" y="19" on="0"/>
        <pt x="763" y="88" on="1"/>
        <pt x="763" y="96" on="1"/>
        <pt x="681" y="21" on="0"/>
        <pt x="542" y="-6" on="1"/>
        <pt x="494" y="-16" on="0"/>
        <pt x="367" y="-16" on="0"/>
        <pt x="239" y="28" on="0"/>
      </contour>
      <contour>
        <pt x="311" y="324" on="1"/>
        <pt x="311" y="148" on="0"/>
        <pt x="508" y="148" on="1"/>
        <pt x="617" y="148" on="0"/>
        <pt x="716" y="205" on="1"/>
        <pt x="741" y="219" on="0"/>
        <pt x="750" y="229" on="1"/>
        <pt x="750" y="548" on="1"/>
        <pt x="633" y="548" on="0"/>
        <pt x="469" y="508" on="0"/>
        <pt x="410" y="480" on="0"/>
        <pt x="364" y="449" on="0"/>
        <pt x="347" y="428" on="1"/>
        <pt x="311" y="385" on="0"/>
      </contour>
    </TTGlyph>
    <TTGlyph name="aacute" xMin="94" yMin="-16" xMax="970" yMax="1783">
      <component glyphName="a" x="0" y="0" flags="0x1204"/>
      <component glyphName="acute" x="386" y="0" flags="0x1004"/>
    </TTGlyph>
    <TTGlyph name="abreve" xMin="94" yMin="-16" xMax="970" yMax="1685">
      <component glyphName="a" x="0" y="0" flags="0x1204"/>
      <component glyphName="breve" x="174" y="0" flags="0x1004"/>
    </TTGlyph>
    <TTGlyph name="acircumflex" xMin="94" yMin="-16" xMax="970" yMax="1682">
      <component glyphName="a" x="0" y="0" flags="0x1204"/>
      <component glyphName="circumflex" x="145" y="0" flags="0x1004"/>
    </TTGlyph>
    <TTGlyph name="acute" xMin="50" yMin="1294" xMax="544" yMax="1783">
      <contour>
        <pt x="50" y="1384" on="1"/>
        <pt x="293" y="1650" on="0"/>
        <pt x="388" y="1783" on="1"/>
        <pt x="544" y="1648" on="1"/>
        <pt x="510" y="1588" on="0"/>
        <pt x="362" y="1450" on="1"/>
        <pt x="216" y="1315" on="0"/>
        <pt x="161" y="1294" on="1"/>
      </contour>
    </TTGlyph>
    <TTGlyph name="acute.cap" xMin="58" yMin="1573" xMax="547" yMax="1980">
      <contour>
        <pt x="58" y="1665" on="1"/>
        <pt x="60" y="1666" on="0"/>
        <pt x="111" y="1713" on="0"/>
        <pt x="187" y="1780" on="0"/>
        <pt x="274" y="1859" on="0"/>
        <pt x="312" y="1894" on="1"/>
        <pt x="399" y="1974" on="0"/>
        <pt x="401" y="1980" on="1"/>
        <pt x="547" y="1847" on="1"/>
        <pt x="428" y="1724" on="0"/>
        <pt x="248" y="1620" on="1"/>
        <pt x="194" y="1588" on="0"/>
        <pt x="151" y="1573" on="1"/>
      </contour>
    </TTGlyph>
    <TTGlyph name="adieresis" xMin="94" yMin="-16" xMax="970" yMax="1642">
      <component glyphName="a" x="0" y="0" flags="0x1204"/>
      <component glyphName="dieresis" x="135" y="0" flags="0x1004"/>
    </TTGlyph>
    <TTGlyph name="ae" xMin="94" yMin="-16" xMax="1683" yMax="1157">
      <contour>
        <pt x="862" y="162" on="1"/>
        <pt x="711" y="-16" on="0"/>
        <pt x="449" y="-16" on="1"/>
        <pt x="293" y="-16" on="0"/>
        <pt x="196" y="70" on="1"/>
        <pt x="94" y="158" on="0"/>
        <pt x="94" y="305" on="1"/>
        <pt x="94" y="517" on="0"/>
        <pt x="316" y="614" on="1"/>
        <pt x="490" y="688" on="0"/>
        <pt x="751" y="688" on="1"/>
        <pt x="751" y="803" on="1"/>
        <pt x="751" y="918" on="0"/>
        <pt x="696" y="958" on="1"/>
        <pt x="650" y="991" on="0"/>
        <pt x="527" y="991" on="1"/>
        <pt x="413" y="991" on="0"/>
        <pt x="265" y="934" on="1"/>
        <pt x="226" y="919" on="0"/>
        <pt x="204" y="905" on="1"/>
        <pt x="150" y="1052" on="1"/>
        <pt x="234" y="1104" on="0"/>
        <pt x="446" y="1144" on="1"/>
        <pt x="515" y="1157" on="0"/>
        <pt x="639" y="1157" on="0"/>
        <pt x="740" y="1144" on="0"/>
        <pt x="782" y="1128" on="1"/>
        <pt x="868" y="1095" on="0"/>
        <pt x="908" y="1014" on="1"/>
        <pt x="1046" y="1156" on="0"/>
        <pt x="1270" y="1156" on="1"/>
        <pt x="1445" y="1156" on="0"/>
        <pt x="1556" y="1050" on="1"/>
        <pt x="1677" y="932" on="0"/>
        <pt x="1683" y="726" on="1"/>
        <pt x="1683" y="574" on="0"/>
        <pt x="1672" y="522" on="1"/>
        <pt x="970" y="522" on="1"/>
        <pt x="976" y="397" on="0"/>
        <pt x="1033" y="263" on="0"/>
        <pt x="1079" y="223" on="1"/>
        <pt x="1162" y="151" on="0"/>
        <pt x="1316" y="151" on="1"/>
        <pt x="1426" y="151" on="0"/>
        <pt x="1547" y="188" on="1"/>
        <pt x="1584" y="200" on="0"/>
        <pt x="1605" y="212" on="1"/>
        <pt x="1647" y="86" on="1"/>
        <pt x="1564" y="18" on="0"/>
        <pt x="1368" y="-8" on="1"/>
        <pt x="1311" y="-16" on="0"/>
        <pt x="1259" y="-16" on="1"/>
        <pt x="992" y="-16" on="0"/>
      </contour>
      <contour>
        <pt x="1478" y="712" on="1"/>
        <pt x="1478" y="1000" on="0"/>
        <pt x="1251" y="1000" on="1"/>
        <pt x="1011" y="1000" on="0"/>
        <pt x="975" y="668" on="1"/>
        <pt x="1477" y="668" on="1"/>
        <pt x="1478" y="690" on="0"/>
      </contour>
      <contour>
        <pt x="382" y="467" on="0"/>
        <pt x="315" y="390" on="0"/>
        <pt x="315" y="313" on="1"/>
        <pt x="315" y="148" on="0"/>
        <pt x="504" y="148" on="1"/>
        <pt x="637" y="148" on="0"/>
        <pt x="746" y="226" on="1"/>
        <pt x="779" y="250" on="0"/>
        <pt x="800" y="279" on="1"/>
        <pt x="758" y="393" on="0"/>
        <pt x="754" y="550" on="1"/>
        <pt x="753" y="548" on="1"/>
        <pt x="548" y="548" on="0"/>
        <pt x="438" y="493" on="1"/>
      </contour>
    </TTGlyph>
    <TTGlyph name="aeacute" xMin="94" yMin="-16" xMax="1683" yMax="1783">
      <component glyphName="acute" x="724" y="0" flags="0x1004"/>
      <component glyphName="ae" x="0" y="0" flags="0x1004"/>
    </TTGlyph>
    <TTGlyph name="afii61352" xMin="194" yMin="0" xMax="2494" yMax="1530">
      <contour>
        <pt x="1620" y="576" on="1"/>
        <pt x="1563" y="656" on="0"/>
        <pt x="1515" y="861" on="0"/>
        <pt x="1515" y="1112" on="0"/>
        <pt x="1593" y="1321" on="0"/>
        <pt x="1660" y="1390" on="1"/>
        <pt x="1794" y="1530" on="0"/>
        <pt x="2015" y="1530" on="1"/>
        <pt x="2261" y="1530" on="0"/>
        <pt x="2386" y="1356" on="1"/>
        <pt x="2493" y="1205" on="0"/>
        <pt x="2493" y="955" on="1"/>
        <pt x="2493" y="692" on="0"/>
        <pt x="2349" y="540" on="1"/>
        <pt x="2215" y="399" on="0"/>
        <pt x="1996" y="399" on="1"/>
        <pt x="1745" y="399" on="0"/>
      </contour>
      <contour>
        <pt x="194" y="1522" on="1"/>
        <pt x="388" y="1522" on="1"/>
        <pt x="969" y="554" on="1"/>
        <pt x="1076" y="324" on="1"/>
        <pt x="1067" y="518" on="1"/>
        <pt x="1067" y="1522" on="1"/>
        <pt x="1271" y="1522" on="1"/>
        <pt x="1271" y="0" on="1"/>
        <pt x="1077" y="0" on="1"/>
        <pt x="519" y="924" on="1"/>
        <pt x="386" y="1190" on="1"/>
        <pt x="397" y="963" on="1"/>
        <pt x="397" y="0" on="1"/>
        <pt x="194" y="0" on="1"/>
      </contour>
      <contour>
        <pt x="1731" y="985" on="1"/>
        <pt x="1731" y="688" on="0"/>
        <pt x="1882" y="588" on="1"/>
        <pt x="1935" y="554" on="0"/>
        <pt x="2009" y="554" on="1"/>
        <pt x="2139" y="554" on="0"/>
        <pt x="2277" y="760" on="0"/>
        <pt x="2277" y="953" on="1"/>
        <pt x="2277" y="1245" on="0"/>
        <pt x="2129" y="1340" on="1"/>
        <pt x="2077" y="1373" on="0"/>
        <pt x="2005" y="1373" on="1"/>
        <pt x="1872" y="1373" on="0"/>
        <pt x="1731" y="1176" on="0"/>
      </contour>
      <contour>
        <pt x="1580" y="165" on="1"/>
        <pt x="2440" y="165" on="1"/>
        <pt x="2440" y="0" on="1"/>
        <pt x="1580" y="0" on="1"/>
      </contour>
    </TTGlyph>
    <TTGlyph name="agrave" xMin="94" yMin="-16" xMax="970" yMax="1783">
      <component glyphName="a" x="0" y="0" flags="0x1204"/>
      <component glyphName="grave" x="131" y="0" flags="0x1004"/>
    </TTGlyph>
    <TTGlyph name="amacron" xMin="94" yMin="-16" xMax="970" yMax="1588">
      <component glyphName="a" x="0" y="0" flags="0x1204"/>
      <component glyphName="macron" x="244" y="0" flags="0x1004"/>
    </TTGlyph>
    <TTGlyph name="ampersand" xMin="147" yMin="-17" xMax="1429" yMax="1546">
      <contour>
        <pt x="1062" y="62" on="1"/>
        <pt x="915" y="-16" on="0"/>
        <pt x="618" y="-16" on="0"/>
        <pt x="396" y="35" on="0"/>
        <pt x="316" y="86" on="1"/>
        <pt x="147" y="195" on="0"/>
        <pt x="147" y="394" on="1"/>
        <pt x="147" y="643" on="0"/>
        <pt x="458" y="787" on="1"/>
        <pt x="376" y="898" on="0"/>
        <pt x="347" y="958" on="1"/>
        <pt x="289" y="1079" on="0"/>
        <pt x="289" y="1271" on="0"/>
        <pt x="347" y="1404" on="0"/>
        <pt x="401" y="1450" on="1"/>
        <pt x="512" y="1546" on="0"/>
        <pt x="703" y="1546" on="1"/>
        <pt x="873" y="1546" on="0"/>
        <pt x="978" y="1441" on="1"/>
        <pt x="1077" y="1342" on="0"/>
        <pt x="1077" y="1202" on="1"/>
        <pt x="1077" y="946" on="0"/>
        <pt x="880" y="810" on="1"/>
        <pt x="817" y="766" on="0"/>
        <pt x="738" y="729" on="1"/>
        <pt x="827" y="601" on="0"/>
        <pt x="1042" y="337" on="0"/>
        <pt x="1081" y="295" on="1"/>
        <pt x="1163" y="381" on="0"/>
        <pt x="1163" y="523" on="1"/>
        <pt x="1163" y="607" on="0"/>
        <pt x="1130" y="728" on="1"/>
        <pt x="1322" y="728" on="1"/>
        <pt x="1351" y="634" on="0"/>
        <pt x="1351" y="522" on="1"/>
        <pt x="1351" y="304" on="0"/>
        <pt x="1213" y="180" on="1"/>
        <pt x="1295" y="127" on="0"/>
        <pt x="1429" y="112" on="1"/>
        <pt x="1429" y="-1" on="1"/>
        <pt x="1379" y="-16" on="0"/>
        <pt x="1312" y="-16" on="1"/>
        <pt x="1177" y="-16" on="0"/>
      </contour>
      <contour>
        <pt x="645" y="858" on="1"/>
        <pt x="767" y="912" on="0"/>
        <pt x="824" y="986" on="1"/>
        <pt x="890" y="1071" on="0"/>
        <pt x="890" y="1199" on="1"/>
        <pt x="890" y="1268" on="0"/>
        <pt x="842" y="1325" on="1"/>
        <pt x="788" y="1390" on="0"/>
        <pt x="699" y="1390" on="1"/>
        <pt x="556" y="1390" on="0"/>
        <pt x="510" y="1284" on="1"/>
        <pt x="493" y="1247" on="0"/>
        <pt x="493" y="1138" on="0"/>
        <pt x="511" y="1061" on="0"/>
        <pt x="549" y="990" on="0"/>
        <pt x="606" y="912" on="0"/>
      </contour>
      <contour>
        <pt x="556" y="658" on="1"/>
        <pt x="354" y="553" on="0"/>
        <pt x="354" y="400" on="1"/>
        <pt x="354" y="226" on="0"/>
        <pt x="558" y="165" on="1"/>
        <pt x="632" y="143" on="0"/>
        <pt x="796" y="143" on="0"/>
        <pt x="884" y="166" on="0"/>
        <pt x="926" y="183" on="1"/>
        <pt x="785" y="340" on="0"/>
      </contour>
    </TTGlyph>
    <TTGlyph name="aogonek" xMin="94" yMin="-512" xMax="1042" yMax="1157">
      <contour>
        <pt x="793" y="-1" on="1"/>
        <pt x="763" y="19" on="0"/>
        <pt x="763" y="88" on="1"/>
        <pt x="763" y="96" on="1"/>
        <pt x="681" y="21" on="0"/>
        <pt x="542" y="-6" on="1"/>
        <pt x="494" y="-16" on="0"/>
        <pt x="367" y="-16" on="0"/>
        <pt x="239" y="28" on="0"/>
        <pt x="192" y="70" on="1"/>
        <pt x="94" y="157" on="0"/>
        <pt x="94" y="305" on="1"/>
        <pt x="94" y="416" on="0"/>
        <pt x="154" y="494" on="1"/>
        <pt x="280" y="658" on="0"/>
        <pt x="646" y="684" on="1"/>
        <pt x="702" y="688" on="0"/>
        <pt x="750" y="688" on="1"/>
        <pt x="750" y="803" on="1"/>
        <pt x="750" y="918" on="0"/>
        <pt x="690" y="958" on="1"/>
        <pt x="640" y="991" on="0"/>
        <pt x="507" y="991" on="1"/>
        <pt x="392" y="991" on="0"/>
        <pt x="254" y="936" on="1"/>
        <pt x="218" y="922" on="0"/>
        <pt x="199" y="908" on="1"/>
        <pt x="145" y="1052" on="1"/>
        <pt x="231" y="1106" on="0"/>
        <pt x="430" y="1144" on="1"/>
        <pt x="498" y="1157" on="0"/>
        <pt x="655" y="1157" on="0"/>
        <pt x="804" y="1128" on="0"/>
        <pt x="858" y="1088" on="1"/>
        <pt x="970" y="1004" on="0"/>
        <pt x="970" y="794" on="1"/>
        <pt x="970" y="-16" on="1"/>
        <pt x="955" y="-16" on="1"/>
        <pt x="775" y="-130" on="0"/>
        <pt x="775" y="-254" on="1"/>
        <pt x="775" y="-364" on="0"/>
        <pt x="903" y="-364" on="1"/>
        <pt x="968" y="-364" on="0"/>
        <pt x="1042" y="-335" on="1"/>
        <pt x="1042" y="-453" on="1"/>
        <pt x="965" y="-512" on="0"/>
        <pt x="805" y="-512" on="1"/>
        <pt x="635" y="-512" on="0"/>
        <pt x="578" y="-392" on="1"/>
        <pt x="559" y="-353" on="0"/>
        <pt x="558" y="-258" on="0"/>
        <pt x="598" y="-170" on="0"/>
        <pt x="631" y="-130" on="1"/>
        <pt x="697" y="-51" on="0"/>
      </contour>
      <contour>
        <pt x="311" y="324" on="1"/>
        <pt x="311" y="148" on="0"/>
        <pt x="508" y="148" on="1"/>
        <pt x="617" y="148" on="0"/>
        <pt x="716" y="205" on="1"/>
        <pt x="741" y="219" on="0"/>
        <pt x="750" y="229" on="1"/>
        <pt x="750" y="548" on="1"/>
        <pt x="633" y="548" on="0"/>
        <pt x="469" y="508" on="0"/>
        <pt x="410" y="480" on="0"/>
        <pt x="364" y="449" on="0"/>
        <pt x="347" y="428" on="1"/>
        <pt x="311" y="385" on="0"/>
      </contour>
    </TTGlyph>
    <TTGlyph name="approxequal" xMin="216" yMin="256" xMax="1221" yMax="1070">
      <component glyphName="asciitilde" x="0" y="-358" flags="0x1204"/>
      <component glyphName="asciitilde" x="0" y="100" flags="0x1004"/>
    </TTGlyph>
    <TTGlyph name="aring" xMin="94" yMin="-16" xMax="970" yMax="1873">
      <component glyphName="a" x="0" y="0" flags="0x1204"/>
      <component glyphName="ring" x="201" y="0" flags="0x1004"/>
    </TTGlyph>
    <TTGlyph name="asciicircum" xMin="185" yMin="490" xMax="1178" yMax="1531">
      <contour>
        <pt x="579" y="1531" on="1"/>
        <pt x="784" y="1531" on="1"/>
        <pt x="1178" y="490" on="1"/>
        <pt x="967" y="490" on="1"/>
        <pt x="681" y="1288" on="1"/>
        <pt x="396" y="490" on="1"/>
        <pt x="185" y="490" on="1"/>
      </contour>
    </TTGlyph>
    <TTGlyph name="asciitilde" xMin="216" yMin="614" xMax="1221" yMax="970">
      <contour>
        <pt x="916" y="802" on="1"/>
        <pt x="1034" y="802" on="0"/>
        <pt x="1118" y="916" on="1"/>
        <pt x="1221" y="817" on="1"/>
        <pt x="1168" y="679" on="0"/>
        <pt x="1020" y="631" on="1"/>
        <pt x="968" y="614" on="0"/>
        <pt x="856" y="614" on="0"/>
        <pt x="782" y="639" on="0"/>
        <pt x="721" y="677" on="0"/>
        <pt x="669" y="720" on="0"/>
        <pt x="643" y="739" on="1"/>
        <pt x="583" y="783" on="0"/>
        <pt x="489" y="783" on="0"/>
        <pt x="433" y="765" on="0"/>
        <pt x="410" y="750" on="1"/>
        <pt x="374" y="727" on="0"/>
        <pt x="331" y="669" on="1"/>
        <pt x="216" y="758" on="1"/>
        <pt x="246" y="836" on="0"/>
        <pt x="324" y="896" on="1"/>
        <pt x="421" y="970" on="0"/>
        <pt x="532" y="970" on="1"/>
        <pt x="643" y="970" on="0"/>
        <pt x="846" y="802" on="0"/>
      </contour>
    </TTGlyph>
    <TTGlyph name="asterisk" xMin="117" yMin="647" xMax="1091" yMax="1660">
      <contour>
        <pt x="559" y="1228" on="1"/>
        <pt x="520" y="1395" on="1"/>
        <pt x="501" y="1660" on="1"/>
        <pt x="693" y="1660" on="1"/>
        <pt x="680" y="1398" on="1"/>
        <pt x="646" y="1230" on="1"/>
        <pt x="665" y="1249" on="0"/>
        <pt x="692" y="1274" on="0"/>
        <pt x="723" y="1303" on="0"/>
        <pt x="736" y="1316" on="1"/>
        <pt x="768" y="1347" on="0"/>
        <pt x="771" y="1348" on="1"/>
        <pt x="991" y="1494" on="1"/>
        <pt x="1086" y="1331" on="1"/>
        <pt x="854" y="1210" on="1"/>
        <pt x="690" y="1155" on="1"/>
        <pt x="855" y="1106" on="1"/>
        <pt x="1091" y="991" on="1"/>
        <pt x="994" y="821" on="1"/>
        <pt x="777" y="965" on="1"/>
        <pt x="646" y="1078" on="1"/>
        <pt x="685" y="910" on="1"/>
        <pt x="706" y="648" on="1"/>
        <pt x="514" y="647" on="1"/>
        <pt x="526" y="910" on="1"/>
        <pt x="561" y="1080" on="1"/>
        <pt x="435" y="959" on="1"/>
        <pt x="217" y="813" on="1"/>
        <pt x="121" y="977" on="1"/>
        <pt x="352" y="1101" on="1"/>
        <pt x="517" y="1154" on="1"/>
        <pt x="515" y="1155" on="0"/>
        <pt x="491" y="1162" on="0"/>
        <pt x="455" y="1173" on="0"/>
        <pt x="414" y="1185" on="0"/>
        <pt x="396" y="1190" on="1"/>
        <pt x="353" y="1202" on="0"/>
        <pt x="351" y="1203" on="1"/>
        <pt x="117" y="1321" on="1"/>
        <pt x="210" y="1486" on="1"/>
        <pt x="430" y="1341" on="1"/>
      </contour>
    </TTGlyph>
    <TTGlyph name="at" xMin="213" yMin="-478" xMax="2008" yMax="1543">
      <contour>
        <pt x="1503" y="-246" on="1"/>
        <pt x="1542" y="-375" on="1"/>
        <pt x="1433" y="-443" on="0"/>
        <pt x="1216" y="-470" on="1"/>
        <pt x="1145" y="-478" on="0"/>
        <pt x="1073" y="-478" on="1"/>
        <pt x="692" y="-478" on="0"/>
        <pt x="462" y="-256" on="1"/>
        <pt x="213" y="-16" on="0"/>
        <pt x="213" y="424" on="1"/>
        <pt x="213" y="755" on="0"/>
        <pt x="352" y="1014" on="1"/>
        <pt x="484" y="1263" on="0"/>
        <pt x="722" y="1403" on="1"/>
        <pt x="959" y="1543" on="0"/>
        <pt x="1252" y="1543" on="1"/>
        <pt x="1593" y="1543" on="0"/>
        <pt x="1797" y="1358" on="1"/>
        <pt x="2008" y="1168" on="0"/>
        <pt x="2008" y="832" on="1"/>
        <pt x="2008" y="452" on="0"/>
        <pt x="1830" y="215" on="1"/>
        <pt x="1724" y="73" on="0"/>
        <pt x="1579" y="20" on="1"/>
        <pt x="1509" y="-5" on="0"/>
        <pt x="1438" y="-5" on="1"/>
        <pt x="1283" y="-5" on="0"/>
        <pt x="1286" y="238" on="1"/>
        <pt x="1287" y="270" on="0"/>
        <pt x="1292" y="313" on="1"/>
        <pt x="1176" y="91" on="0"/>
        <pt x="1029" y="20" on="1"/>
        <pt x="976" y="-5" on="0"/>
        <pt x="868" y="-5" on="0"/>
        <pt x="817" y="22" on="1"/>
        <pt x="707" y="78" on="0"/>
        <pt x="660" y="240" on="1"/>
        <pt x="637" y="316" on="0"/>
        <pt x="637" y="426" on="0"/>
        <pt x="639" y="504" on="0"/>
        <pt x="669" y="651" on="0"/>
        <pt x="729" y="791" on="0"/>
        <pt x="820" y="915" on="0"/>
        <pt x="882" y="962" on="1"/>
        <pt x="1016" y="1063" on="0"/>
        <pt x="1347" y="1063" on="0"/>
        <pt x="1427" y="1008" on="1"/>
        <pt x="1599" y="1039" on="1"/>
        <pt x="1523" y="761" on="0"/>
        <pt x="1453" y="310" on="0"/>
        <pt x="1453" y="154" on="0"/>
        <pt x="1527" y="154" on="0"/>
        <pt x="1606" y="200" on="0"/>
        <pt x="1682" y="283" on="0"/>
        <pt x="1750" y="400" on="0"/>
        <pt x="1776" y="471" on="1"/>
        <pt x="1831" y="626" on="0"/>
        <pt x="1831" y="917" on="0"/>
        <pt x="1787" y="1101" on="0"/>
        <pt x="1707" y="1234" on="0"/>
        <pt x="1594" y="1323" on="0"/>
        <pt x="1526" y="1349" on="1"/>
        <pt x="1399" y="1397" on="0"/>
        <pt x="1100" y="1397" on="0"/>
        <pt x="890" y="1334" on="0"/>
        <pt x="707" y="1216" on="0"/>
        <pt x="556" y="1048" on="0"/>
        <pt x="502" y="942" on="1"/>
        <pt x="389" y="720" on="0"/>
        <pt x="389" y="445" on="1"/>
        <pt x="389" y="-80" on="0"/>
        <pt x="748" y="-256" on="1"/>
        <pt x="898" y="-330" on="0"/>
        <pt x="1335" y="-330" on="0"/>
      </contour>
      <contour>
        <pt x="825" y="445" on="1"/>
        <pt x="825" y="172" on="0"/>
        <pt x="965" y="172" on="1"/>
        <pt x="1030" y="172" on="0"/>
        <pt x="1120" y="294" on="1"/>
        <pt x="1248" y="469" on="0"/>
        <pt x="1322" y="710" on="1"/>
        <pt x="1344" y="782" on="0"/>
        <pt x="1352" y="839" on="1"/>
        <pt x="1320" y="895" on="0"/>
        <pt x="1223" y="910" on="1"/>
        <pt x="1197" y="914" on="0"/>
        <pt x="1175" y="914" on="1"/>
        <pt x="1021" y="914" on="0"/>
        <pt x="920" y="771" on="1"/>
        <pt x="825" y="637" on="0"/>
      </contour>
    </TTGlyph>
    <TTGlyph name="atilde" xMin="94" yMin="-16" xMax="981" yMax="1648">
      <component glyphName="a" x="0" y="0" flags="0x1204"/>
      <component glyphName="tilde" x="100" y="0" flags="0x1004"/>
    </TTGlyph>
    <TTGlyph name="b" xMin="166" yMin="-18" xMax="1141" yMax="1661">
      <contour>
        <pt x="378" y="1030" on="1"/>
        <pt x="504" y="1156" on="0"/>
        <pt x="691" y="1156" on="1"/>
        <pt x="883" y="1156" on="0"/>
        <pt x="1006" y="1022" on="1"/>
        <pt x="1141" y="876" on="0"/>
        <pt x="1141" y="612" on="1"/>
        <pt x="1141" y="333" on="0"/>
        <pt x="984" y="158" on="1"/>
        <pt x="824" y="-18" on="0"/>
        <pt x="566" y="-18" on="1"/>
        <pt x="395" y="-18" on="0"/>
        <pt x="224" y="39" on="1"/>
        <pt x="182" y="53" on="0"/>
        <pt x="166" y="64" on="1"/>
        <pt x="166" y="1661" on="1"/>
        <pt x="386" y="1661" on="1"/>
        <pt x="386" y="1189" on="1"/>
      </contour>
      <contour>
        <pt x="630" y="983" on="1"/>
        <pt x="506" y="983" on="0"/>
        <pt x="386" y="890" on="1"/>
        <pt x="386" y="184" on="1"/>
        <pt x="443" y="144" on="0"/>
        <pt x="591" y="144" on="1"/>
        <pt x="734" y="144" on="0"/>
        <pt x="822" y="256" on="1"/>
        <pt x="917" y="377" on="0"/>
        <pt x="917" y="592" on="1"/>
        <pt x="917" y="983" on="0"/>
      </contour>
    </TTGlyph>
    <TTGlyph name="backslash" xMin="41" yMin="-363" xMax="810" yMax="1599">
      <component glyphName="slash" x="852" y="0" scalex="-0.999938964844" scaley="1.0" flags="0x1004"/>
    </TTGlyph>
    <TTGlyph name="bar" xMin="326" yMin="-188" xMax="529" yMax="1780">
      <contour>
        <pt x="326" y="1780" on="1"/>
        <pt x="529" y="1780" on="1"/>
        <pt x="529" y="-188" on="1"/>
        <pt x="326" y="-188" on="1"/>
      </contour>
    </TTGlyph>
    <TTGlyph name="braceleft" xMin="75" yMin="-196" xMax="802" yMax="1742">
      <contour>
        <pt x="802" y="-161" on="1"/>
        <pt x="676" y="-196" on="0"/>
        <pt x="467" y="-196" on="0"/>
        <pt x="391" y="-171" on="0"/>
        <pt x="368" y="-142" on="1"/>
        <pt x="327" y="-87" on="0"/>
        <pt x="327" y="60" on="1"/>
        <pt x="327" y="571" on="1"/>
        <pt x="327" y="614" on="0"/>
        <pt x="239" y="656" on="1"/>
        <pt x="155" y="698" on="0"/>
        <pt x="75" y="706" on="1"/>
        <pt x="75" y="848" on="1"/>
        <pt x="162" y="857" on="0"/>
        <pt x="220" y="884" on="1"/>
        <pt x="327" y="933" on="0"/>
        <pt x="327" y="975" on="1"/>
        <pt x="327" y="1486" on="1"/>
        <pt x="327" y="1633" on="0"/>
        <pt x="410" y="1742" on="0"/>
        <pt x="610" y="1742" on="0"/>
        <pt x="802" y="1718" on="1"/>
        <pt x="802" y="1596" on="1"/>
        <pt x="536" y="1596" on="1"/>
        <pt x="536" y="976" on="1"/>
        <pt x="536" y="887" on="0"/>
        <pt x="406" y="824" on="1"/>
        <pt x="352" y="799" on="0"/>
        <pt x="295" y="776" on="1"/>
        <pt x="536" y="680" on="0"/>
        <pt x="536" y="572" on="1"/>
        <pt x="536" y="-49" on="1"/>
        <pt x="802" y="-49" on="1"/>
      </contour>
    </TTGlyph>
    <TTGlyph name="braceright" xMin="169" yMin="-196" xMax="897" yMax="1742">
      <component glyphName="braceleft" x="972" y="0" scalex="-0.999938964844" scaley="1.0" flags="0x1004"/>
    </TTGlyph>
    <TTGlyph name="bracketleft" xMin="185" yMin="-191" xMax="665" yMax="1737">
      <contour>
        <pt x="665" y="-167" on="1"/>
        <pt x="487" y="-191" on="0"/>
        <pt x="317" y="-191" on="0"/>
        <pt x="243" y="-168" on="0"/>
        <pt x="222" y="-140" on="1"/>
        <pt x="185" y="-89" on="0"/>
        <pt x="185" y="60" on="1"/>
        <pt x="185" y="1486" on="1"/>
        <pt x="185" y="1635" on="0"/>
        <pt x="222" y="1686" on="1"/>
        <pt x="260" y="1737" on="0"/>
        <pt x="375" y="1737" on="1"/>
        <pt x="484" y="1737" on="0"/>
        <pt x="628" y="1717" on="0"/>
        <pt x="665" y="1713" on="1"/>
        <pt x="665" y="1593" on="1"/>
        <pt x="397" y="1593" on="1"/>
        <pt x="397" y="-49" on="1"/>
        <pt x="665" y="-51" on="1"/>
      </contour>
    </TTGlyph>
    <TTGlyph name="bracketright" xMin="171" yMin="-191" xMax="652" yMax="1737">
      <component glyphName="bracketleft" x="837" y="0" scalex="-0.999938964844" scaley="1.0" flags="0x1004"/>
    </TTGlyph>
    <TTGlyph name="breve" xMin="47" yMin="1308" xMax="737" yMax="1685">
      <contour>
        <pt x="606" y="1372" on="0"/>
        <pt x="473" y="1308" on="0"/>
        <pt x="306" y="1308" on="0"/>
        <pt x="240" y="1340" on="1"/>
        <pt x="108" y="1403" on="0"/>
        <pt x="64" y="1546" on="1"/>
        <pt x="48" y="1599" on="0"/>
        <pt x="48" y="1669" on="0"/>
        <pt x="49" y="1685" on="1"/>
        <pt x="203" y="1685" on="1"/>
        <pt x="203" y="1539" on="0"/>
        <pt x="312" y="1494" on="1"/>
        <pt x="345" y="1480" on="0"/>
        <pt x="440" y="1480" on="0"/>
        <pt x="506" y="1507" on="0"/>
        <pt x="548" y="1548" on="0"/>
        <pt x="571" y="1597" on="0"/>
        <pt x="577" y="1620" on="1"/>
        <pt x="585" y="1651" on="0"/>
        <pt x="585" y="1685" on="1"/>
        <pt x="735" y="1685" on="1"/>
        <pt x="736" y="1670" on="0"/>
        <pt x="736" y="1599" on="0"/>
        <pt x="697" y="1478" on="0"/>
      </contour>
    </TTGlyph>
    <TTGlyph name="breve.cap" xMin="47" yMin="1632" xMax="735" yMax="1970">
      <contour>
        <pt x="606" y="1687" on="0"/>
        <pt x="473" y="1632" on="0"/>
        <pt x="304" y="1632" on="0"/>
        <pt x="238" y="1660" on="1"/>
        <pt x="104" y="1715" on="0"/>
        <pt x="63" y="1841" on="1"/>
        <pt x="48" y="1888" on="0"/>
        <pt x="48" y="1954" on="0"/>
        <pt x="49" y="1970" on="1"/>
        <pt x="202" y="1970" on="1"/>
        <pt x="202" y="1851" on="0"/>
        <pt x="311" y="1816" on="1"/>
        <pt x="343" y="1805" on="0"/>
        <pt x="438" y="1805" on="0"/>
        <pt x="504" y="1826" on="0"/>
        <pt x="547" y="1859" on="0"/>
        <pt x="570" y="1898" on="0"/>
        <pt x="576" y="1916" on="1"/>
        <pt x="584" y="1945" on="0"/>
        <pt x="584" y="1970" on="1"/>
        <pt x="733" y="1970" on="1"/>
        <pt x="734" y="1955" on="0"/>
        <pt x="734" y="1889" on="0"/>
        <pt x="696" y="1780" on="0"/>
      </contour>
    </TTGlyph>
    <TTGlyph name="brokenbar" xMin="326" yMin="-186" xMax="529" yMax="1780">
      <contour>
        <pt x="326" y="1780" on="1"/>
        <pt x="529" y="1780" on="1"/>
        <pt x="529" y="950" on="1"/>
        <pt x="326" y="950" on="1"/>
      </contour>
      <contour>
        <pt x="326" y="641" on="1"/>
        <pt x="529" y="641" on="1"/>
        <pt x="529" y="-186" on="1"/>
        <pt x="326" y="-186" on="1"/>
      </contour>
    </TTGlyph>
    <TTGlyph name="bullet" xMin="206" yMin="499" xMax="649" yMax="952">
      <contour>
        <pt x="418" y="499" on="1"/>
        <pt x="326" y="499" on="0"/>
        <pt x="264" y="566" on="1"/>
        <pt x="207" y="629" on="0"/>
        <pt x="207" y="710" on="1"/>
        <pt x="207" y="814" on="0"/>
        <pt x="280" y="886" on="1"/>
        <pt x="349" y="952" on="0"/>
        <pt x="438" y="952" on="1"/>
        <pt x="529" y="952" on="0"/>
        <pt x="590" y="887" on="1"/>
        <pt x="648" y="826" on="0"/>
        <pt x="648" y="743" on="1"/>
        <pt x="648" y="638" on="0"/>
        <pt x="576" y="566" on="1"/>
        <pt x="507" y="499" on="0"/>
      </contour>
    </TTGlyph>
    <TTGlyph name="c" xMin="97" yMin="-16" xMax="948" yMax="1156">
      <contour>
        <pt x="893" y="923" on="1"/>
        <pt x="804" y="986" on="0"/>
        <pt x="637" y="986" on="1"/>
        <pt x="506" y="986" on="0"/>
        <pt x="418" y="896" on="1"/>
        <pt x="309" y="783" on="0"/>
        <pt x="309" y="566" on="1"/>
        <pt x="309" y="379" on="0"/>
        <pt x="486" y="150" on="0"/>
        <pt x="631" y="150" on="1"/>
        <pt x="745" y="150" on="0"/>
        <pt x="855" y="194" on="1"/>
        <pt x="884" y="205" on="0"/>
        <pt x="903" y="217" on="1"/>
        <pt x="948" y="92" on="1"/>
        <pt x="831" y="-16" on="0"/>
        <pt x="598" y="-16" on="1"/>
        <pt x="364" y="-16" on="0"/>
        <pt x="227" y="149" on="1"/>
        <pt x="97" y="305" on="0"/>
        <pt x="97" y="558" on="1"/>
        <pt x="97" y="821" on="0"/>
        <pt x="235" y="983" on="1"/>
        <pt x="382" y="1156" on="0"/>
        <pt x="648" y="1156" on="1"/>
        <pt x="836" y="1156" on="0"/>
        <pt x="928" y="1097" on="1"/>
      </contour>
    </TTGlyph>
    <TTGlyph name="cacute" xMin="97" yMin="-16" xMax="976" yMax="1783">
      <component glyphName="acute" x="432" y="0" flags="0x1004"/>
      <component glyphName="c" x="0" y="0" flags="0x1004"/>
    </TTGlyph>
    <TTGlyph name="caron" xMin="47" yMin="1293" xMax="789" yMax="1682">
      <contour>
        <pt x="47" y="1626" on="1"/>
        <pt x="173" y="1682" on="1"/>
        <pt x="422" y="1459" on="1"/>
        <pt x="654" y="1681" on="1"/>
        <pt x="789" y="1625" on="1"/>
        <pt x="521" y="1293" on="1"/>
        <pt x="323" y="1293" on="1"/>
      </contour>
    </TTGlyph>
    <TTGlyph name="caron.cap" xMin="48" yMin="1670" xMax="733" yMax="1990">
      <contour>
        <pt x="48" y="1930" on="1"/>
        <pt x="176" y="1990" on="1"/>
        <pt x="392" y="1816" on="1"/>
        <pt x="613" y="1990" on="1"/>
        <pt x="733" y="1933" on="1"/>
        <pt x="491" y="1670" on="1"/>
        <pt x="294" y="1670" on="1"/>
      </contour>
    </TTGlyph>
    <TTGlyph name="caronvertical" xMin="50" yMin="1034" xMax="302" yMax="1687">
      <contour>
        <pt x="240" y="1687" on="1"/>
        <pt x="302" y="1629" on="0"/>
        <pt x="302" y="1446" on="1"/>
        <pt x="302" y="1258" on="0"/>
        <pt x="222" y="1106" on="1"/>
        <pt x="199" y="1063" on="0"/>
        <pt x="175" y="1034" on="1"/>
        <pt x="65" y="1068" on="1"/>
        <pt x="57" y="1096" on="1"/>
        <pt x="65" y="1124" on="0"/>
        <pt x="82" y="1175" on="0"/>
        <pt x="89" y="1206" on="1"/>
        <pt x="105" y="1278" on="0"/>
        <pt x="105" y="1413" on="0"/>
        <pt x="95" y="1474" on="0"/>
        <pt x="87" y="1502" on="1"/>
        <pt x="71" y="1556" on="0"/>
        <pt x="50" y="1585" on="1"/>
        <pt x="64" y="1632" on="1"/>
      </contour>
    </TTGlyph>
    <TTGlyph name="ccaron" xMin="97" yMin="-16" xMax="982" yMax="1710">
      <component glyphName="caron" x="193" y="28" flags="0x1004"/>
      <component glyphName="c" x="0" y="0" flags="0x1004"/>
    </TTGlyph>
    <TTGlyph name="ccedilla" xMin="97" yMin="-464" xMax="948" yMax="1156">
      <contour>
        <pt x="303" y="-294" on="1"/>
        <pt x="326" y="-308" on="0"/>
        <pt x="385" y="-308" on="1"/>
        <pt x="517" y="-308" on="0"/>
        <pt x="517" y="-87" on="1"/>
        <pt x="517" y="-42" on="0"/>
        <pt x="507" y="-8" on="1"/>
        <pt x="313" y="23" on="0"/>
        <pt x="203" y="180" on="1"/>
        <pt x="97" y="332" on="0"/>
        <pt x="97" y="558" on="1"/>
        <pt x="97" y="821" on="0"/>
        <pt x="235" y="983" on="1"/>
        <pt x="382" y="1156" on="0"/>
        <pt x="648" y="1156" on="1"/>
        <pt x="836" y="1156" on="0"/>
        <pt x="928" y="1097" on="1"/>
        <pt x="893" y="923" on="1"/>
        <pt x="804" y="986" on="0"/>
        <pt x="637" y="986" on="1"/>
        <pt x="506" y="986" on="0"/>
        <pt x="418" y="896" on="1"/>
        <pt x="309" y="783" on="0"/>
        <pt x="309" y="566" on="1"/>
        <pt x="309" y="379" on="0"/>
        <pt x="486" y="150" on="0"/>
        <pt x="631" y="150" on="1"/>
        <pt x="745" y="150" on="0"/>
        <pt x="855" y="194" on="1"/>
        <pt x="884" y="205" on="0"/>
        <pt x="903" y="217" on="1"/>
        <pt x="948" y="92" on="1"/>
        <pt x="849" y="-1" on="0"/>
        <pt x="647" y="-14" on="1"/>
        <pt x="677" y="-79" on="0"/>
        <pt x="677" y="-178" on="1"/>
        <pt x="677" y="-401" on="0"/>
        <pt x="519" y="-451" on="1"/>
        <pt x="478" y="-464" on="0"/>
        <pt x="415" y="-464" on="0"/>
        <pt x="370" y="-460" on="0"/>
        <pt x="350" y="-456" on="1"/>
        <pt x="304" y="-447" on="0"/>
        <pt x="288" y="-436" on="1"/>
      </contour>
    </TTGlyph>
    <TTGlyph name="ccircumflex" xMin="97" yMin="-16" xMax="980" yMax="1682">
      <component glyphName="circumflex" x="191" y="0" flags="0x1004"/>
      <component glyphName="c" x="0" y="0" flags="0x1004"/>
    </TTGlyph>
    <TTGlyph name="cdotaccent" xMin="97" yMin="-16" xMax="948" yMax="1638">
      <component glyphName="c" x="0" y="0" flags="0x1204"/>
      <component glyphName="dotaccent" x="410" y="0" flags="0x1004"/>
    </TTGlyph>
    <TTGlyph name="cedilla" xMin="47" yMin="-464" xMax="436" yMax="34">
      <contour>
        <pt x="276" y="-94" on="1"/>
        <pt x="276" y="-24" on="0"/>
        <pt x="251" y="30" on="1"/>
        <pt x="334" y="34" on="1"/>
        <pt x="377" y="30" on="1"/>
        <pt x="436" y="-32" on="0"/>
        <pt x="436" y="-180" on="1"/>
        <pt x="436" y="-401" on="0"/>
        <pt x="278" y="-451" on="1"/>
        <pt x="237" y="-464" on="0"/>
        <pt x="174" y="-464" on="0"/>
        <pt x="129" y="-460" on="0"/>
        <pt x="109" y="-456" on="1"/>
        <pt x="63" y="-447" on="0"/>
        <pt x="47" y="-436" on="1"/>
        <pt x="62" y="-294" on="1"/>
        <pt x="85" y="-308" on="0"/>
        <pt x="144" y="-308" on="1"/>
        <pt x="276" y="-308" on="0"/>
      </contour>
    </TTGlyph>
    <TTGlyph name="cent" xMin="157" yMin="-216" xMax="1008" yMax="1377">
      <contour>
        <pt x="953" y="923" on="1"/>
        <pt x="864" y="986" on="0"/>
        <pt x="697" y="986" on="1"/>
        <pt x="566" y="986" on="0"/>
        <pt x="478" y="896" on="1"/>
        <pt x="369" y="783" on="0"/>
        <pt x="369" y="566" on="1"/>
        <pt x="369" y="379" on="0"/>
        <pt x="546" y="150" on="0"/>
        <pt x="691" y="150" on="1"/>
        <pt x="805" y="150" on="0"/>
        <pt x="915" y="194" on="1"/>
        <pt x="944" y="205" on="0"/>
        <pt x="963" y="217" on="1"/>
        <pt x="1008" y="92" on="1"/>
        <pt x="917" y="7" on="0"/>
        <pt x="734" y="-12" on="1"/>
        <pt x="731" y="-216" on="1"/>
        <pt x="581" y="-216" on="1"/>
        <pt x="585" y="-11" on="1"/>
        <pt x="382" y="15" on="0"/>
        <pt x="268" y="174" on="1"/>
        <pt x="157" y="327" on="0"/>
        <pt x="157" y="558" on="1"/>
        <pt x="157" y="798" on="0"/>
        <pt x="272" y="954" on="1"/>
        <pt x="393" y="1121" on="0"/>
        <pt x="617" y="1150" on="1"/>
        <pt x="623" y="1377" on="1"/>
        <pt x="772" y="1377" on="1"/>
        <pt x="767" y="1154" on="1"/>
        <pt x="917" y="1143" on="0"/>
        <pt x="988" y="1097" on="1"/>
      </contour>
    </TTGlyph>
    <TTGlyph name="circumflex" xMin="47" yMin="1293" xMax="789" yMax="1682">
      <contour>
        <pt x="47" y="1349" on="1"/>
        <pt x="323" y="1682" on="1"/>
        <pt x="521" y="1682" on="1"/>
        <pt x="789" y="1350" on="1"/>
        <pt x="654" y="1294" on="1"/>
        <pt x="422" y="1516" on="1"/>
        <pt x="173" y="1293" on="1"/>
      </contour>
    </TTGlyph>
    <TTGlyph name="circumflex.cap" xMin="48" yMin="1632" xMax="766" yMax="1990">
      <contour>
        <pt x="48" y="1689" on="1"/>
        <pt x="307" y="1990" on="1"/>
        <pt x="504" y="1990" on="1"/>
        <pt x="766" y="1692" on="1"/>
        <pt x="622" y="1632" on="1"/>
        <pt x="406" y="1834" on="1"/>
        <pt x="185" y="1632" on="1"/>
      </contour>
    </TTGlyph>
    <TTGlyph name="colon" xMin="146" yMin="-22" xMax="456" yMax="1100">
      <component glyphName="period" x="0" y="0" flags="0x1204"/>
      <component glyphName="period" x="0" y="796" flags="0x1004"/>
    </TTGlyph>
    <TTGlyph name="comma" xMin="151" yMin="-500" xMax="490" yMax="271">
      <contour>
        <pt x="160" y="140" on="1"/>
        <pt x="299" y="271" on="1"/>
        <pt x="396" y="234" on="0"/>
        <pt x="447" y="132" on="1"/>
        <pt x="490" y="47" on="0"/>
        <pt x="490" y="-136" on="0"/>
        <pt x="447" y="-281" on="0"/>
        <pt x="410" y="-339" on="1"/>
        <pt x="335" y="-458" on="0"/>
        <pt x="225" y="-500" on="1"/>
        <pt x="151" y="-408" on="1"/>
        <pt x="151" y="-382" on="1"/>
        <pt x="240" y="-338" on="0"/>
        <pt x="272" y="-208" on="1"/>
        <pt x="282" y="-167" on="0"/>
        <pt x="282" y="-93" on="0"/>
        <pt x="262" y="-24" on="0"/>
        <pt x="245" y="6" on="1"/>
        <pt x="207" y="71" on="0"/>
        <pt x="160" y="77" on="1"/>
      </contour>
    </TTGlyph>
    <TTGlyph name="commaaccent" xMin="40" yMin="-560" xMax="295" yMax="-82">
      <contour>
        <pt x="68" y="-493" on="1"/>
        <pt x="107" y="-446" on="0"/>
        <pt x="107" y="-348" on="1"/>
        <pt x="107" y="-281" on="0"/>
        <pt x="68" y="-240" on="1"/>
        <pt x="55" y="-227" on="0"/>
        <pt x="40" y="-224" on="1"/>
        <pt x="40" y="-174" on="1"/>
        <pt x="198" y="-82" on="1"/>
        <pt x="261" y="-114" on="0"/>
        <pt x="286" y="-217" on="1"/>
        <pt x="295" y="-252" on="0"/>
        <pt x="295" y="-346" on="0"/>
        <pt x="265" y="-434" on="0"/>
        <pt x="242" y="-468" on="1"/>
        <pt x="199" y="-536" on="0"/>
        <pt x="143" y="-560" on="1"/>
        <pt x="68" y="-519" on="1"/>
      </contour>
    </TTGlyph>
    <TTGlyph name="copyright" xMin="194" yMin="82" xMax="1935" yMax="1840">
      <contour>
        <pt x="194" y="962" on="1"/>
        <pt x="194" y="1084" on="0"/>
        <pt x="255" y="1309" on="0"/>
        <pt x="368" y="1504" on="0"/>
        <pt x="526" y="1664" on="0"/>
        <pt x="622" y="1721" on="1"/>
        <pt x="824" y="1840" on="0"/>
        <pt x="1064" y="1840" on="1"/>
        <pt x="1303" y="1840" on="0"/>
        <pt x="1506" y="1721" on="1"/>
        <pt x="1703" y="1605" on="0"/>
        <pt x="1817" y="1406" on="1"/>
        <pt x="1935" y="1201" on="0"/>
        <pt x="1935" y="963" on="1"/>
        <pt x="1935" y="724" on="0"/>
        <pt x="1817" y="518" on="1"/>
        <pt x="1641" y="210" on="0"/>
        <pt x="1297" y="114" on="1"/>
        <pt x="1185" y="82" on="0"/>
        <pt x="1064" y="82" on="1"/>
        <pt x="826" y="82" on="0"/>
        <pt x="622" y="202" on="1"/>
        <pt x="427" y="317" on="0"/>
        <pt x="312" y="518" on="1"/>
        <pt x="194" y="722" on="0"/>
      </contour>
      <contour>
        <pt x="361" y="1162" on="1"/>
        <pt x="336" y="1066" on="0"/>
        <pt x="336" y="859" on="0"/>
        <pt x="386" y="668" on="0"/>
        <pt x="478" y="500" on="0"/>
        <pt x="608" y="363" on="0"/>
        <pt x="689" y="314" on="1"/>
        <pt x="859" y="211" on="0"/>
        <pt x="1064" y="211" on="1"/>
        <pt x="1269" y="211" on="0"/>
        <pt x="1439" y="314" on="1"/>
        <pt x="1689" y="465" on="0"/>
        <pt x="1767" y="764" on="1"/>
        <pt x="1792" y="859" on="0"/>
        <pt x="1792" y="1066" on="0"/>
        <pt x="1742" y="1258" on="0"/>
        <pt x="1650" y="1425" on="0"/>
        <pt x="1520" y="1562" on="0"/>
        <pt x="1439" y="1611" on="1"/>
        <pt x="1269" y="1714" on="0"/>
        <pt x="1064" y="1714" on="1"/>
        <pt x="859" y="1714" on="0"/>
        <pt x="689" y="1611" on="1"/>
        <pt x="438" y="1459" on="0"/>
      </contour>
      <contour>
        <pt x="1335" y="697" on="1"/>
        <pt x="1380" y="573" on="1"/>
        <pt x="1267" y="479" on="0"/>
        <pt x="1061" y="479" on="1"/>
        <pt x="861" y="479" on="0"/>
        <pt x="738" y="624" on="1"/>
        <pt x="621" y="762" on="0"/>
        <pt x="621" y="956" on="1"/>
        <pt x="621" y="1175" on="0"/>
        <pt x="748" y="1308" on="1"/>
        <pt x="884" y="1450" on="0"/>
        <pt x="1117" y="1450" on="1"/>
        <pt x="1251" y="1450" on="0"/>
        <pt x="1355" y="1394" on="1"/>
        <pt x="1323" y="1230" on="1"/>
        <pt x="1225" y="1293" on="0"/>
        <pt x="1098" y="1293" on="1"/>
        <pt x="964" y="1293" on="0"/>
        <pt x="888" y="1200" on="1"/>
        <pt x="815" y="1111" on="0"/>
        <pt x="815" y="971" on="1"/>
        <pt x="815" y="812" on="0"/>
        <pt x="892" y="722" on="1"/>
        <pt x="966" y="636" on="0"/>
        <pt x="1230" y="636" on="0"/>
      </contour>
    </TTGlyph>
    <TTGlyph name="currency" xMin="199" yMin="181" xMax="1335" yMax="1365">
      <contour>
        <pt x="764" y="331" on="1"/>
        <pt x="640" y="331" on="0"/>
        <pt x="537" y="393" on="1"/>
        <pt x="326" y="181" on="1"/>
        <pt x="199" y="308" on="1"/>
        <pt x="405" y="514" on="1"/>
        <pt x="322" y="631" on="0"/>
        <pt x="322" y="916" on="0"/>
        <pt x="404" y="1030" on="1"/>
        <pt x="199" y="1235" on="1"/>
        <pt x="325" y="1363" on="1"/>
        <pt x="535" y="1151" on="1"/>
        <pt x="640" y="1215" on="0"/>
        <pt x="764" y="1215" on="1"/>
        <pt x="884" y="1215" on="0"/>
        <pt x="993" y="1151" on="1"/>
        <pt x="1208" y="1365" on="1"/>
        <pt x="1335" y="1238" on="1"/>
        <pt x="1126" y="1029" on="1"/>
        <pt x="1207" y="914" on="0"/>
        <pt x="1207" y="773" on="1"/>
        <pt x="1207" y="632" on="0"/>
        <pt x="1126" y="517" on="1"/>
        <pt x="1331" y="312" on="1"/>
        <pt x="1204" y="185" on="1"/>
        <pt x="994" y="395" on="1"/>
        <pt x="889" y="331" on="0"/>
      </contour>
      <contour>
        <pt x="765" y="495" on="1"/>
        <pt x="874" y="495" on="0"/>
        <pt x="952" y="577" on="1"/>
        <pt x="1029" y="658" on="0"/>
        <pt x="1029" y="773" on="1"/>
        <pt x="1029" y="888" on="0"/>
        <pt x="952" y="968" on="1"/>
        <pt x="874" y="1050" on="0"/>
        <pt x="765" y="1050" on="1"/>
        <pt x="655" y="1050" on="0"/>
        <pt x="577" y="968" on="1"/>
        <pt x="499" y="887" on="0"/>
        <pt x="499" y="773" on="1"/>
        <pt x="499" y="659" on="0"/>
        <pt x="577" y="577" on="1"/>
        <pt x="655" y="495" on="0"/>
      </contour>
    </TTGlyph>
    <TTGlyph name="d" xMin="97" yMin="-16" xMax="1071" yMax="1664">
      <contour>
        <pt x="863" y="112" on="1"/>
        <pt x="735" y="-16" on="0"/>
        <pt x="546" y="-16" on="1"/>
        <pt x="355" y="-16" on="0"/>
        <pt x="232" y="118" on="1"/>
        <pt x="97" y="264" on="0"/>
        <pt x="97" y="528" on="1"/>
        <pt x="97" y="807" on="0"/>
        <pt x="253" y="980" on="1"/>
        <pt x="411" y="1156" on="0"/>
        <pt x="668" y="1156" on="1"/>
        <pt x="767" y="1156" on="0"/>
        <pt x="854" y="1127" on="1"/>
        <pt x="851" y="1189" on="1"/>
        <pt x="851" y="1664" on="1"/>
        <pt x="1071" y="1664" on="1"/>
        <pt x="1071" y="-16" on="1"/>
        <pt x="976" y="-16" on="1"/>
        <pt x="917" y="-16" on="0"/>
        <pt x="898" y="-4" on="1"/>
        <pt x="863" y="17" on="0"/>
        <pt x="863" y="72" on="1"/>
      </contour>
      <contour>
        <pt x="851" y="946" on="1"/>
        <pt x="794" y="996" on="0"/>
        <pt x="646" y="996" on="1"/>
        <pt x="504" y="996" on="0"/>
        <pt x="416" y="884" on="1"/>
        <pt x="321" y="763" on="0"/>
        <pt x="321" y="556" on="1"/>
        <pt x="321" y="157" on="0"/>
        <pt x="607" y="157" on="1"/>
        <pt x="733" y="157" on="0"/>
        <pt x="851" y="249" on="1"/>
      </contour>
    </TTGlyph>
    <TTGlyph name="dagger" xMin="124" yMin="200" xMax="902" yMax="1658">
      <contour>
        <pt x="414" y="1128" on="1"/>
        <pt x="124" y="1125" on="1"/>
        <pt x="125" y="1288" on="1"/>
        <pt x="414" y="1284" on="1"/>
        <pt x="411" y="1658" on="1"/>
        <pt x="615" y="1658" on="1"/>
        <pt x="612" y="1284" on="1"/>
        <pt x="902" y="1288" on="1"/>
        <pt x="902" y="1125" on="1"/>
        <pt x="612" y="1128" on="1"/>
        <pt x="601" y="200" on="1"/>
        <pt x="425" y="200" on="1"/>
      </contour>
    </TTGlyph>
    <TTGlyph name="daggerdbl" xMin="124" yMin="-356" xMax="902" yMax="1658">
      <contour>
        <pt x="124" y="639" on="1"/>
        <pt x="413" y="636" on="1"/>
        <pt x="413" y="1128" on="1"/>
        <pt x="124" y="1125" on="1"/>
        <pt x="125" y="1288" on="1"/>
        <pt x="413" y="1285" on="1"/>
        <pt x="410" y="1658" on="1"/>
        <pt x="615" y="1658" on="1"/>
        <pt x="611" y="1285" on="1"/>
        <pt x="902" y="1288" on="1"/>
        <pt x="902" y="1125" on="1"/>
        <pt x="611" y="1128" on="1"/>
        <pt x="611" y="636" on="1"/>
        <pt x="901" y="639" on="1"/>
        <pt x="901" y="476" on="1"/>
        <pt x="611" y="479" on="1"/>
        <pt x="595" y="-356" on="1"/>
        <pt x="428" y="-356" on="1"/>
        <pt x="413" y="479" on="1"/>
        <pt x="124" y="476" on="1"/>
      </contour>
    </TTGlyph>
    <TTGlyph name="dcaron" xMin="97" yMin="-16" xMax="1545" yMax="1687">
      <component glyphName="d" x="0" y="0" flags="0x1004"/>
      <component glyphName="caronvertical" x="1243" y="0" flags="0x1004"/>
    </TTGlyph>
    <TTGlyph name="dcroat" xMin="97" yMin="-16" xMax="1212" yMax="1664">
      <contour>
        <pt x="863" y="112" on="1"/>
        <pt x="735" y="-16" on="0"/>
        <pt x="546" y="-16" on="1"/>
        <pt x="355" y="-16" on="0"/>
        <pt x="232" y="118" on="1"/>
        <pt x="97" y="264" on="0"/>
        <pt x="97" y="528" on="1"/>
        <pt x="97" y="807" on="0"/>
        <pt x="253" y="980" on="1"/>
        <pt x="411" y="1156" on="0"/>
        <pt x="668" y="1156" on="1"/>
        <pt x="767" y="1156" on="0"/>
        <pt x="854" y="1127" on="1"/>
        <pt x="851" y="1189" on="1"/>
        <pt x="851" y="1306" on="1"/>
        <pt x="581" y="1306" on="1"/>
        <pt x="581" y="1447" on="1"/>
        <pt x="851" y="1447" on="1"/>
        <pt x="851" y="1664" on="1"/>
        <pt x="1071" y="1664" on="1"/>
        <pt x="1071" y="1447" on="1"/>
        <pt x="1212" y="1447" on="1"/>
        <pt x="1212" y="1306" on="1"/>
        <pt x="1071" y="1306" on="1"/>
        <pt x="1071" y="-16" on="1"/>
        <pt x="976" y="-16" on="1"/>
        <pt x="917" y="-16" on="0"/>
        <pt x="898" y="-4" on="1"/>
        <pt x="863" y="17" on="0"/>
        <pt x="863" y="72" on="1"/>
      </contour>
      <contour>
        <pt x="851" y="946" on="1"/>
        <pt x="794" y="996" on="0"/>
        <pt x="646" y="996" on="1"/>
        <pt x="504" y="996" on="0"/>
        <pt x="416" y="884" on="1"/>
        <pt x="321" y="763" on="0"/>
        <pt x="321" y="556" on="1"/>
        <pt x="321" y="157" on="0"/>
        <pt x="607" y="157" on="1"/>
        <pt x="733" y="157" on="0"/>
        <pt x="851" y="249" on="1"/>
      </contour>
    </TTGlyph>
    <TTGlyph name="degree" xMin="116" yMin="939" xMax="796" yMax="1617">
      <contour>
        <pt x="456" y="939" on="1"/>
        <pt x="314" y="939" on="0"/>
        <pt x="216" y="1036" on="1"/>
        <pt x="116" y="1133" on="0"/>
        <pt x="116" y="1278" on="1"/>
        <pt x="116" y="1424" on="0"/>
        <pt x="215" y="1521" on="1"/>
        <pt x="313" y="1617" on="0"/>
        <pt x="456" y="1617" on="1"/>
        <pt x="599" y="1617" on="0"/>
        <pt x="697" y="1520" on="1"/>
        <pt x="796" y="1423" on="0"/>
        <pt x="796" y="1278" on="1"/>
        <pt x="796" y="1132" on="0"/>
        <pt x="697" y="1035" on="1"/>
        <pt x="599" y="939" on="0"/>
      </contour>
      <contour>
        <pt x="456" y="1083" on="1"/>
        <pt x="534" y="1083" on="0"/>
        <pt x="587" y="1138" on="1"/>
        <pt x="641" y="1194" on="0"/>
        <pt x="641" y="1278" on="1"/>
        <pt x="641" y="1361" on="0"/>
        <pt x="587" y="1417" on="1"/>
        <pt x="534" y="1472" on="0"/>
        <pt x="456" y="1472" on="1"/>
        <pt x="379" y="1472" on="0"/>
        <pt x="326" y="1418" on="1"/>
        <pt x="272" y="1362" on="0"/>
        <pt x="272" y="1278" on="1"/>
        <pt x="272" y="1196" on="0"/>
        <pt x="326" y="1138" on="1"/>
        <pt x="378" y="1083" on="0"/>
      </contour>
    </TTGlyph>
    <TTGlyph name="dieresis" xMin="60" yMin="1363" xMax="803" yMax="1642">
      <contour>
        <pt x="735" y="1385" on="0"/>
        <pt x="679" y="1363" on="0"/>
        <pt x="622" y="1363" on="0"/>
        <pt x="574" y="1381" on="0"/>
        <pt x="556" y="1398" on="1"/>
        <pt x="518" y="1435" on="0"/>
        <pt x="518" y="1524" on="0"/>
        <pt x="545" y="1578" on="0"/>
        <pt x="566" y="1598" on="1"/>
        <pt x="612" y="1642" on="0"/>
        <pt x="707" y="1642" on="0"/>
        <pt x="756" y="1622" on="0"/>
        <pt x="772" y="1604" on="1"/>
        <pt x="803" y="1569" on="0"/>
        <pt x="803" y="1479" on="0"/>
        <pt x="777" y="1424" on="0"/>
      </contour>
      <contour>
        <pt x="277" y="1385" on="0"/>
        <pt x="221" y="1363" on="0"/>
        <pt x="164" y="1363" on="0"/>
        <pt x="116" y="1381" on="0"/>
        <pt x="98" y="1398" on="1"/>
        <pt x="60" y="1435" on="0"/>
        <pt x="60" y="1524" on="0"/>
        <pt x="87" y="1578" on="0"/>
        <pt x="109" y="1598" on="1"/>
        <pt x="156" y="1642" on="0"/>
        <pt x="249" y="1642" on="0"/>
        <pt x="298" y="1622" on="0"/>
        <pt x="314" y="1604" on="1"/>
        <pt x="345" y="1569" on="0"/>
        <pt x="345" y="1479" on="0"/>
        <pt x="319" y="1424" on="0"/>
      </contour>
    </TTGlyph>
    <TTGlyph name="dieresis.cap" xMin="50" yMin="1667" xMax="843" yMax="1955">
      <contour>
        <pt x="772" y="1689" on="0"/>
        <pt x="714" y="1667" on="0"/>
        <pt x="655" y="1667" on="0"/>
        <pt x="605" y="1685" on="0"/>
        <pt x="586" y="1702" on="1"/>
        <pt x="546" y="1741" on="0"/>
        <pt x="546" y="1833" on="0"/>
        <pt x="573" y="1890" on="0"/>
        <pt x="596" y="1910" on="1"/>
        <pt x="644" y="1955" on="0"/>
        <pt x="740" y="1955" on="0"/>
        <pt x="792" y="1934" on="0"/>
        <pt x="809" y="1916" on="1"/>
        <pt x="843" y="1880" on="0"/>
        <pt x="843" y="1786" on="0"/>
        <pt x="817" y="1730" on="0"/>
      </contour>
      <contour>
        <pt x="276" y="1689" on="0"/>
        <pt x="218" y="1667" on="0"/>
        <pt x="159" y="1667" on="0"/>
        <pt x="109" y="1685" on="0"/>
        <pt x="90" y="1702" on="1"/>
        <pt x="50" y="1741" on="0"/>
        <pt x="50" y="1833" on="0"/>
        <pt x="77" y="1890" on="0"/>
        <pt x="100" y="1910" on="1"/>
        <pt x="148" y="1955" on="0"/>
        <pt x="244" y="1955" on="0"/>
        <pt x="296" y="1934" on="0"/>
        <pt x="313" y="1916" on="1"/>
        <pt x="347" y="1880" on="0"/>
        <pt x="347" y="1786" on="0"/>
        <pt x="321" y="1730" on="0"/>
      </contour>
    </TTGlyph>
    <TTGlyph name="divide" xMin="229" yMin="225" xMax="1164" yMax="1329">
      <contour>
        <pt x="783" y="1053" on="0"/>
        <pt x="724" y="1029" on="0"/>
        <pt x="663" y="1029" on="0"/>
        <pt x="612" y="1049" on="0"/>
        <pt x="593" y="1067" on="1"/>
        <pt x="551" y="1107" on="0"/>
        <pt x="551" y="1202" on="0"/>
        <pt x="579" y="1260" on="0"/>
        <pt x="602" y="1282" on="1"/>
        <pt x="651" y="1329" on="0"/>
        <pt x="751" y="1329" on="0"/>
        <pt x="804" y="1307" on="0"/>
        <pt x="822" y="1288" on="1"/>
        <pt x="857" y="1249" on="0"/>
        <pt x="857" y="1154" on="0"/>
        <pt x="829" y="1095" on="0"/>
      </contour>
      <contour>
        <pt x="229" y="858" on="1"/>
        <pt x="1164" y="858" on="1"/>
        <pt x="1164" y="688" on="1"/>
        <pt x="229" y="688" on="1"/>
      </contour>
      <contour>
        <pt x="562" y="306" on="1"/>
        <pt x="550" y="331" on="0"/>
        <pt x="550" y="397" on="0"/>
        <pt x="578" y="455" on="0"/>
        <pt x="601" y="477" on="1"/>
        <pt x="650" y="524" on="0"/>
        <pt x="750" y="524" on="0"/>
        <pt x="803" y="502" on="0"/>
        <pt x="820" y="484" on="1"/>
        <pt x="856" y="446" on="0"/>
        <pt x="856" y="349" on="0"/>
        <pt x="828" y="290" on="0"/>
        <pt x="805" y="269" on="1"/>
        <pt x="757" y="225" on="0"/>
        <pt x="691" y="225" on="1"/>
        <pt x="598" y="225" on="0"/>
      </contour>
    </TTGlyph>
    <TTGlyph name="dollar" xMin="232" yMin="-237" xMax="1169" yMax="1762">
      <contour>
        <pt x="647" y="161" on="1"/>
        <pt x="950" y="161" on="0"/>
        <pt x="950" y="372" on="1"/>
        <pt x="950" y="475" on="0"/>
        <pt x="862" y="548" on="1"/>
        <pt x="803" y="597" on="0"/>
        <pt x="542" y="723" on="0"/>
        <pt x="405" y="813" on="0"/>
        <pt x="352" y="870" on="1"/>
        <pt x="232" y="997" on="0"/>
        <pt x="232" y="1147" on="1"/>
        <pt x="232" y="1322" on="0"/>
        <pt x="354" y="1424" on="1"/>
        <pt x="458" y="1511" on="0"/>
        <pt x="633" y="1531" on="1"/>
        <pt x="635" y="1762" on="1"/>
        <pt x="798" y="1762" on="1"/>
        <pt x="796" y="1536" on="1"/>
        <pt x="982" y="1526" on="0"/>
        <pt x="1092" y="1459" on="1"/>
        <pt x="1047" y="1283" on="1"/>
        <pt x="917" y="1363" on="0"/>
        <pt x="735" y="1363" on="1"/>
        <pt x="541" y="1363" on="0"/>
        <pt x="470" y="1262" on="1"/>
        <pt x="445" y="1226" on="0"/>
        <pt x="445" y="1121" on="0"/>
        <pt x="478" y="1040" on="0"/>
        <pt x="514" y="1006" on="1"/>
        <pt x="570" y="953" on="0"/>
        <pt x="797" y="837" on="0"/>
        <pt x="897" y="781" on="0"/>
        <pt x="991" y="718" on="0"/>
        <pt x="1073" y="645" on="0"/>
        <pt x="1104" y="602" on="1"/>
        <pt x="1169" y="508" on="0"/>
        <pt x="1169" y="304" on="0"/>
        <pt x="1109" y="160" on="0"/>
        <pt x="1055" y="109" on="1"/>
        <pt x="950" y="10" on="0"/>
        <pt x="757" y="-11" on="1"/>
        <pt x="755" y="-237" on="1"/>
        <pt x="592" y="-237" on="1"/>
        <pt x="594" y="-14" on="1"/>
        <pt x="417" y="-3" on="0"/>
        <pt x="288" y="46" on="1"/>
        <pt x="253" y="59" on="0"/>
        <pt x="235" y="71" on="1"/>
        <pt x="288" y="254" on="1"/>
        <pt x="389" y="193" on="0"/>
        <pt x="543" y="169" on="1"/>
        <pt x="595" y="161" on="0"/>
      </contour>
    </TTGlyph>
    <TTGlyph name="dotaccent" xMin="50" yMin="1347" xMax="353" yMax="1638">
      <contour>
        <pt x="281" y="1370" on="0"/>
        <pt x="222" y="1347" on="0"/>
        <pt x="163" y="1347" on="0"/>
        <pt x="112" y="1366" on="0"/>
        <pt x="92" y="1384" on="1"/>
        <pt x="50" y="1422" on="0"/>
        <pt x="50" y="1515" on="0"/>
        <pt x="78" y="1572" on="0"/>
        <pt x="101" y="1593" on="1"/>
        <pt x="150" y="1638" on="0"/>
        <pt x="248" y="1638" on="0"/>
        <pt x="301" y="1617" on="0"/>
        <pt x="318" y="1598" on="1"/>
        <pt x="353" y="1562" on="0"/>
        <pt x="353" y="1468" on="0"/>
        <pt x="326" y="1411" on="0"/>
      </contour>
    </TTGlyph>
    <TTGlyph name="dotaccent.cap" xMin="52" yMin="1669" xMax="351" yMax="1956">
      <contour>
        <pt x="280" y="1691" on="0"/>
        <pt x="222" y="1669" on="0"/>
        <pt x="163" y="1669" on="0"/>
        <pt x="112" y="1687" on="0"/>
        <pt x="93" y="1704" on="1"/>
        <pt x="52" y="1742" on="0"/>
        <pt x="52" y="1835" on="0"/>
        <pt x="80" y="1891" on="0"/>
        <pt x="102" y="1912" on="1"/>
        <pt x="151" y="1956" on="0"/>
        <pt x="248" y="1956" on="0"/>
        <pt x="300" y="1936" on="0"/>
        <pt x="317" y="1918" on="1"/>
        <pt x="351" y="1882" on="0"/>
        <pt x="351" y="1788" on="0"/>
        <pt x="324" y="1732" on="0"/>
      </contour>
    </TTGlyph>
    <TTGlyph name="dotlessi" xMin="193" yMin="0" xMax="413" yMax="1138">
      <contour>
        <pt x="193" y="1138" on="1"/>
        <pt x="413" y="1138" on="1"/>
        <pt x="413" y="0" on="1"/>
        <pt x="193" y="0" on="1"/>
      </contour>
    </TTGlyph>
    <TTGlyph name="dotlessj" xMin="-79" yMin="-507" xMax="413" yMax="1138">
      <contour>
        <pt x="-79" y="-331" on="1"/>
        <pt x="-35" y="-353" on="0"/>
        <pt x="83" y="-353" on="0"/>
        <pt x="143" y="-314" on="0"/>
        <pt x="160" y="-276" on="1"/>
        <pt x="193" y="-204" on="0"/>
        <pt x="193" y="-48" on="1"/>
        <pt x="193" y="1138" on="1"/>
        <pt x="413" y="1138" on="1"/>
        <pt x="413" y="37" on="1"/>
        <pt x="413" y="-387" on="0"/>
        <pt x="211" y="-478" on="1"/>
        <pt x="145" y="-507" on="0"/>
        <pt x="-53" y="-507" on="0"/>
        <pt x="-79" y="-494" on="1"/>
      </contour>
    </TTGlyph>
    <TTGlyph name="e" xMin="97" yMin="-16" xMax="1026" yMax="1157">
      <contour>
        <pt x="312" y="522" on="1"/>
        <pt x="327" y="226" on="0"/>
        <pt x="530" y="168" on="1"/>
        <pt x="591" y="150" on="0"/>
        <pt x="689" y="150" on="0"/>
        <pt x="770" y="160" on="0"/>
        <pt x="810" y="168" on="1"/>
        <pt x="903" y="188" on="0"/>
        <pt x="945" y="212" on="1"/>
        <pt x="987" y="86" on="1"/>
        <pt x="904" y="18" on="0"/>
        <pt x="709" y="-8" on="1"/>
        <pt x="653" y="-16" on="0"/>
        <pt x="602" y="-16" on="1"/>
        <pt x="360" y="-16" on="0"/>
        <pt x="228" y="140" on="1"/>
        <pt x="97" y="294" on="0"/>
        <pt x="97" y="572" on="1"/>
        <pt x="97" y="829" on="0"/>
        <pt x="226" y="986" on="1"/>
        <pt x="366" y="1156" on="0"/>
        <pt x="612" y="1156" on="1"/>
        <pt x="787" y="1156" on="0"/>
        <pt x="898" y="1050" on="1"/>
        <pt x="1020" y="931" on="0"/>
        <pt x="1026" y="726" on="1"/>
        <pt x="1026" y="574" on="0"/>
        <pt x="1015" y="522" on="1"/>
      </contour>
      <contour>
        <pt x="821" y="712" on="1"/>
        <pt x="821" y="1000" on="0"/>
        <pt x="594" y="1000" on="1"/>
        <pt x="353" y="1000" on="0"/>
        <pt x="317" y="668" on="1"/>
        <pt x="820" y="668" on="1"/>
        <pt x="821" y="690" on="0"/>
      </contour>
    </TTGlyph>
    <TTGlyph name="eacute" xMin="97" yMin="-16" xMax="1026" yMax="1783">
      <component glyphName="acute" x="417" y="0" flags="0x1004"/>
      <component glyphName="e" x="0" y="0" flags="0x1004"/>
    </TTGlyph>
    <TTGlyph name="ebreve" xMin="97" yMin="-16" xMax="1026" yMax="1685">
      <component glyphName="e" x="0" y="0" flags="0x1204"/>
      <component glyphName="breve" x="205" y="0" flags="0x1004"/>
    </TTGlyph>
    <TTGlyph name="ecaron" xMin="97" yMin="-16" xMax="1026" yMax="1710">
      <component glyphName="caron" x="178" y="28" flags="0x1004"/>
      <component glyphName="e" x="0" y="0" flags="0x1004"/>
    </TTGlyph>
    <TTGlyph name="ecircumflex" xMin="97" yMin="-16" xMax="1026" yMax="1682">
      <component glyphName="circumflex" x="176" y="0" flags="0x1004"/>
      <component glyphName="e" x="0" y="0" flags="0x1004"/>
    </TTGlyph>
    <TTGlyph name="edieresis" xMin="97" yMin="-16" xMax="1026" yMax="1642">
      <component glyphName="dieresis" x="166" y="0" flags="0x1004"/>
      <component glyphName="e" x="0" y="0" flags="0x1004"/>
    </TTGlyph>
    <TTGlyph name="edotaccent" xMin="97" yMin="-16" xMax="1026" yMax="1638">
      <component glyphName="e" x="0" y="0" flags="0x1204"/>
      <component glyphName="dotaccent" x="395" y="0" flags="0x1004"/>
    </TTGlyph>
    <TTGlyph name="egrave" xMin="97" yMin="-16" xMax="1026" yMax="1783">
      <component glyphName="e" x="0" y="0" flags="0x1204"/>
      <component glyphName="grave" x="162" y="0" flags="0x1004"/>
    </TTGlyph>
    <TTGlyph name="eight" xMin="152" yMin="-16" xMax="1178" yMax="1565">
      <contour>
        <pt x="318" y="713" on="1"/>
        <pt x="377" y="763" on="0"/>
        <pt x="461" y="804" on="1"/>
        <pt x="211" y="963" on="0"/>
        <pt x="211" y="1194" on="1"/>
        <pt x="211" y="1370" on="0"/>
        <pt x="348" y="1472" on="1"/>
        <pt x="475" y="1565" on="0"/>
        <pt x="675" y="1565" on="1"/>
        <pt x="873" y="1565" on="0"/>
        <pt x="994" y="1469" on="1"/>
        <pt x="1116" y="1372" on="0"/>
        <pt x="1116" y="1216" on="1"/>
        <pt x="1116" y="1028" on="0"/>
        <pt x="963" y="887" on="1"/>
        <pt x="910" y="838" on="0"/>
        <pt x="836" y="802" on="1"/>
        <pt x="999" y="708" on="0"/>
        <pt x="1059" y="648" on="1"/>
        <pt x="1177" y="528" on="0"/>
        <pt x="1177" y="395" on="1"/>
        <pt x="1177" y="199" on="0"/>
        <pt x="1028" y="88" on="1"/>
        <pt x="889" y="-16" on="0"/>
        <pt x="675" y="-16" on="1"/>
        <pt x="460" y="-16" on="0"/>
        <pt x="318" y="75" on="1"/>
        <pt x="152" y="182" on="0"/>
        <pt x="152" y="571" on="0"/>
      </contour>
      <contour>
        <pt x="691" y="884" on="1"/>
        <pt x="850" y="937" on="0"/>
        <pt x="899" y="1096" on="1"/>
        <pt x="914" y="1146" on="0"/>
        <pt x="914" y="1243" on="0"/>
        <pt x="884" y="1321" on="0"/>
        <pt x="852" y="1350" on="1"/>
        <pt x="785" y="1412" on="0"/>
        <pt x="668" y="1412" on="1"/>
        <pt x="559" y="1412" on="0"/>
        <pt x="488" y="1358" on="1"/>
        <pt x="414" y="1303" on="0"/>
        <pt x="414" y="1207" on="1"/>
        <pt x="414" y="1066" on="0"/>
        <pt x="584" y="951" on="1"/>
        <pt x="635" y="917" on="0"/>
      </contour>
      <contour>
        <pt x="363" y="402" on="1"/>
        <pt x="363" y="278" on="0"/>
        <pt x="519" y="138" on="0"/>
        <pt x="683" y="138" on="1"/>
        <pt x="792" y="138" on="0"/>
        <pt x="873" y="200" on="1"/>
        <pt x="959" y="266" on="0"/>
        <pt x="959" y="373" on="1"/>
        <pt x="959" y="528" on="0"/>
        <pt x="738" y="650" on="1"/>
        <pt x="675" y="685" on="0"/>
        <pt x="608" y="721" on="1"/>
        <pt x="437" y="651" on="0"/>
        <pt x="381" y="503" on="1"/>
        <pt x="363" y="455" on="0"/>
      </contour>
    </TTGlyph>
    <TTGlyph name="ellipsis" xMin="186" yMin="-22" xMax="1861" yMax="304">
      <contour>
        <pt x="1597" y="21" on="1"/>
        <pt x="1577" y="41" on="0"/>
        <pt x="1552" y="99" on="0"/>
        <pt x="1552" y="168" on="0"/>
        <pt x="1578" y="229" on="0"/>
        <pt x="1600" y="252" on="1"/>
        <pt x="1650" y="304" on="0"/>
        <pt x="1749" y="304" on="0"/>
        <pt x="1803" y="280" on="0"/>
        <pt x="1821" y="259" on="1"/>
        <pt x="1860" y="213" on="0"/>
        <pt x="1860" y="114" on="0"/>
        <pt x="1834" y="52" on="0"/>
        <pt x="1812" y="28" on="1"/>
        <pt x="1763" y="-22" on="0"/>
        <pt x="1698" y="-22" on="1"/>
        <pt x="1640" y="-22" on="0"/>
      </contour>
      <contour>
        <pt x="915" y="21" on="1"/>
        <pt x="895" y="41" on="0"/>
        <pt x="870" y="99" on="0"/>
        <pt x="870" y="168" on="0"/>
        <pt x="896" y="229" on="0"/>
        <pt x="918" y="252" on="1"/>
        <pt x="968" y="304" on="0"/>
        <pt x="1066" y="304" on="0"/>
        <pt x="1120" y="280" on="0"/>
        <pt x="1138" y="259" on="1"/>
        <pt x="1177" y="215" on="0"/>
        <pt x="1177" y="114" on="0"/>
        <pt x="1152" y="52" on="0"/>
        <pt x="1130" y="28" on="1"/>
        <pt x="1081" y="-22" on="0"/>
        <pt x="1015" y="-22" on="1"/>
        <pt x="958" y="-22" on="0"/>
      </contour>
      <contour>
        <pt x="233" y="21" on="1"/>
        <pt x="213" y="41" on="0"/>
        <pt x="187" y="99" on="0"/>
        <pt x="187" y="168" on="0"/>
        <pt x="213" y="229" on="0"/>
        <pt x="236" y="252" on="1"/>
        <pt x="285" y="304" on="0"/>
        <pt x="384" y="304" on="0"/>
        <pt x="438" y="280" on="0"/>
        <pt x="456" y="259" on="1"/>
        <pt x="495" y="215" on="0"/>
        <pt x="495" y="114" on="0"/>
        <pt x="470" y="52" on="0"/>
        <pt x="448" y="28" on="1"/>
        <pt x="399" y="-22" on="0"/>
        <pt x="333" y="-22" on="1"/>
        <pt x="276" y="-22" on="0"/>
      </contour>
    </TTGlyph>
    <TTGlyph name="emacron" xMin="97" yMin="-16" xMax="1026" yMax="1588">
      <component glyphName="e" x="0" y="0" flags="0x1204"/>
      <component glyphName="macron" x="275" y="0" flags="0x1004"/>
    </TTGlyph>
    <TTGlyph name="emdash" xMin="240" yMin="683" xMax="2103" yMax="860">
      <contour>
        <pt x="240" y="860" on="1"/>
        <pt x="2103" y="860" on="1"/>
        <pt x="2103" y="683" on="1"/>
        <pt x="240" y="683" on="1"/>
      </contour>
    </TTGlyph>
    <TTGlyph name="endash" xMin="240" yMin="683" xMax="1452" yMax="860">
      <contour>
        <pt x="240" y="860" on="1"/>
        <pt x="1452" y="860" on="1"/>
        <pt x="1452" y="683" on="1"/>
        <pt x="240" y="683" on="1"/>
      </contour>
    </TTGlyph>
    <TTGlyph name="eng" xMin="176" yMin="-507" xMax="1109" yMax="1158">
      <contour>
        <pt x="638" y="-341" on="1"/>
        <pt x="667" y="-352" on="0"/>
        <pt x="790" y="-352" on="0"/>
        <pt x="846" y="-323" on="0"/>
        <pt x="862" y="-288" on="1"/>
        <pt x="889" y="-225" on="0"/>
        <pt x="889" y="-45" on="1"/>
        <pt x="889" y="711" on="1"/>
        <pt x="889" y="859" on="0"/>
        <pt x="850" y="914" on="1"/>
        <pt x="810" y="974" on="0"/>
        <pt x="703" y="974" on="1"/>
        <pt x="591" y="974" on="0"/>
        <pt x="468" y="913" on="1"/>
        <pt x="430" y="894" on="0"/>
        <pt x="396" y="869" on="1"/>
        <pt x="396" y="0" on="1"/>
        <pt x="176" y="0" on="1"/>
        <pt x="176" y="1138" on="1"/>
        <pt x="371" y="1138" on="1"/>
        <pt x="372" y="1018" on="1"/>
        <pt x="496" y="1103" on="0"/>
        <pt x="657" y="1142" on="1"/>
        <pt x="723" y="1157" on="0"/>
        <pt x="867" y="1157" on="0"/>
        <pt x="991" y="1115" on="0"/>
        <pt x="1032" y="1063" on="1"/>
        <pt x="1109" y="963" on="0"/>
        <pt x="1109" y="714" on="1"/>
        <pt x="1109" y="-16" on="1"/>
        <pt x="1109" y="-507" on="0"/>
        <pt x="792" y="-507" on="1"/>
        <pt x="671" y="-507" on="0"/>
        <pt x="638" y="-493" on="1"/>
      </contour>
    </TTGlyph>
    <TTGlyph name="eogonek" xMin="97" yMin="-512" xMax="1026" yMax="1157">
      <contour>
        <pt x="712" y="-8" on="1"/>
        <pt x="654" y="-16" on="0"/>
        <pt x="602" y="-16" on="1"/>
        <pt x="360" y="-16" on="0"/>
        <pt x="228" y="140" on="1"/>
        <pt x="97" y="294" on="0"/>
        <pt x="97" y="572" on="1"/>
        <pt x="97" y="829" on="0"/>
        <pt x="226" y="986" on="1"/>
        <pt x="366" y="1156" on="0"/>
        <pt x="612" y="1156" on="1"/>
        <pt x="787" y="1156" on="0"/>
        <pt x="898" y="1050" on="1"/>
        <pt x="1020" y="931" on="0"/>
        <pt x="1026" y="726" on="1"/>
        <pt x="1026" y="574" on="0"/>
        <pt x="1015" y="522" on="1"/>
        <pt x="312" y="522" on="1"/>
        <pt x="327" y="226" on="0"/>
        <pt x="530" y="168" on="1"/>
        <pt x="591" y="150" on="0"/>
        <pt x="689" y="150" on="0"/>
        <pt x="770" y="160" on="0"/>
        <pt x="810" y="168" on="1"/>
        <pt x="903" y="188" on="0"/>
        <pt x="945" y="212" on="1"/>
        <pt x="987" y="86" on="1"/>
        <pt x="971" y="74" on="1"/>
        <pt x="972" y="74" on="1"/>
        <pt x="870" y="10" on="0"/>
        <pt x="800" y="-90" on="1"/>
        <pt x="735" y="-182" on="0"/>
        <pt x="735" y="-255" on="1"/>
        <pt x="735" y="-364" on="0"/>
        <pt x="863" y="-364" on="1"/>
        <pt x="928" y="-364" on="0"/>
        <pt x="1002" y="-335" on="1"/>
        <pt x="1002" y="-453" on="1"/>
        <pt x="925" y="-512" on="0"/>
        <pt x="765" y="-512" on="1"/>
        <pt x="595" y="-512" on="0"/>
        <pt x="538" y="-392" on="1"/>
        <pt x="519" y="-353" on="0"/>
        <pt x="518" y="-266" on="0"/>
        <pt x="547" y="-184" on="0"/>
        <pt x="573" y="-144" on="1"/>
        <pt x="629" y="-57" on="0"/>
      </contour>
      <contour>
        <pt x="821" y="712" on="1"/>
        <pt x="821" y="1000" on="0"/>
        <pt x="594" y="1000" on="1"/>
        <pt x="353" y="1000" on="0"/>
        <pt x="317" y="668" on="1"/>
        <pt x="820" y="668" on="1"/>
        <pt x="821" y="690" on="0"/>
      </contour>
    </TTGlyph>
    <TTGlyph name="equal" xMin="242" yMin="433" xMax="1157" yMax="1116">
      <contour>
        <pt x="242" y="1116" on="1"/>
        <pt x="1157" y="1116" on="1"/>
        <pt x="1157" y="949" on="1"/>
        <pt x="242" y="949" on="1"/>
      </contour>
      <contour>
        <pt x="242" y="599" on="1"/>
        <pt x="1157" y="599" on="1"/>
        <pt x="1157" y="433" on="1"/>
        <pt x="242" y="433" on="1"/>
      </contour>
    </TTGlyph>
    <TTGlyph name="estimated" xMin="104" yMin="-16" xMax="1269" yMax="1357">
      <contour>
        <pt x="1269" y="832" on="1"/>
        <pt x="1269" y="678" on="0"/>
        <pt x="1258" y="626" on="1"/>
        <pt x="382" y="626" on="1"/>
        <pt x="382" y="270" on="1"/>
        <pt x="493" y="112" on="0"/>
        <pt x="748" y="112" on="1"/>
        <pt x="934" y="112" on="0"/>
        <pt x="1113" y="212" on="1"/>
        <pt x="1161" y="90" on="1"/>
        <pt x="1063" y="19" on="0"/>
        <pt x="847" y="-8" on="1"/>
        <pt x="784" y="-16" on="0"/>
        <pt x="727" y="-16" on="1"/>
        <pt x="433" y="-16" on="0"/>
        <pt x="268" y="166" on="1"/>
        <pt x="104" y="348" on="0"/>
        <pt x="104" y="671" on="1"/>
        <pt x="104" y="977" on="0"/>
        <pt x="259" y="1158" on="1"/>
        <pt x="429" y="1356" on="0"/>
        <pt x="743" y="1356" on="1"/>
        <pt x="958" y="1356" on="0"/>
        <pt x="1105" y="1219" on="1"/>
        <pt x="1261" y="1074" on="0"/>
      </contour>
      <contour>
        <pt x="1009" y="1114" on="1"/>
        <pt x="916" y="1227" on="0"/>
        <pt x="493" y="1227" on="0"/>
        <pt x="382" y="1063" on="1"/>
        <pt x="382" y="768" on="1"/>
        <pt x="1009" y="768" on="1"/>
      </contour>
    </TTGlyph>
    <TTGlyph name="eth" xMin="95" yMin="-28" xMax="1114" yMax="1811">
      <contour>
        <pt x="793" y="1721" on="1"/>
        <pt x="688" y="1601" on="0"/>
        <pt x="661" y="1574" on="1"/>
        <pt x="997" y="1316" on="0"/>
        <pt x="1085" y="896" on="1"/>
        <pt x="1114" y="759" on="0"/>
        <pt x="1114" y="449" on="0"/>
        <pt x="1041" y="212" on="0"/>
        <pt x="974" y="133" on="1"/>
        <pt x="840" y="-27" on="0"/>
        <pt x="596" y="-27" on="1"/>
        <pt x="370" y="-27" on="0"/>
        <pt x="234" y="128" on="1"/>
        <pt x="95" y="285" on="0"/>
        <pt x="95" y="553" on="1"/>
        <pt x="95" y="831" on="0"/>
        <pt x="236" y="994" on="1"/>
        <pt x="374" y="1154" on="0"/>
        <pt x="606" y="1154" on="1"/>
        <pt x="733" y="1152" on="0"/>
        <pt x="820" y="1080" on="1"/>
        <pt x="742" y="1294" on="0"/>
        <pt x="553" y="1455" on="1"/>
        <pt x="419" y="1306" on="1"/>
        <pt x="304" y="1396" on="1"/>
        <pt x="437" y="1539" on="1"/>
        <pt x="330" y="1608" on="0"/>
        <pt x="222" y="1646" on="1"/>
        <pt x="274" y="1771" on="1"/>
        <pt x="416" y="1726" on="0"/>
        <pt x="542" y="1653" on="1"/>
        <pt x="577" y="1690" on="0"/>
        <pt x="676" y="1811" on="1"/>
      </contour>
      <contour>
        <pt x="895" y="554" on="1"/>
        <pt x="896" y="700" on="1"/>
        <pt x="896" y="769" on="0"/>
        <pt x="890" y="849" on="1"/>
        <pt x="870" y="939" on="0"/>
        <pt x="732" y="976" on="1"/>
        <pt x="682" y="990" on="0"/>
        <pt x="538" y="990" on="0"/>
        <pt x="425" y="927" on="0"/>
        <pt x="388" y="870" on="1"/>
        <pt x="313" y="757" on="0"/>
        <pt x="313" y="561" on="1"/>
        <pt x="313" y="257" on="0"/>
        <pt x="484" y="157" on="1"/>
        <pt x="540" y="124" on="0"/>
        <pt x="680" y="124" on="0"/>
        <pt x="783" y="185" on="0"/>
        <pt x="820" y="241" on="1"/>
        <pt x="895" y="357" on="0"/>
      </contour>
    </TTGlyph>
    <TTGlyph name="exclam" xMin="146" yMin="-22" xMax="456" yMax="1780">
      <contour>
        <pt x="182" y="1780" on="1"/>
        <pt x="430" y="1780" on="1"/>
        <pt x="406" y="506" on="1"/>
        <pt x="210" y="506" on="1"/>
      </contour>
      <contour>
        <pt x="192" y="21" on="1"/>
        <pt x="172" y="41" on="0"/>
        <pt x="147" y="99" on="0"/>
        <pt x="147" y="168" on="0"/>
        <pt x="173" y="229" on="0"/>
        <pt x="196" y="252" on="1"/>
        <pt x="245" y="304" on="0"/>
        <pt x="343" y="304" on="0"/>
        <pt x="397" y="280" on="0"/>
        <pt x="416" y="259" on="1"/>
        <pt x="455" y="214" on="0"/>
        <pt x="455" y="114" on="0"/>
        <pt x="429" y="52" on="0"/>
        <pt x="406" y="28" on="1"/>
        <pt x="358" y="-22" on="0"/>
        <pt x="293" y="-22" on="1"/>
        <pt x="235" y="-22" on="0"/>
      </contour>
    </TTGlyph>
    <TTGlyph name="exclamdbl" xMin="187" yMin="-22" xMax="1193" yMax="1780">
      <component glyphName="exclam" x="41" y="0" flags="0x1004"/>
      <component glyphName="exclam" x="737" y="0" flags="0x1004"/>
    </TTGlyph>
    <TTGlyph name="exclamdown" xMin="146" yMin="-436" xMax="456" yMax="1366">
      <component glyphName="exclam" x="602" y="1344" scale="-0.999938964844" flags="0x1004"/>
    </TTGlyph>
    <TTGlyph name="f" xMin="75" yMin="0" xMax="803" yMax="1682">
      <contour>
        <pt x="803" y="1486" on="1"/>
        <pt x="743" y="1506" on="0"/>
        <pt x="595" y="1506" on="0"/>
        <pt x="536" y="1479" on="0"/>
        <pt x="514" y="1452" on="1"/>
        <pt x="468" y="1396" on="0"/>
        <pt x="468" y="1289" on="1"/>
        <pt x="468" y="1140" on="1"/>
        <pt x="750" y="1140" on="1"/>
        <pt x="750" y="974" on="1"/>
        <pt x="468" y="974" on="1"/>
        <pt x="468" y="0" on="1"/>
        <pt x="248" y="0" on="1"/>
        <pt x="248" y="974" on="1"/>
        <pt x="75" y="974" on="1"/>
        <pt x="75" y="1096" on="1"/>
        <pt x="248" y="1140" on="1"/>
        <pt x="248" y="1239" on="1"/>
        <pt x="248" y="1539" on="0"/>
        <pt x="472" y="1643" on="1"/>
        <pt x="557" y="1682" on="0"/>
        <pt x="744" y="1682" on="0"/>
        <pt x="803" y="1660" on="1"/>
      </contour>
    </TTGlyph>
    <TTGlyph name="f_f" xMin="75" yMin="0" xMax="1614" yMax="1682">
      <component glyphName="f" x="0" y="0" flags="0x1004"/>
      <component glyphName="f" x="811" y="0" flags="0x1004"/>
    </TTGlyph>
    <TTGlyph name="f_f_i" xMin="75" yMin="0" xMax="2080" yMax="1682">
      <component glyphName="dotlessi" x="1622" y="0" flags="0x1004"/>
      <component glyphName="dotaccent" x="1727" y="0" flags="0x1004"/>
      <component glyphName="f" x="0" y="0" flags="0x1004"/>
      <component glyphName="f" x="811" y="0" flags="0x1004"/>
    </TTGlyph>
    <TTGlyph name="f_f_l" xMin="75" yMin="0" xMax="2039" yMax="1682">
      <component glyphName="l" x="1622" y="0" flags="0x1004"/>
      <component glyphName="f" x="0" y="0" flags="0x1004"/>
      <component glyphName="f" x="811" y="0" flags="0x1004"/>
    </TTGlyph>
    <TTGlyph name="f_i" xMin="75" yMin="0" xMax="1269" yMax="1682">
      <component glyphName="dotlessi" x="811" y="0" flags="0x1004"/>
      <component glyphName="dotaccent" x="916" y="0" flags="0x1004"/>
      <component glyphName="f" x="0" y="0" flags="0x1004"/>
    </TTGlyph>
    <TTGlyph name="f_l" xMin="75" yMin="0" xMax="1228" yMax="1682">
      <component glyphName="l" x="811" y="0" flags="0x1004"/>
      <component glyphName="f" x="0" y="0" flags="0x1004"/>
    </TTGlyph>
    <TTGlyph name="ffi_dflt" xMin="75" yMin="0" xMax="2080" yMax="1682">
      <component glyphName="dotlessi" x="1622" y="0" flags="0x1004"/>
      <component glyphName="dotaccent" x="1727" y="0" flags="0x1004"/>
      <component glyphName="f" x="0" y="0" flags="0x1004"/>
      <component glyphName="f" x="811" y="0" flags="0x1004"/>
    </TTGlyph>
    <TTGlyph name="fi_trk" xMin="75" yMin="0" xMax="1269" yMax="1682">
      <component glyphName="dotlessi" x="811" y="0" flags="0x1004"/>
      <component glyphName="dotaccent" x="916" y="0" flags="0x1004"/>
      <component glyphName="f" x="0" y="0" flags="0x1004"/>
    </TTGlyph>
    <TTGlyph name="five" xMin="204" yMin="-349" xMax="1080" yMax="1252">
      <contour>
        <pt x="205" y="-188" on="1"/>
        <pt x="237" y="-190" on="0"/>
        <pt x="268" y="-190" on="1"/>
        <pt x="525" y="-190" on="0"/>
        <pt x="690" y="-74" on="1"/>
        <pt x="856" y="43" on="0"/>
        <pt x="856" y="223" on="1"/>
        <pt x="856" y="374" on="0"/>
        <pt x="701" y="527" on="0"/>
        <pt x="530" y="527" on="1"/>
        <pt x="414" y="527" on="0"/>
        <pt x="260" y="479" on="1"/>
        <pt x="210" y="509" on="1"/>
        <pt x="266" y="1252" on="1"/>
        <pt x="1037" y="1252" on="1"/>
        <pt x="1015" y="1062" on="1"/>
        <pt x="437" y="1062" on="1"/>
        <pt x="398" y="662" on="1"/>
        <pt x="524" y="691" on="0"/>
        <pt x="738" y="691" on="0"/>
        <pt x="907" y="627" on="0"/>
        <pt x="964" y="568" on="1"/>
        <pt x="1080" y="449" on="0"/>
        <pt x="1080" y="237" on="1"/>
        <pt x="1080" y="130" on="0"/>
        <pt x="983" y="-78" on="0"/>
        <pt x="888" y="-160" on="1"/>
        <pt x="675" y="-345" on="0"/>
        <pt x="328" y="-349" on="1"/>
        <pt x="246" y="-349" on="0"/>
        <pt x="204" y="-336" on="1"/>
      </contour>
    </TTGlyph>
    <TTGlyph name="florin" xMin="217" yMin="-356" xMax="1057" yMax="1685">
      <contour>
        <pt x="1044" y="1488" on="1"/>
        <pt x="1011" y="1507" on="0"/>
        <pt x="840" y="1507" on="0"/>
        <pt x="769" y="1485" on="0"/>
        <pt x="740" y="1458" on="1"/>
        <pt x="679" y="1400" on="0"/>
        <pt x="664" y="1268" on="1"/>
        <pt x="649" y="1140" on="1"/>
        <pt x="948" y="1140" on="1"/>
        <pt x="935" y="972" on="1"/>
        <pt x="636" y="972" on="1"/>
        <pt x="525" y="-356" on="1"/>
        <pt x="310" y="-356" on="1"/>
        <pt x="422" y="972" on="1"/>
        <pt x="217" y="972" on="1"/>
        <pt x="225" y="1086" on="1"/>
        <pt x="434" y="1140" on="1"/>
        <pt x="442" y="1204" on="1"/>
        <pt x="472" y="1453" on="0"/>
        <pt x="606" y="1577" on="1"/>
        <pt x="722" y="1685" on="0"/>
        <pt x="907" y="1685" on="1"/>
        <pt x="1017" y="1685" on="0"/>
        <pt x="1057" y="1667" on="1"/>
      </contour>
    </TTGlyph>
    <TTGlyph name="four" xMin="116" yMin="-376" xMax="1271" yMax="1299">
      <contour>
        <pt x="700" y="1299" on="1"/>
        <pt x="779" y="1299" on="1"/>
        <pt x="915" y="1215" on="1"/>
        <pt x="449" y="321" on="1"/>
        <pt x="360" y="170" on="1"/>
        <pt x="820" y="170" on="1"/>
        <pt x="838" y="603" on="1"/>
        <pt x="1040" y="603" on="1"/>
        <pt x="1040" y="170" on="1"/>
        <pt x="1271" y="170" on="1"/>
        <pt x="1271" y="0" on="1"/>
        <pt x="1040" y="0" on="1"/>
        <pt x="1040" y="-376" on="1"/>
        <pt x="820" y="-376" on="1"/>
        <pt x="820" y="0" on="1"/>
        <pt x="170" y="0" on="1"/>
        <pt x="116" y="104" on="1"/>
      </contour>
    </TTGlyph>
    <TTGlyph name="foursuperior" xMin="107" yMin="593" xMax="1056" yMax="1780">
      <contour>
        <pt x="657" y="875" on="1"/>
        <pt x="159" y="875" on="1"/>
        <pt x="107" y="969" on="1"/>
        <pt x="589" y="1780" on="1"/>
        <pt x="657" y="1780" on="1"/>
        <pt x="788" y="1703" on="1"/>
        <pt x="392" y="1095" on="1"/>
        <pt x="350" y="1026" on="1"/>
        <pt x="658" y="1026" on="1"/>
        <pt x="658" y="1029" on="1"/>
        <pt x="666" y="1278" on="1"/>
        <pt x="861" y="1298" on="1"/>
        <pt x="861" y="1026" on="1"/>
        <pt x="1055" y="1026" on="1"/>
        <pt x="1056" y="875" on="1"/>
        <pt x="861" y="875" on="1"/>
        <pt x="861" y="593" on="1"/>
        <pt x="657" y="593" on="1"/>
      </contour>
    </TTGlyph>
    <TTGlyph name="fraction" xMin="143" yMin="0" xMax="882" yMax="1530">
      <contour>
        <pt x="682" y="1530" on="1"/>
        <pt x="882" y="1530" on="1"/>
        <pt x="340" y="0" on="1"/>
        <pt x="143" y="0" on="1"/>
      </contour>
    </TTGlyph>
    <TTGlyph name="g" xMin="110" yMin="-517" xMax="1187" yMax="1157">
      <contour>
        <pt x="446" y="397" on="1"/>
        <pt x="382" y="351" on="0"/>
        <pt x="382" y="283" on="1"/>
        <pt x="382" y="219" on="0"/>
        <pt x="404" y="201" on="1"/>
        <pt x="439" y="173" on="0"/>
        <pt x="512" y="173" on="1"/>
        <pt x="719" y="173" on="1"/>
        <pt x="957" y="173" on="0"/>
        <pt x="1059" y="73" on="1"/>
        <pt x="1139" y="-5" on="0"/>
        <pt x="1139" y="-145" on="1"/>
        <pt x="1139" y="-312" on="0"/>
        <pt x="976" y="-418" on="1"/>
        <pt x="821" y="-517" on="0"/>
        <pt x="585" y="-517" on="1"/>
        <pt x="243" y="-517" on="0"/>
        <pt x="144" y="-330" on="1"/>
        <pt x="110" y="-267" on="0"/>
        <pt x="110" y="-138" on="0"/>
        <pt x="139" y="-66" on="0"/>
        <pt x="162" y="-36" on="1"/>
        <pt x="202" y="15" on="0"/>
        <pt x="269" y="52" on="1"/>
        <pt x="181" y="102" on="0"/>
        <pt x="181" y="223" on="1"/>
        <pt x="183" y="280" on="0"/>
        <pt x="255" y="397" on="0"/>
        <pt x="321" y="442" on="1"/>
        <pt x="230" y="490" on="0"/>
        <pt x="124" y="654" on="0"/>
        <pt x="124" y="862" on="0"/>
        <pt x="193" y="1008" on="0"/>
        <pt x="254" y="1056" on="1"/>
        <pt x="378" y="1156" on="0"/>
        <pt x="591" y="1156" on="1"/>
        <pt x="748" y="1156" on="0"/>
        <pt x="863" y="1087" on="1"/>
        <pt x="954" y="1148" on="0"/>
        <pt x="1076" y="1148" on="1"/>
        <pt x="1187" y="1148" on="1"/>
        <pt x="1187" y="973" on="1"/>
        <pt x="978" y="973" on="1"/>
        <pt x="1029" y="886" on="0"/>
        <pt x="1029" y="680" on="0"/>
        <pt x="958" y="534" on="0"/>
        <pt x="896" y="484" on="1"/>
        <pt x="772" y="384" on="0"/>
        <pt x="570" y="384" on="1"/>
        <pt x="502" y="384" on="0"/>
      </contour>
      <contour>
        <pt x="810" y="767" on="1"/>
        <pt x="810" y="1007" on="0"/>
        <pt x="585" y="1007" on="1"/>
        <pt x="415" y="1007" on="0"/>
        <pt x="363" y="890" on="1"/>
        <pt x="343" y="844" on="0"/>
        <pt x="343" y="724" on="0"/>
        <pt x="369" y="637" on="0"/>
        <pt x="397" y="604" on="1"/>
        <pt x="458" y="531" on="0"/>
        <pt x="575" y="531" on="1"/>
        <pt x="751" y="531" on="0"/>
        <pt x="794" y="654" on="1"/>
        <pt x="810" y="699" on="0"/>
      </contour>
      <contour>
        <pt x="397" y="7" on="1"/>
        <pt x="324" y="-56" on="0"/>
        <pt x="324" y="-155" on="1"/>
        <pt x="324" y="-314" on="0"/>
        <pt x="469" y="-352" on="1"/>
        <pt x="520" y="-366" on="0"/>
        <pt x="660" y="-366" on="0"/>
        <pt x="781" y="-344" on="0"/>
        <pt x="828" y="-322" on="1"/>
        <pt x="929" y="-276" on="0"/>
        <pt x="929" y="-193" on="1"/>
        <pt x="929" y="-93" on="0"/>
        <pt x="874" y="-50" on="1"/>
        <pt x="810" y="0" on="0"/>
        <pt x="647" y="0" on="1"/>
        <pt x="545" y="0" on="1"/>
        <pt x="440" y="0" on="0"/>
      </contour>
    </TTGlyph>
    <TTGlyph name="gbreve" xMin="110" yMin="-517" xMax="1187" yMax="1685">
      <component glyphName="g" x="0" y="0" flags="0x1204"/>
      <component glyphName="breve" x="205" y="0" flags="0x1004"/>
    </TTGlyph>
    <TTGlyph name="gcircumflex" xMin="110" yMin="-517" xMax="1187" yMax="1682">
      <component glyphName="circumflex" x="176" y="0" flags="0x1004"/>
      <component glyphName="g" x="0" y="0" flags="0x1004"/>
    </TTGlyph>
    <TTGlyph name="gcommaaccent" xMin="110" yMin="-517" xMax="1187" yMax="1802">
      <contour>
        <pt x="698" y="1735" on="1"/>
        <pt x="659" y="1688" on="0"/>
        <pt x="659" y="1590" on="1"/>
        <pt x="659" y="1523" on="0"/>
        <pt x="698" y="1482" on="1"/>
        <pt x="711" y="1469" on="0"/>
        <pt x="726" y="1466" on="1"/>
        <pt x="726" y="1416" on="1"/>
        <pt x="568" y="1324" on="1"/>
        <pt x="505" y="1356" on="0"/>
        <pt x="480" y="1459" on="1"/>
        <pt x="471" y="1494" on="0"/>
        <pt x="471" y="1588" on="0"/>
        <pt x="501" y="1676" on="0"/>
        <pt x="524" y="1710" on="1"/>
        <pt x="565" y="1774" on="0"/>
        <pt x="623" y="1802" on="1"/>
        <pt x="698" y="1761" on="1"/>
      </contour>
      <contour>
        <pt x="446" y="397" on="1"/>
        <pt x="382" y="351" on="0"/>
        <pt x="382" y="283" on="1"/>
        <pt x="382" y="219" on="0"/>
        <pt x="404" y="201" on="1"/>
        <pt x="439" y="173" on="0"/>
        <pt x="512" y="173" on="1"/>
        <pt x="719" y="173" on="1"/>
        <pt x="957" y="173" on="0"/>
        <pt x="1059" y="73" on="1"/>
        <pt x="1139" y="-5" on="0"/>
        <pt x="1139" y="-145" on="1"/>
        <pt x="1139" y="-312" on="0"/>
        <pt x="976" y="-418" on="1"/>
        <pt x="821" y="-517" on="0"/>
        <pt x="585" y="-517" on="1"/>
        <pt x="243" y="-517" on="0"/>
        <pt x="144" y="-330" on="1"/>
        <pt x="110" y="-267" on="0"/>
        <pt x="110" y="-138" on="0"/>
        <pt x="139" y="-66" on="0"/>
        <pt x="162" y="-36" on="1"/>
        <pt x="202" y="15" on="0"/>
        <pt x="269" y="52" on="1"/>
        <pt x="181" y="102" on="0"/>
        <pt x="181" y="223" on="1"/>
        <pt x="183" y="280" on="0"/>
        <pt x="255" y="397" on="0"/>
        <pt x="321" y="442" on="1"/>
        <pt x="230" y="490" on="0"/>
        <pt x="124" y="654" on="0"/>
        <pt x="124" y="862" on="0"/>
        <pt x="193" y="1008" on="0"/>
        <pt x="254" y="1056" on="1"/>
        <pt x="378" y="1156" on="0"/>
        <pt x="591" y="1156" on="1"/>
        <pt x="748" y="1156" on="0"/>
        <pt x="863" y="1087" on="1"/>
        <pt x="954" y="1148" on="0"/>
        <pt x="1076" y="1148" on="1"/>
        <pt x="1187" y="1148" on="1"/>
        <pt x="1187" y="973" on="1"/>
        <pt x="978" y="973" on="1"/>
        <pt x="1029" y="886" on="0"/>
        <pt x="1029" y="680" on="0"/>
        <pt x="958" y="534" on="0"/>
        <pt x="896" y="484" on="1"/>
        <pt x="772" y="384" on="0"/>
        <pt x="570" y="384" on="1"/>
        <pt x="502" y="384" on="0"/>
      </contour>
      <contour>
        <pt x="810" y="767" on="1"/>
        <pt x="810" y="1007" on="0"/>
        <pt x="585" y="1007" on="1"/>
        <pt x="415" y="1007" on="0"/>
        <pt x="363" y="890" on="1"/>
        <pt x="343" y="844" on="0"/>
        <pt x="343" y="724" on="0"/>
        <pt x="369" y="637" on="0"/>
        <pt x="397" y="604" on="1"/>
        <pt x="458" y="531" on="0"/>
        <pt x="575" y="531" on="1"/>
        <pt x="751" y="531" on="0"/>
        <pt x="794" y="654" on="1"/>
        <pt x="810" y="699" on="0"/>
      </contour>
      <contour>
        <pt x="397" y="7" on="1"/>
        <pt x="324" y="-56" on="0"/>
        <pt x="324" y="-155" on="1"/>
        <pt x="324" y="-314" on="0"/>
        <pt x="469" y="-352" on="1"/>
        <pt x="520" y="-366" on="0"/>
        <pt x="660" y="-366" on="0"/>
        <pt x="781" y="-344" on="0"/>
        <pt x="828" y="-322" on="1"/>
        <pt x="929" y="-276" on="0"/>
        <pt x="929" y="-193" on="1"/>
        <pt x="929" y="-93" on="0"/>
        <pt x="874" y="-50" on="1"/>
        <pt x="810" y="0" on="0"/>
        <pt x="647" y="0" on="1"/>
        <pt x="545" y="0" on="1"/>
        <pt x="440" y="0" on="0"/>
      </contour>
    </TTGlyph>
    <TTGlyph name="gdotaccent" xMin="110" yMin="-517" xMax="1187" yMax="1638">
      <component glyphName="g" x="0" y="0" flags="0x1204"/>
      <component glyphName="dotaccent" x="395" y="0" flags="0x1004"/>
    </TTGlyph>
    <TTGlyph name="germandbls" xMin="36" yMin="-16" xMax="1236" yMax="1579">
      <contour>
        <pt x="879" y="1275" on="1"/>
        <pt x="879" y="1423" on="0"/>
        <pt x="682" y="1423" on="1"/>
        <pt x="546" y="1423" on="0"/>
        <pt x="476" y="1322" on="1"/>
        <pt x="394" y="1207" on="0"/>
        <pt x="394" y="948" on="1"/>
        <pt x="394" y="0" on="1"/>
        <pt x="174" y="0" on="1"/>
        <pt x="174" y="974" on="1"/>
        <pt x="36" y="974" on="1"/>
        <pt x="36" y="1103" on="1"/>
        <pt x="189" y="1142" on="1"/>
        <pt x="232" y="1364" on="0"/>
        <pt x="379" y="1475" on="1"/>
        <pt x="516" y="1579" on="0"/>
        <pt x="719" y="1579" on="1"/>
        <pt x="883" y="1579" on="0"/>
        <pt x="986" y="1508" on="1"/>
        <pt x="1097" y="1432" on="0"/>
        <pt x="1097" y="1303" on="1"/>
        <pt x="1097" y="1174" on="0"/>
        <pt x="985" y="1058" on="1"/>
        <pt x="914" y="985" on="0"/>
        <pt x="873" y="911" on="0"/>
        <pt x="873" y="838" on="0"/>
        <pt x="904" y="776" on="0"/>
        <pt x="955" y="721" on="0"/>
        <pt x="1020" y="670" on="0"/>
        <pt x="1089" y="615" on="0"/>
        <pt x="1154" y="551" on="0"/>
        <pt x="1180" y="512" on="1"/>
        <pt x="1236" y="426" on="0"/>
        <pt x="1236" y="222" on="0"/>
        <pt x="1167" y="96" on="0"/>
        <pt x="1110" y="57" on="1"/>
        <pt x="1005" y="-16" on="0"/>
        <pt x="691" y="-16" on="0"/>
        <pt x="608" y="17" on="1"/>
        <pt x="608" y="190" on="1"/>
        <pt x="699" y="138" on="0"/>
        <pt x="847" y="138" on="1"/>
        <pt x="959" y="138" on="0"/>
        <pt x="998" y="217" on="1"/>
        <pt x="1013" y="246" on="0"/>
        <pt x="1012" y="344" on="0"/>
        <pt x="961" y="427" on="0"/>
        <pt x="885" y="499" on="0"/>
        <pt x="796" y="570" on="0"/>
        <pt x="758" y="614" on="1"/>
        <pt x="670" y="718" on="0"/>
        <pt x="670" y="851" on="1"/>
        <pt x="670" y="954" on="0"/>
        <pt x="879" y="1182" on="0"/>
      </contour>
    </TTGlyph>
    <TTGlyph name="grave" xMin="50" yMin="1294" xMax="545" yMax="1783">
      <contour>
        <pt x="207" y="1783" on="1"/>
        <pt x="301" y="1663" on="0"/>
        <pt x="545" y="1384" on="1"/>
        <pt x="434" y="1294" on="1"/>
        <pt x="375" y="1320" on="0"/>
        <pt x="98" y="1574" on="0"/>
        <pt x="50" y="1648" on="1"/>
      </contour>
    </TTGlyph>
    <TTGlyph name="grave.cap" xMin="50" yMin="1573" xMax="539" yMax="1980">
      <contour>
        <pt x="447" y="1573" on="1"/>
        <pt x="347" y="1606" on="0"/>
        <pt x="166" y="1744" on="1"/>
        <pt x="85" y="1806" on="0"/>
        <pt x="50" y="1847" on="1"/>
        <pt x="196" y="1980" on="1"/>
        <pt x="201" y="1964" on="0"/>
        <pt x="486" y="1713" on="0"/>
        <pt x="537" y="1666" on="0"/>
        <pt x="539" y="1665" on="1"/>
      </contour>
    </TTGlyph>
    <TTGlyph name="greater" xMin="233" yMin="252" xMax="1200" yMax="1296">
      <component glyphName="less" x="1368" y="0" scalex="-0.999938964844" scaley="1.0" flags="0x1004"/>
    </TTGlyph>
    <TTGlyph name="greaterequal" xMin="237" yMin="0" xMax="1208" yMax="1281">
      <component glyphName="lessequal" x="1368" y="0" scalex="-0.999938964844" scaley="1.0" flags="0x1004"/>
    </TTGlyph>
    <TTGlyph name="guillemotleft" xMin="245" yMin="104" xMax="1676" yMax="1133">
      <component glyphName="guilsinglleft" x="0" y="0" flags="0x1004"/>
      <component glyphName="guilsinglleft" x="731" y="0" flags="0x1004"/>
    </TTGlyph>
    <TTGlyph name="guillemotright" xMin="258" yMin="104" xMax="1690" yMax="1133">
      <component glyphName="guilsinglleft" x="1204" y="0" scalex="-0.999938964844" scaley="1.0" flags="0x1004"/>
      <component glyphName="guilsinglleft" x="1935" y="0" scalex="-0.999938964844" scaley="1.0" flags="0x1004"/>
    </TTGlyph>
    <TTGlyph name="guilsinglleft" xMin="245" yMin="104" xMax="945" yMax="1133">
      <contour>
        <pt x="245" y="703" on="1"/>
        <pt x="888" y="1133" on="1"/>
        <pt x="945" y="970" on="1"/>
        <pt x="460" y="614" on="1"/>
        <pt x="945" y="263" on="1"/>
        <pt x="888" y="104" on="1"/>
        <pt x="245" y="519" on="1"/>
      </contour>
    </TTGlyph>
    <TTGlyph name="guilsinglright" xMin="258" yMin="104" xMax="959" yMax="1133">
      <component glyphName="guilsinglleft" x="1204" y="0" scalex="-0.999938964844" scaley="1.0" flags="0x1004"/>
    </TTGlyph>
    <TTGlyph name="h" xMin="176" yMin="0" xMax="1119" yMax="1664">
      <contour>
        <pt x="176" y="1664" on="1"/>
        <pt x="396" y="1664" on="1"/>
        <pt x="396" y="1189" on="1"/>
        <pt x="386" y="1027" on="1"/>
        <pt x="499" y="1109" on="0"/>
        <pt x="661" y="1144" on="1"/>
        <pt x="725" y="1157" on="0"/>
        <pt x="866" y="1157" on="0"/>
        <pt x="994" y="1109" on="0"/>
        <pt x="1036" y="1053" on="1"/>
        <pt x="1119" y="944" on="0"/>
        <pt x="1119" y="695" on="1"/>
        <pt x="1119" y="0" on="1"/>
        <pt x="899" y="0" on="1"/>
        <pt x="899" y="711" on="1"/>
        <pt x="899" y="857" on="0"/>
        <pt x="854" y="914" on="1"/>
        <pt x="807" y="974" on="0"/>
        <pt x="699" y="974" on="1"/>
        <pt x="589" y="974" on="0"/>
        <pt x="468" y="913" on="1"/>
        <pt x="430" y="894" on="0"/>
        <pt x="396" y="869" on="1"/>
        <pt x="396" y="0" on="1"/>
        <pt x="176" y="0" on="1"/>
      </contour>
    </TTGlyph>
    <TTGlyph name="hbar" xMin="36" yMin="0" xMax="1119" yMax="1664">
      <contour>
        <pt x="176" y="1284" on="1"/>
        <pt x="36" y="1284" on="1"/>
        <pt x="36" y="1416" on="1"/>
        <pt x="176" y="1416" on="1"/>
        <pt x="176" y="1664" on="1"/>
        <pt x="396" y="1664" on="1"/>
        <pt x="396" y="1416" on="1"/>
        <pt x="628" y="1416" on="1"/>
        <pt x="628" y="1284" on="1"/>
        <pt x="396" y="1284" on="1"/>
        <pt x="396" y="1189" on="1"/>
        <pt x="386" y="1027" on="1"/>
        <pt x="499" y="1109" on="0"/>
        <pt x="661" y="1144" on="1"/>
        <pt x="725" y="1157" on="0"/>
        <pt x="866" y="1157" on="0"/>
        <pt x="994" y="1109" on="0"/>
        <pt x="1036" y="1053" on="1"/>
        <pt x="1119" y="944" on="0"/>
        <pt x="1119" y="695" on="1"/>
        <pt x="1119" y="0" on="1"/>
        <pt x="899" y="0" on="1"/>
        <pt x="899" y="711" on="1"/>
        <pt x="899" y="857" on="0"/>
        <pt x="854" y="914" on="1"/>
        <pt x="807" y="974" on="0"/>
        <pt x="699" y="974" on="1"/>
        <pt x="589" y="974" on="0"/>
        <pt x="468" y="913" on="1"/>
        <pt x="430" y="894" on="0"/>
        <pt x="396" y="869" on="1"/>
        <pt x="396" y="0" on="1"/>
        <pt x="176" y="0" on="1"/>
      </contour>
    </TTGlyph>
    <TTGlyph name="hcircumflex" xMin="176" yMin="0" xMax="1119" yMax="1990">
      <component glyphName="h" x="0" y="0" flags="0x1204"/>
      <component glyphName="circumflex.cap" x="348" y="0" flags="0x1004"/>
    </TTGlyph>
    <TTGlyph name="hungarumlaut" xMin="42" yMin="1319" xMax="963" yMax="1798">
      <contour>
        <pt x="42" y="1390" on="1"/>
        <pt x="301" y="1798" on="1"/>
        <pt x="463" y="1687" on="1"/>
        <pt x="394" y="1568" on="0"/>
        <pt x="248" y="1414" on="1"/>
        <pt x="179" y="1343" on="0"/>
        <pt x="145" y="1319" on="1"/>
      </contour>
      <contour>
        <pt x="541" y="1390" on="1"/>
        <pt x="808" y="1789" on="1"/>
        <pt x="963" y="1679" on="1"/>
        <pt x="903" y="1568" on="0"/>
        <pt x="750" y="1412" on="1"/>
        <pt x="681" y="1342" on="0"/>
        <pt x="642" y="1319" on="1"/>
      </contour>
    </TTGlyph>
    <TTGlyph name="hungarumlaut.cap" xMin="56" yMin="1641" xMax="903" yMax="2000">
      <contour>
        <pt x="56" y="1710" on="1"/>
        <pt x="61" y="1715" on="0"/>
        <pt x="134" y="1817" on="0"/>
        <pt x="186" y="1889" on="0"/>
        <pt x="208" y="1920" on="1"/>
        <pt x="261" y="1994" on="0"/>
        <pt x="263" y="2000" on="1"/>
        <pt x="435" y="1913" on="1"/>
        <pt x="287" y="1706" on="0"/>
        <pt x="180" y="1641" on="1"/>
      </contour>
      <contour>
        <pt x="524" y="1710" on="1"/>
        <pt x="532" y="1718" on="0"/>
        <pt x="606" y="1814" on="0"/>
        <pt x="660" y="1884" on="0"/>
        <pt x="684" y="1915" on="1"/>
        <pt x="739" y="1988" on="0"/>
        <pt x="740" y="1992" on="1"/>
        <pt x="903" y="1904" on="1"/>
        <pt x="764" y="1708" on="0"/>
        <pt x="649" y="1641" on="1"/>
      </contour>
    </TTGlyph>
    <TTGlyph name="hyphen" xMin="250" yMin="683" xMax="1100" yMax="860">
      <contour>
        <pt x="250" y="860" on="1"/>
        <pt x="1100" y="860" on="1"/>
        <pt x="1100" y="683" on="1"/>
        <pt x="250" y="683" on="1"/>
      </contour>
    </TTGlyph>
    <TTGlyph name="i" xMin="155" yMin="0" xMax="458" yMax="1638">
      <component glyphName="dotlessi" x="0" y="0" flags="0x1204"/>
      <component glyphName="dotaccent" x="105" y="0" flags="0x1004"/>
    </TTGlyph>
    <TTGlyph name="i.cy" xMin="155" yMin="0" xMax="458" yMax="1638">
      <component glyphName="dotlessi" x="0" y="0" flags="0x1204"/>
      <component glyphName="dotaccent" x="105" y="0" flags="0x1004"/>
    </TTGlyph>
    <TTGlyph name="i.dot" xMin="155" yMin="0" xMax="458" yMax="1638">
      <component glyphName="dotlessi" x="0" y="0" flags="0x1204"/>
      <component glyphName="dotaccent" x="105" y="0" flags="0x1004"/>
    </TTGlyph>
    <TTGlyph name="i.uc" xMin="180" yMin="0" xMax="479" yMax="1956">
      <component glyphName="I" x="0" y="0" flags="0x1204"/>
      <component glyphName="dotaccent.cap" x="128" y="0" flags="0x1004"/>
    </TTGlyph>
    <TTGlyph name="iacute" xMin="173" yMin="0" xMax="667" yMax="1783">
      <component glyphName="acute" x="123" y="0" flags="0x1004"/>
      <component glyphName="dotlessi" x="0" y="0" flags="0x1004"/>
    </TTGlyph>
    <TTGlyph name="ibreve" xMin="-41" yMin="0" xMax="649" yMax="1685">
      <component glyphName="dotlessi" x="0" y="0" flags="0x1204"/>
      <component glyphName="breve" x="-88" y="0" flags="0x1004"/>
    </TTGlyph>
    <TTGlyph name="icircumflex" xMin="-70" yMin="0" xMax="672" yMax="1682">
      <component glyphName="circumflex" x="-117" y="0" flags="0x1004"/>
      <component glyphName="dotlessi" x="0" y="0" flags="0x1004"/>
    </TTGlyph>
    <TTGlyph name="idieresis" xMin="-56" yMin="0" xMax="663" yMax="1642">
      <contour>
        <pt x="595" y="1385" on="0"/>
        <pt x="539" y="1363" on="0"/>
        <pt x="482" y="1363" on="0"/>
        <pt x="434" y="1381" on="0"/>
        <pt x="416" y="1398" on="1"/>
        <pt x="378" y="1435" on="0"/>
        <pt x="378" y="1524" on="0"/>
        <pt x="405" y="1578" on="0"/>
        <pt x="426" y="1598" on="1"/>
        <pt x="472" y="1642" on="0"/>
        <pt x="567" y="1642" on="0"/>
        <pt x="616" y="1622" on="0"/>
        <pt x="632" y="1604" on="1"/>
        <pt x="663" y="1569" on="0"/>
        <pt x="663" y="1479" on="0"/>
        <pt x="637" y="1424" on="0"/>
      </contour>
      <contour>
        <pt x="161" y="1385" on="0"/>
        <pt x="105" y="1363" on="0"/>
        <pt x="48" y="1363" on="0"/>
        <pt x="0" y="1381" on="0"/>
        <pt x="-18" y="1398" on="1"/>
        <pt x="-56" y="1435" on="0"/>
        <pt x="-56" y="1524" on="0"/>
        <pt x="-29" y="1578" on="0"/>
        <pt x="-7" y="1598" on="1"/>
        <pt x="40" y="1642" on="0"/>
        <pt x="133" y="1642" on="0"/>
        <pt x="182" y="1622" on="0"/>
        <pt x="198" y="1604" on="1"/>
        <pt x="229" y="1569" on="0"/>
        <pt x="229" y="1479" on="0"/>
        <pt x="203" y="1424" on="0"/>
      </contour>
      <contour>
        <pt x="193" y="1138" on="1"/>
        <pt x="413" y="1138" on="1"/>
        <pt x="413" y="0" on="1"/>
        <pt x="193" y="0" on="1"/>
      </contour>
    </TTGlyph>
    <TTGlyph name="igrave" xMin="-81" yMin="0" xMax="414" yMax="1783">
      <component glyphName="dotlessi" x="0" y="0" flags="0x1204"/>
      <component glyphName="grave" x="-131" y="0" flags="0x1004"/>
    </TTGlyph>
    <TTGlyph name="ij" xMin="155" yMin="-507" xMax="1061" yMax="1638">
      <component glyphName="dotlessj" x="606" y="0" flags="0x1004"/>
      <component glyphName="dotlessi" x="0" y="0" flags="0x1004"/>
      <component glyphName="dotaccent" x="105" y="0" flags="0x1004"/>
      <component glyphName="dotaccent" x="708" y="0" flags="0x1004"/>
    </TTGlyph>
    <TTGlyph name="imacron" xMin="32" yMin="0" xMax="579" yMax="1588">
      <component glyphName="dotlessi" x="0" y="0" flags="0x1204"/>
      <component glyphName="macron" x="-18" y="0" flags="0x1004"/>
    </TTGlyph>
    <TTGlyph name="infinity" xMin="74" yMin="225" xMax="1730" yMax="1009">
      <contour>
        <pt x="903" y="467" on="1"/>
        <pt x="729" y="226" on="0"/>
        <pt x="481" y="226" on="1"/>
        <pt x="301" y="226" on="0"/>
        <pt x="186" y="337" on="1"/>
        <pt x="74" y="445" on="0"/>
        <pt x="74" y="602" on="1"/>
        <pt x="74" y="800" on="0"/>
        <pt x="198" y="909" on="1"/>
        <pt x="311" y="1008" on="0"/>
        <pt x="494" y="1008" on="1"/>
        <pt x="690" y="1008" on="0"/>
        <pt x="830" y="850" on="1"/>
        <pt x="871" y="805" on="0"/>
        <pt x="907" y="757" on="1"/>
        <pt x="1089" y="1008" on="0"/>
        <pt x="1320" y="1008" on="1"/>
        <pt x="1518" y="1008" on="0"/>
        <pt x="1630" y="890" on="1"/>
        <pt x="1730" y="786" on="0"/>
        <pt x="1730" y="631" on="1"/>
        <pt x="1730" y="438" on="0"/>
        <pt x="1616" y="332" on="1"/>
        <pt x="1502" y="225" on="0"/>
        <pt x="1300" y="225" on="1"/>
        <pt x="1112" y="225" on="0"/>
        <pt x="976" y="376" on="1"/>
        <pt x="937" y="420" on="0"/>
      </contour>
      <contour>
        <pt x="407" y="396" on="1"/>
        <pt x="453" y="378" on="0"/>
        <pt x="558" y="378" on="0"/>
        <pt x="635" y="411" on="0"/>
        <pt x="670" y="441" on="1"/>
        <pt x="733" y="494" on="0"/>
        <pt x="804" y="600" on="1"/>
        <pt x="775" y="641" on="0"/>
        <pt x="714" y="728" on="0"/>
        <pt x="679" y="764" on="1"/>
        <pt x="600" y="844" on="0"/>
        <pt x="450" y="844" on="0"/>
        <pt x="359" y="805" on="0"/>
        <pt x="330" y="772" on="1"/>
        <pt x="272" y="709" on="0"/>
        <pt x="272" y="613" on="1"/>
        <pt x="272" y="451" on="0"/>
      </contour>
      <contour>
        <pt x="1008" y="623" on="1"/>
        <pt x="1091" y="507" on="0"/>
        <pt x="1139" y="465" on="1"/>
        <pt x="1239" y="377" on="0"/>
        <pt x="1334" y="377" on="1"/>
        <pt x="1428" y="377" on="0"/>
        <pt x="1483" y="450" on="1"/>
        <pt x="1532" y="515" on="0"/>
        <pt x="1532" y="712" on="0"/>
        <pt x="1470" y="774" on="1"/>
        <pt x="1403" y="843" on="0"/>
        <pt x="1290" y="843" on="1"/>
        <pt x="1175" y="843" on="0"/>
        <pt x="1071" y="712" on="1"/>
        <pt x="1039" y="671" on="0"/>
      </contour>
    </TTGlyph>
    <TTGlyph name="integral" xMin="111" yMin="-518" xMax="964" yMax="1685">
      <contour>
        <pt x="194" y="-261" on="1"/>
        <pt x="287" y="-354" on="0"/>
        <pt x="412" y="-354" on="1"/>
        <pt x="532" y="-354" on="0"/>
        <pt x="584" y="-291" on="1"/>
        <pt x="643" y="-218" on="0"/>
        <pt x="643" y="-30" on="1"/>
        <pt x="643" y="183" on="0"/>
        <pt x="440" y="576" on="1"/>
        <pt x="319" y="810" on="0"/>
        <pt x="237" y="1096" on="0"/>
        <pt x="237" y="1307" on="0"/>
        <pt x="289" y="1484" on="0"/>
        <pt x="342" y="1548" on="1"/>
        <pt x="456" y="1685" on="0"/>
        <pt x="666" y="1685" on="1"/>
        <pt x="880" y="1685" on="0"/>
        <pt x="964" y="1558" on="1"/>
        <pt x="852" y="1445" on="1"/>
        <pt x="830" y="1476" on="0"/>
        <pt x="732" y="1521" on="0"/>
        <pt x="661" y="1521" on="1"/>
        <pt x="438" y="1521" on="0"/>
        <pt x="438" y="1202" on="1"/>
        <pt x="438" y="1037" on="0"/>
        <pt x="543" y="801" on="1"/>
        <pt x="588" y="700" on="0"/>
        <pt x="692" y="496" on="0"/>
        <pt x="737" y="392" on="1"/>
        <pt x="842" y="149" on="0"/>
        <pt x="842" y="-30" on="1"/>
        <pt x="842" y="-379" on="0"/>
        <pt x="629" y="-481" on="1"/>
        <pt x="552" y="-518" on="0"/>
        <pt x="383" y="-518" on="0"/>
        <pt x="282" y="-497" on="0"/>
        <pt x="239" y="-480" on="1"/>
        <pt x="157" y="-447" on="0"/>
        <pt x="111" y="-395" on="1"/>
      </contour>
    </TTGlyph>
    <TTGlyph name="iogonek" xMin="22" yMin="-512" xMax="516" yMax="1638">
      <contour>
        <pt x="385" y="1370" on="0"/>
        <pt x="326" y="1347" on="0"/>
        <pt x="267" y="1347" on="0"/>
        <pt x="216" y="1366" on="0"/>
        <pt x="196" y="1384" on="1"/>
        <pt x="154" y="1422" on="0"/>
        <pt x="154" y="1515" on="0"/>
        <pt x="182" y="1572" on="0"/>
        <pt x="205" y="1593" on="1"/>
        <pt x="254" y="1638" on="0"/>
        <pt x="352" y="1638" on="0"/>
        <pt x="405" y="1617" on="0"/>
        <pt x="422" y="1598" on="1"/>
        <pt x="457" y="1562" on="0"/>
        <pt x="457" y="1468" on="0"/>
        <pt x="430" y="1411" on="0"/>
      </contour>
      <contour>
        <pt x="516" y="-453" on="1"/>
        <pt x="437" y="-512" on="0"/>
        <pt x="289" y="-512" on="1"/>
        <pt x="173" y="-512" on="0"/>
        <pt x="100" y="-454" on="1"/>
        <pt x="23" y="-391" on="0"/>
        <pt x="23" y="-287" on="1"/>
        <pt x="23" y="-208" on="0"/>
        <pt x="84" y="-124" on="1"/>
        <pt x="135" y="-53" on="0"/>
        <pt x="220" y="0" on="1"/>
        <pt x="193" y="0" on="1"/>
        <pt x="193" y="1138" on="1"/>
        <pt x="413" y="1138" on="1"/>
        <pt x="413" y="0" on="1"/>
        <pt x="388" y="0" on="1"/>
        <pt x="239" y="-94" on="0"/>
        <pt x="239" y="-240" on="1"/>
        <pt x="239" y="-364" on="0"/>
        <pt x="377" y="-364" on="1"/>
        <pt x="442" y="-364" on="0"/>
        <pt x="516" y="-335" on="1"/>
      </contour>
    </TTGlyph>
    <TTGlyph name="itilde" xMin="-115" yMin="0" xMax="719" yMax="1648">
      <component glyphName="dotlessi" x="0" y="0" flags="0x1204"/>
      <component glyphName="tilde" x="-162" y="0" flags="0x1004"/>
    </TTGlyph>
    <TTGlyph name="j" xMin="-79" yMin="-507" xMax="455" yMax="1638">
      <component glyphName="dotlessj" x="0" y="0" flags="0x1204"/>
      <component glyphName="dotaccent" x="102" y="0" flags="0x1004"/>
    </TTGlyph>
    <TTGlyph name="jcircumflex" xMin="-79" yMin="-507" xMax="676" yMax="1682">
      <component glyphName="dotlessj" x="0" y="0" flags="0x1204"/>
      <component glyphName="circumflex" x="-113" y="0" flags="0x1004"/>
    </TTGlyph>
    <TTGlyph name="k" xMin="168" yMin="0" xMax="1151" yMax="1661">
      <contour>
        <pt x="168" y="1661" on="1"/>
        <pt x="388" y="1661" on="1"/>
        <pt x="388" y="751" on="1"/>
        <pt x="384" y="639" on="1"/>
        <pt x="839" y="1140" on="1"/>
        <pt x="1098" y="1140" on="1"/>
        <pt x="668" y="691" on="1"/>
        <pt x="1151" y="0" on="1"/>
        <pt x="901" y="0" on="1"/>
        <pt x="524" y="541" on="1"/>
        <pt x="383" y="394" on="1"/>
        <pt x="388" y="223" on="1"/>
        <pt x="388" y="0" on="1"/>
        <pt x="168" y="0" on="1"/>
      </contour>
    </TTGlyph>
    <TTGlyph name="kcommaaccent" xMin="168" yMin="-560" xMax="1151" yMax="1661">
      <component glyphName="commaaccent" x="453" y="0" flags="0x1004"/>
      <component glyphName="k" x="0" y="0" flags="0x1004"/>
    </TTGlyph>
    <TTGlyph name="kgreenlandic" xMin="181" yMin="0" xMax="1168" yMax="1140">
      <contour>
        <pt x="181" y="1140" on="1"/>
        <pt x="401" y="1140" on="1"/>
        <pt x="401" y="659" on="1"/>
        <pt x="398" y="579" on="1"/>
        <pt x="878" y="1140" on="1"/>
        <pt x="1129" y="1140" on="1"/>
        <pt x="690" y="658" on="1"/>
        <pt x="1168" y="0" on="1"/>
        <pt x="917" y="0" on="1"/>
        <pt x="550" y="504" on="1"/>
        <pt x="398" y="336" on="1"/>
        <pt x="404" y="190" on="1"/>
        <pt x="404" y="0" on="1"/>
        <pt x="184" y="0" on="1"/>
      </contour>
    </TTGlyph>
    <TTGlyph name="l" xMin="197" yMin="0" xMax="417" yMax="1664">
      <contour>
        <pt x="197" y="1664" on="1"/>
        <pt x="417" y="1664" on="1"/>
        <pt x="417" y="0" on="1"/>
        <pt x="197" y="0" on="1"/>
      </contour>
    </TTGlyph>
    <TTGlyph name="lacute" xMin="184" yMin="0" xMax="673" yMax="1980">
      <contour>
        <pt x="197" y="1532" on="1"/>
        <pt x="417" y="1532" on="1"/>
        <pt x="417" y="0" on="1"/>
        <pt x="197" y="0" on="1"/>
      </contour>
      <contour>
        <pt x="184" y="1665" on="1"/>
        <pt x="186" y="1666" on="0"/>
        <pt x="237" y="1713" on="0"/>
        <pt x="313" y="1780" on="0"/>
        <pt x="400" y="1859" on="0"/>
        <pt x="438" y="1894" on="1"/>
        <pt x="525" y="1974" on="0"/>
        <pt x="527" y="1980" on="1"/>
        <pt x="673" y="1847" on="1"/>
        <pt x="554" y="1724" on="0"/>
        <pt x="374" y="1620" on="1"/>
        <pt x="320" y="1588" on="0"/>
        <pt x="277" y="1573" on="1"/>
      </contour>
    </TTGlyph>
    <TTGlyph name="lcaron" xMin="197" yMin="0" xMax="815" yMax="1687">
      <component glyphName="l" x="0" y="0" flags="0x1004"/>
      <component glyphName="caronvertical" x="513" y="0" flags="0x1004"/>
    </TTGlyph>
    <TTGlyph name="lcommaaccent" xMin="174" yMin="-560" xMax="429" yMax="1664">
      <component glyphName="commaaccent" x="134" y="0" flags="0x1004"/>
      <component glyphName="l" x="0" y="0" flags="0x1004"/>
    </TTGlyph>
    <TTGlyph name="ldot" xMin="197" yMin="0" xMax="981" yMax="1664">
      <component glyphName="l" x="0" y="0" flags="0x1004"/>
      <component glyphName="period" x="525" y="711" flags="0x1004"/>
    </TTGlyph>
    <TTGlyph name="less" xMin="168" yMin="252" xMax="1134" yMax="1296">
      <contour>
        <pt x="168" y="850" on="1"/>
        <pt x="1134" y="1296" on="1"/>
        <pt x="1134" y="1091" on="1"/>
        <pt x="403" y="773" on="1"/>
        <pt x="1134" y="460" on="1"/>
        <pt x="1134" y="252" on="1"/>
        <pt x="168" y="696" on="1"/>
      </contour>
    </TTGlyph>
    <TTGlyph name="lessequal" xMin="160" yMin="0" xMax="1130" yMax="1281">
      <contour>
        <pt x="160" y="850" on="1"/>
        <pt x="1130" y="1281" on="1"/>
        <pt x="1130" y="1079" on="1"/>
        <pt x="389" y="773" on="1"/>
        <pt x="1130" y="467" on="1"/>
        <pt x="1130" y="264" on="1"/>
        <pt x="160" y="695" on="1"/>
      </contour>
      <contour>
        <pt x="160" y="162" on="1"/>
        <pt x="1130" y="162" on="1"/>
        <pt x="1130" y="0" on="1"/>
        <pt x="160" y="0" on="1"/>
      </contour>
    </TTGlyph>
    <TTGlyph name="logicalnot" xMin="240" yMin="323" xMax="1230" yMax="852">
      <contour>
        <pt x="240" y="852" on="1"/>
        <pt x="1230" y="852" on="1"/>
        <pt x="1230" y="323" on="1"/>
        <pt x="1030" y="323" on="1"/>
        <pt x="1030" y="688" on="1"/>
        <pt x="240" y="688" on="1"/>
      </contour>
    </TTGlyph>
    <TTGlyph name="lozenge" xMin="50" yMin="0" xMax="1125" yMax="1516">
      <contour>
        <pt x="50" y="762" on="1"/>
        <pt x="50" y="775" on="1"/>
        <pt x="586" y="1516" on="1"/>
        <pt x="590" y="1516" on="1"/>
        <pt x="1125" y="775" on="1"/>
        <pt x="1125" y="762" on="1"/>
        <pt x="590" y="0" on="1"/>
        <pt x="585" y="0" on="1"/>
      </contour>
      <contour>
        <pt x="589" y="293" on="1"/>
        <pt x="908" y="769" on="1"/>
        <pt x="908" y="772" on="1"/>
        <pt x="589" y="1226" on="1"/>
        <pt x="586" y="1226" on="1"/>
        <pt x="267" y="772" on="1"/>
        <pt x="267" y="766" on="1"/>
        <pt x="586" y="293" on="1"/>
      </contour>
    </TTGlyph>
    <TTGlyph name="lslash" xMin="50" yMin="0" xMax="616" yMax="1664">
      <contour>
        <pt x="197" y="749" on="1"/>
        <pt x="50" y="693" on="1"/>
        <pt x="50" y="844" on="1"/>
        <pt x="197" y="903" on="1"/>
        <pt x="197" y="1664" on="1"/>
        <pt x="417" y="1664" on="1"/>
        <pt x="417" y="991" on="1"/>
        <pt x="616" y="1071" on="1"/>
        <pt x="616" y="910" on="1"/>
        <pt x="417" y="834" on="1"/>
        <pt x="417" y="0" on="1"/>
        <pt x="197" y="0" on="1"/>
      </contour>
    </TTGlyph>
    <TTGlyph name="m" xMin="176" yMin="0" xMax="1802" yMax="1158">
      <contour>
        <pt x="176" y="1138" on="1"/>
        <pt x="372" y="1138" on="1"/>
        <pt x="373" y="1018" on="1"/>
        <pt x="498" y="1104" on="0"/>
        <pt x="653" y="1142" on="1"/>
        <pt x="718" y="1157" on="0"/>
        <pt x="799" y="1157" on="1"/>
        <pt x="988" y="1157" on="0"/>
        <pt x="1056" y="1014" on="1"/>
        <pt x="1176" y="1105" on="0"/>
        <pt x="1344" y="1143" on="1"/>
        <pt x="1407" y="1157" on="0"/>
        <pt x="1555" y="1157" on="0"/>
        <pt x="1681" y="1115" on="0"/>
        <pt x="1722" y="1062" on="1"/>
        <pt x="1802" y="960" on="0"/>
        <pt x="1802" y="714" on="1"/>
        <pt x="1802" y="0" on="1"/>
        <pt x="1582" y="0" on="1"/>
        <pt x="1582" y="711" on="1"/>
        <pt x="1582" y="859" on="0"/>
        <pt x="1544" y="914" on="1"/>
        <pt x="1503" y="974" on="0"/>
        <pt x="1396" y="974" on="1"/>
        <pt x="1238" y="974" on="0"/>
        <pt x="1095" y="871" on="1"/>
        <pt x="1104" y="802" on="0"/>
        <pt x="1104" y="714" on="1"/>
        <pt x="1104" y="0" on="1"/>
        <pt x="884" y="0" on="1"/>
        <pt x="884" y="711" on="1"/>
        <pt x="884" y="859" on="0"/>
        <pt x="846" y="914" on="1"/>
        <pt x="805" y="974" on="0"/>
        <pt x="698" y="974" on="1"/>
        <pt x="589" y="974" on="0"/>
        <pt x="468" y="913" on="1"/>
        <pt x="430" y="894" on="0"/>
        <pt x="396" y="869" on="1"/>
        <pt x="396" y="0" on="1"/>
        <pt x="176" y="0" on="1"/>
      </contour>
    </TTGlyph>
    <TTGlyph name="macron" xMin="50" yMin="1425" xMax="597" yMax="1588">
      <contour>
        <pt x="50" y="1588" on="1"/>
        <pt x="597" y="1588" on="1"/>
        <pt x="597" y="1425" on="1"/>
        <pt x="50" y="1425" on="1"/>
      </contour>
    </TTGlyph>
    <TTGlyph name="macron.cap" xMin="50" yMin="1729" xMax="597" yMax="1891">
      <contour>
        <pt x="50" y="1891" on="1"/>
        <pt x="597" y="1891" on="1"/>
        <pt x="597" y="1729" on="1"/>
        <pt x="50" y="1729" on="1"/>
      </contour>
    </TTGlyph>
    <TTGlyph name="minus" xMin="250" yMin="683" xMax="1100" yMax="860">
      <contour>
        <pt x="250" y="860" on="1"/>
        <pt x="1100" y="860" on="1"/>
        <pt x="1100" y="683" on="1"/>
        <pt x="250" y="683" on="1"/>
      </contour>
    </TTGlyph>
    <TTGlyph name="minute" xMin="190" yMin="1190" xMax="515" yMax="1793">
      <contour>
        <pt x="284" y="1793" on="1"/>
        <pt x="515" y="1793" on="1"/>
        <pt x="353" y="1190" on="1"/>
        <pt x="190" y="1190" on="1"/>
      </contour>
    </TTGlyph>
    <TTGlyph name="mu" xMin="210" yMin="-371" xMax="1256" yMax="1140">
      <contour>
        <pt x="1043" y="-18" on="1"/>
        <pt x="923" y="-18" on="0"/>
        <pt x="923" y="106" on="1"/>
        <pt x="923" y="113" on="0"/>
        <pt x="923" y="120" on="1"/>
        <pt x="869" y="60" on="0"/>
        <pt x="831" y="36" on="1"/>
        <pt x="749" y="-16" on="0"/>
        <pt x="560" y="-16" on="0"/>
        <pt x="428" y="29" on="0"/>
        <pt x="383" y="88" on="1"/>
        <pt x="415" y="-371" on="1"/>
        <pt x="210" y="-371" on="1"/>
        <pt x="210" y="1140" on="1"/>
        <pt x="429" y="1140" on="1"/>
        <pt x="429" y="399" on="1"/>
        <pt x="429" y="204" on="0"/>
        <pt x="566" y="169" on="1"/>
        <pt x="613" y="157" on="0"/>
        <pt x="767" y="157" on="0"/>
        <pt x="893" y="245" on="1"/>
        <pt x="893" y="1140" on="1"/>
        <pt x="1113" y="1140" on="1"/>
        <pt x="1113" y="234" on="1"/>
        <pt x="1113" y="170" on="0"/>
        <pt x="1132" y="161" on="1"/>
        <pt x="1139" y="158" on="0"/>
        <pt x="1181" y="158" on="0"/>
        <pt x="1225" y="185" on="1"/>
        <pt x="1256" y="87" on="1"/>
        <pt x="1223" y="34" on="0"/>
        <pt x="1120" y="-4" on="1"/>
        <pt x="1083" y="-18" on="0"/>
      </contour>
    </TTGlyph>
    <TTGlyph name="multiply" xMin="234" yMin="311" xMax="1138" yMax="1247">
      <contour>
        <pt x="234" y="439" on="1"/>
        <pt x="572" y="774" on="1"/>
        <pt x="234" y="1119" on="1"/>
        <pt x="364" y="1247" on="1"/>
        <pt x="686" y="893" on="1"/>
        <pt x="1008" y="1247" on="1"/>
        <pt x="1138" y="1119" on="1"/>
        <pt x="800" y="777" on="1"/>
        <pt x="1138" y="439" on="1"/>
        <pt x="1008" y="311" on="1"/>
        <pt x="686" y="654" on="1"/>
        <pt x="364" y="311" on="1"/>
      </contour>
    </TTGlyph>
    <TTGlyph name="n" xMin="176" yMin="0" xMax="1109" yMax="1158">
      <contour>
        <pt x="176" y="1138" on="1"/>
        <pt x="372" y="1138" on="1"/>
        <pt x="373" y="1018" on="1"/>
        <pt x="498" y="1104" on="0"/>
        <pt x="657" y="1142" on="1"/>
        <pt x="723" y="1157" on="0"/>
        <pt x="867" y="1157" on="0"/>
        <pt x="991" y="1114" on="0"/>
        <pt x="1032" y="1061" on="1"/>
        <pt x="1109" y="960" on="0"/>
        <pt x="1109" y="710" on="1"/>
        <pt x="1109" y="0" on="1"/>
        <pt x="889" y="0" on="1"/>
        <pt x="889" y="711" on="1"/>
        <pt x="889" y="861" on="0"/>
        <pt x="849" y="918" on="1"/>
        <pt x="809" y="976" on="0"/>
        <pt x="705" y="976" on="1"/>
        <pt x="592" y="976" on="0"/>
        <pt x="468" y="913" on="1"/>
        <pt x="430" y="894" on="0"/>
        <pt x="396" y="869" on="1"/>
        <pt x="396" y="0" on="1"/>
        <pt x="176" y="0" on="1"/>
      </contour>
    </TTGlyph>
    <TTGlyph name="nacute" xMin="176" yMin="0" xMax="1109" yMax="1783">
      <component glyphName="acute" x="530" y="0" flags="0x1004"/>
      <component glyphName="n" x="0" y="0" flags="0x1004"/>
    </TTGlyph>
    <TTGlyph name="napostrophe" xMin="176" yMin="-560" xMax="1109" yMax="1158">
      <component glyphName="commaaccent" x="498" y="0" flags="0x1004"/>
      <component glyphName="n" x="0" y="0" flags="0x1004"/>
    </TTGlyph>
    <TTGlyph name="ncaron" xMin="176" yMin="0" xMax="1109" yMax="1710">
      <component glyphName="caron" x="291" y="28" flags="0x1004"/>
      <component glyphName="n" x="0" y="0" flags="0x1004"/>
    </TTGlyph>
    <TTGlyph name="ncommaaccent" xMin="176" yMin="-560" xMax="1109" yMax="1158">
      <component glyphName="commaaccent" x="498" y="0" flags="0x1004"/>
      <component glyphName="n" x="0" y="0" flags="0x1004"/>
    </TTGlyph>
    <TTGlyph name="nine" xMin="176" yMin="-390" xMax="1216" yMax="1272">
      <contour>
        <pt x="981" y="625" on="1"/>
        <pt x="981" y="1115" on="0"/>
        <pt x="676" y="1115" on="1"/>
        <pt x="555" y="1115" on="0"/>
        <pt x="474" y="1015" on="1"/>
        <pt x="397" y="921" on="0"/>
        <pt x="397" y="706" on="0"/>
        <pt x="434" y="567" on="0"/>
        <pt x="467" y="520" on="1"/>
        <pt x="533" y="427" on="0"/>
        <pt x="643" y="427" on="1"/>
        <pt x="731" y="427" on="0"/>
        <pt x="785" y="452" on="1"/>
        <pt x="800" y="459" on="0"/>
        <pt x="815" y="466" on="1"/>
        <pt x="867" y="342" on="1"/>
        <pt x="819" y="286" on="0"/>
        <pt x="690" y="264" on="1"/>
        <pt x="644" y="256" on="0"/>
        <pt x="487" y="256" on="0"/>
        <pt x="335" y="334" on="0"/>
        <pt x="282" y="399" on="1"/>
        <pt x="176" y="531" on="0"/>
        <pt x="176" y="725" on="1"/>
        <pt x="176" y="972" on="0"/>
        <pt x="316" y="1120" on="1"/>
        <pt x="460" y="1272" on="0"/>
        <pt x="709" y="1272" on="1"/>
        <pt x="950" y="1272" on="0"/>
        <pt x="1088" y="1096" on="1"/>
        <pt x="1216" y="935" on="0"/>
        <pt x="1216" y="684" on="1"/>
        <pt x="1216" y="413" on="0"/>
        <pt x="1079" y="167" on="1"/>
        <pt x="959" y="-49" on="0"/>
        <pt x="752" y="-204" on="1"/>
        <pt x="562" y="-348" on="0"/>
        <pt x="361" y="-390" on="1"/>
        <pt x="287" y="-254" on="1"/>
        <pt x="583" y="-179" on="0"/>
        <pt x="786" y="89" on="1"/>
        <pt x="906" y="248" on="0"/>
        <pt x="954" y="422" on="1"/>
        <pt x="978" y="507" on="0"/>
        <pt x="981" y="604" on="0"/>
      </contour>
    </TTGlyph>
    <TTGlyph name="notequal" xMin="242" yMin="203" xMax="1157" yMax="1319">
      <contour>
        <pt x="494" y="433" on="1"/>
        <pt x="242" y="433" on="1"/>
        <pt x="242" y="599" on="1"/>
        <pt x="555" y="599" on="1"/>
        <pt x="681" y="949" on="1"/>
        <pt x="242" y="949" on="1"/>
        <pt x="242" y="1116" on="1"/>
        <pt x="743" y="1116" on="1"/>
        <pt x="820" y="1319" on="1"/>
        <pt x="992" y="1319" on="1"/>
        <pt x="915" y="1116" on="1"/>
        <pt x="1157" y="1116" on="1"/>
        <pt x="1157" y="949" on="1"/>
        <pt x="852" y="949" on="1"/>
        <pt x="726" y="599" on="1"/>
        <pt x="1157" y="599" on="1"/>
        <pt x="1157" y="433" on="1"/>
        <pt x="664" y="433" on="1"/>
        <pt x="580" y="203" on="1"/>
        <pt x="410" y="203" on="1"/>
      </contour>
    </TTGlyph>
    <TTGlyph name="ntilde" xMin="176" yMin="0" xMax="1125" yMax="1648">
      <component glyphName="n" x="0" y="0" flags="0x1204"/>
      <component glyphName="tilde" x="244" y="0" flags="0x1004"/>
    </TTGlyph>
    <TTGlyph name="numbersign" xMin="207" yMin="0" xMax="1378" yMax="1373">
      <contour>
        <pt x="409" y="355" on="1"/>
        <pt x="207" y="355" on="1"/>
        <pt x="207" y="511" on="1"/>
        <pt x="423" y="511" on="1"/>
        <pt x="456" y="880" on="1"/>
        <pt x="241" y="880" on="1"/>
        <pt x="241" y="1033" on="1"/>
        <pt x="470" y="1033" on="1"/>
        <pt x="501" y="1373" on="1"/>
        <pt x="692" y="1373" on="1"/>
        <pt x="660" y="1033" on="1"/>
        <pt x="967" y="1033" on="1"/>
        <pt x="997" y="1373" on="1"/>
        <pt x="1187" y="1373" on="1"/>
        <pt x="1156" y="1033" on="1"/>
        <pt x="1378" y="1033" on="1"/>
        <pt x="1378" y="880" on="1"/>
        <pt x="1142" y="880" on="1"/>
        <pt x="1108" y="511" on="1"/>
        <pt x="1334" y="511" on="1"/>
        <pt x="1334" y="355" on="1"/>
        <pt x="1093" y="355" on="1"/>
        <pt x="1061" y="0" on="1"/>
        <pt x="876" y="0" on="1"/>
        <pt x="907" y="355" on="1"/>
        <pt x="597" y="355" on="1"/>
        <pt x="564" y="0" on="1"/>
        <pt x="377" y="0" on="1"/>
      </contour>
      <contour>
        <pt x="921" y="511" on="1"/>
        <pt x="953" y="880" on="1"/>
        <pt x="646" y="880" on="1"/>
        <pt x="611" y="511" on="1"/>
      </contour>
    </TTGlyph>
    <TTGlyph name="o" xMin="95" yMin="-16" xMax="1118" yMax="1156">
      <contour>
        <pt x="582" y="-16" on="1"/>
        <pt x="459" y="-16" on="0"/>
        <pt x="364" y="34" on="1"/>
        <pt x="96" y="172" on="0"/>
        <pt x="96" y="577" on="1"/>
        <pt x="96" y="858" on="0"/>
        <pt x="248" y="1012" on="1"/>
        <pt x="390" y="1156" on="0"/>
        <pt x="616" y="1156" on="1"/>
        <pt x="874" y="1156" on="0"/>
        <pt x="1005" y="973" on="1"/>
        <pt x="1117" y="816" on="0"/>
        <pt x="1117" y="555" on="1"/>
        <pt x="1117" y="284" on="0"/>
        <pt x="964" y="128" on="1"/>
        <pt x="824" y="-16" on="0"/>
      </contour>
      <contour>
        <pt x="747" y="140" on="0"/>
        <pt x="894" y="355" on="0"/>
        <pt x="894" y="556" on="1"/>
        <pt x="894" y="860" on="0"/>
        <pt x="738" y="962" on="1"/>
        <pt x="682" y="998" on="0"/>
        <pt x="603" y="998" on="1"/>
        <pt x="465" y="998" on="0"/>
        <pt x="319" y="788" on="0"/>
        <pt x="319" y="591" on="1"/>
        <pt x="319" y="397" on="0"/>
        <pt x="465" y="140" on="0"/>
      </contour>
    </TTGlyph>
    <TTGlyph name="oacute" xMin="95" yMin="-16" xMax="1118" yMax="1783">
      <component glyphName="acute" x="436" y="0" flags="0x1004"/>
      <component glyphName="o" x="0" y="0" flags="0x1004"/>
    </TTGlyph>
    <TTGlyph name="obreve" xMin="95" yMin="-16" xMax="1118" yMax="1685">
      <component glyphName="o" x="0" y="0" flags="0x1204"/>
      <component glyphName="breve" x="224" y="0" flags="0x1004"/>
    </TTGlyph>
    <TTGlyph name="ocircumflex" xMin="95" yMin="-16" xMax="1118" yMax="1682">
      <component glyphName="circumflex" x="195" y="0" flags="0x1004"/>
      <component glyphName="o" x="0" y="0" flags="0x1004"/>
    </TTGlyph>
    <TTGlyph name="odieresis" xMin="95" yMin="-16" xMax="1118" yMax="1642">
      <component glyphName="dieresis" x="185" y="0" flags="0x1004"/>
      <component glyphName="o" x="0" y="0" flags="0x1004"/>
    </TTGlyph>
</ttFont>
